<?xml version="1.0" encoding="UTF-8"?>
<!DOCTYPE svg PUBLIC "-//W3C//DTD SVG 1.1//EN" "http://www.w3.org/Graphics/SVG/1.1/DTD/svg11.dtd">
<!-- Creator: CorelDRAW 2018 (64 Bit) -->
<svg xmlns="http://www.w3.org/2000/svg" xml:space="preserve" width="4.064mm" height="4.064mm" version="1.1" style="shape-rendering:geometricPrecision; text-rendering:geometricPrecision; image-rendering:optimizeQuality; fill-rule:evenodd; clip-rule:evenodd"
viewBox="0 0 406.4 406.4"
 xmlns:xlink="http://www.w3.org/1999/xlink">
 <defs>
  <style type="text/css">
   <![CDATA[
    .str1 {stroke:#BACDF4;stroke-width:7.62;stroke-miterlimit:10}
    .str0 {stroke:#BACDF4;stroke-width:10.76;stroke-miterlimit:10}
    .fil3 {fill:#EDF1FD}
    .fil2 {fill:#FEFEFE;fill-rule:nonzero}
    .fil0 {fill:#A8C7E9;fill-rule:nonzero}
    .fil1 {fill:#BACDF4;fill-rule:nonzero}
   ]]>
  </style>
 </defs>
 <g id="Camada_x0020_1">
  <metadata id="CorelCorpID_0Corel-Layer"/>
  <g id="_2592686944512">
   <path class="fil0" d="M91.8 206.94l21.84 0c5.34,0 9.7,4.36 9.7,9.69l0 137.82c0,5.33 -4.36,9.69 -9.7,9.69l-21.84 0c-5.32,0 -9.68,-4.36 -9.68,-9.69l0 -137.82c0,-5.33 4.36,-9.69 9.68,-9.69z"/>
   <path class="fil1 str0" d="M91.8 206.94l21.84 0c5.34,0 9.7,4.36 9.7,9.69l0 137.82c0,5.33 -4.36,9.69 -9.7,9.69l-21.84 0c-5.32,0 -9.68,-4.36 -9.68,-9.69l0 -137.82c0,-5.33 4.36,-9.69 9.68,-9.69z"/>
   <path class="fil1 str1" d="M349.15 155.41c10.21,0 18.55,8.35 18.55,18.55l0 24.74c0,10.2 -8.34,18.55 -18.55,18.55l0 -61.84z"/>
   <path class="fil1" d="M151.29 138.95l0 113.39c-37.45,-7.34 -91.92,-12.53 -111.16,-15.09 -4.07,-0.48 -7.03,-3.91 -7.11,-8.07l-0.4 -50.31c0,-5.26 3.6,-9.98 8.79,-11.33 20.68,-5.43 73.3,-15.81 109.88,-28.59z"/>
   <path class="fil2" d="M341.17 294.43c0.15,20.84 -21.54,34.17 -39.37,24.03 -36.02,-20.44 -87.24,-48.39 -112.03,-56.93 -6.58,-2.24 -16.81,-4.71 -28.9,-7.11l0 -119.38c12.24,-4.4 22.7,-8.55 29.29,-12.14 23.94,-13.1 72.52,-48.39 107.85,-74.91 17.5,-13.02 41.99,-0.24 42.15,22.04l0.46 108.76 0.55 115.64z"/>
  </g>
  <path class="fil3" d="M177.8 189.97c65.13,-35.18 88.48,-47.45 135.47,-88.37l3.64 -36.45c-62.91,44.92 -92.54,70.32 -139.11,87.25l0 37.57z"/>
  <rect class="fil3" x="43.32" y="176.73" width="15.88" height="50.8"/>
  <rect class="fil3" x="82.95" y="237.27" width="15.88" height="114.1"/>
 </g>
</svg>
