<?xml version="1.0" encoding="UTF-8"?>
<!DOCTYPE svg PUBLIC "-//W3C//DTD SVG 1.0//EN" "http://www.w3.org/TR/2001/REC-SVG-20010904/DTD/svg10.dtd">
<!-- Creator: CorelDRAW 2018 (64 Bit) -->
<svg xmlns="http://www.w3.org/2000/svg" xml:space="preserve" width="2083px" height="2083px" version="1.0" style="shape-rendering:geometricPrecision; text-rendering:geometricPrecision; image-rendering:optimizeQuality; fill-rule:evenodd; clip-rule:evenodd"
viewBox="0 0 20830 20830"
 xmlns:xlink="http://www.w3.org/1999/xlink">
 <defs>
  <style type="text/css">
   <![CDATA[
    .fil4 {fill:#264697}
    .fil2 {fill:#8BAAF3}
    .fil3 {fill:#8BB0D4}
    .fil0 {fill:#B4CCF9}
    .fil1 {fill:#D0DEF9}
   ]]>
  </style>
 </defs>
 <g id="Camada_x0020_1">
  <metadata id="CorelCorpID_0Corel-Layer"/>
  <g id="_2482603929344">
   <g>
    <path class="fil0" d="M11583.4 6949.5c2001.2,1089.8 3623.3,3740 3623.3,5919.9 0,2179.7 -1622.1,3063.5 -3623.3,1973.4 -2000.1,-1089.9 -3622.2,-3740.1 -3622.2,-5919.7 0,-2180 1622.1,-3063.8 3622.2,-1973.6z"/>
    <path class="fil1" d="M11583.4 10089.3c1243.8,858 2224.1,2095.3 2699.3,3280.3 103.3,-111.1 188,-255.5 241.9,-457.5 406.3,-1550.8 -919.5,-3945.6 -2941.2,-5340.9l0 2518.1z"/>
    <path class="fil2" d="M13350.6 4235.6l-134.9 -71.7 -134 -67 -134 -63.7 -131.6 -59.4 -131.4 -54.8 -130.7 -51.8 -128.8 -46.5 -129 -43.5 -126.1 -38.7 -126.5 -35.5 -124.7 -30.7 -123.8 -27.3 -122 -23.3 -120.4 -19.3 -119.6 -15.3 -117.8 -12.2 -116.8 -8 -115.4 -4 -113.5 -0.8 -111.7 3.9 -110.3 6.6 -109.3 11.3 -106.6 14.5 -105.1 17.7 -103.3 21.8 -101.5 25.6 -100 29 -98.2 32.4 -1766.3 962.5 97.6 -32.1 99.7 -29 101.8 -25.9 103.9 -21.8 105.1 -17.7 106.6 -14.5 108.4 -11.4 111.1 -7 111.8 -3.4 113.5 0.8 115.3 3.9 116 8.3 118.1 11.4 119.5 15.9 121.1 19.3 122 23.3 123.7 26.8 124.7 31.5 125.6 35.2 127.1 38.6 128.3 43.6 129.5 46.9 129.8 51.4 131.6 54.8 132.2 59.7 133.1 62.8 134 67.7 135 71.6 134.9 75.8 134 78.2 134 82.1 132.6 84.4 130.4 87.8 130.7 91.3 129.8 94 128 96.9 127.1 98.9 125.5 102.3 124.7 104.8 123.8 107.2 122 109.4 120.4 112 119.6 115.4 118.7 116.8 115.9 118.2 115.4 121.6 113.5 123.3 111.7 125.7 110.3 127.3 108.4 129 107.5 131.3 105.1 132.7 103.3 134.7 101.5 135.3 100 137.8 98.2 139.2 95.5 141 93.9 141.8 92.1 142.6 89.8 145 87 144.9 86.2 146.6 82.8 148.4 81.3 148 78.3 150.1 77.1 150.6 74.1 150.6 71.7 151.5 69.3 152.9 66.5 153.1 64.2 152.9 62.3 154 58.7 153.8 56.4 154.9 53.8 154.5 51.2 154.6 47.9 154.6 45.2 155.5 42.8 154.9 40 154.5 36.8 154.6 33.1 154.1 30.7 153.7 28.3 153.7 23.8 153.2 21.4 152.3 18.7 152.1 14.8 151.4 11.7 150.7 8.7 150 5.1 148.9 1.5 147.5 -1.5 146.6 -5.1 143.3 -8.7 140.3 -11.7 137.6 -14.8 135.3 -18.7 132.1 -21.4 129 -23.8 126.5 -28.3 123.3 -30.7 119.9 -33.1 117.7 -36.8 114.2 -40 112 -42.8 108 -45.2 105.7 -47.9 102.3 -51.2 99.7 -53.8 95.8 -56.4 92.7 -58.7 90.3 -62.3 86.1 -64.2 83.9 -66.5 79.8 -69.3 77.3 -71.7 73.3 -74.1 69.9 -77.1 67.6 1767.3 -962.4 75.9 -66.8 74.4 -71.1 71.6 -73.3 69.3 -77.3 67.5 -79.6 63.8 -83.8 61.5 -86.4 59 -90.1 56.3 -92.6 53.9 -95.8 51.2 -99.2 47.6 -102.3 46.4 -105.4 42.4 -108.8 39.5 -111.1 36.7 -114.6 34.1 -117.6 30.7 -120.8 27.4 -123.1 24.7 -126.7 21.3 -128.7 17.8 -132.2 15.4 -135.3 12 -137.7 7.9 -140.1 5.1 -143.6 1.5 -145.7 -1.5 -148.1 -5.1 -149.2 -7.9 -149.8 -12 -150.6 -15.4 -151.4 -17.8 -151.5 -21.3 -152.9 -24.7 -153.2 -27.4 -153.1 -30.7 -153.8 -34.1 -154.6 -36.7 -154.8 -39.5 -154.6 -42.4 -154.6 -46.4 -154.6 -47.6 -155.5 -51.2 -154.8 -53.9 -154.6 -56.3 -153.8 -59 -154.9 -61.5 -153.7 -63.8 -153.2 -67.5 -152.8 -69.3 -152.4 -71.6 -152.3 -74.4 -150.6 -75.9 -150.6 -78.6 -148.9 -81 -149.2 -83.8 -147.2 -85.2 -146.7 -87.9 -145.7 -89.8 -144.4 -92.1 -143.2 -94 -141.8 -95.5 -141 -98.2 -138.7 -99 -137.8 -101.5 -136.2 -104.2 -134.3 -105.2 -133 -106.6 -131.3 -108.4 -128.7 -111.1 -127.4 -111.7 -125.6 -113.6 -123.3 -115.3 -120.8 -116 -119.3 -117.7 -116.8 -119.6 -114.3 -121.4 -112.8 -122 -109.7 -122.8 -107.1 -125.6 -104.6 -125.6 -102.3 -127.1 -99.2 -128 -96.6 -128.9 -94.3 -130.7 -90.1 -131.6 -88.7 -132.2 -84.7 -133.1 -81.3 -134 -78.9 -135 -75.6z"/>
    <path class="fil3" d="M6897.5 10875.7l1767.3 -962.8 -10.3 1.6 -9.6 1.8 -10.2 1.4 -10.3 1.7 -9.3 1.7 -10.3 2.3 -9.3 1.7 -9.3 2.3 -10.3 2.5 -9.3 2.3 -9.6 2.6 -9.4 2.2 -10.2 2.6 -9.3 3.1 -9.4 2.6 -9.3 3.1 -9.4 3.1 -9.6 3.4 -9.3 3.1 -8.5 3.2 -9.3 3.4 -9.6 3.9 -9.4 3.2 -8.4 4.2 -9.3 4 -8.8 4 -9.3 4 -8.4 4 -8.5 4.8 -1767.2 962.8 8.4 -4.9 9.3 -4.2 8.8 -4 9.3 -4 8.4 -3.9 9.4 -4 9.6 -3.4 8.4 -4 9.4 -3.1 9.3 -4 9.4 -3.4 9.6 -3.2 9.3 -2.2 9.4 -3.4 9.3 -3.2 9.3 -2.5 9.7 -2.3 9.3 -3.1 10.3 -2.6 9.3 -1.7 9.3 -2.2 10.3 -2.6 9.3 -1.4 9.3 -2.6 10.6 -1.7 10.2 -1.4 9.4 -1.7 10.2 -1.7 9.3 -1.4z"/>
    <path class="fil3" d="M9067.7 14896.2l1767 -961.9 16.2 -11.4 15.4 -10.5 16.3 -11.1 15.3 -12.2 14.5 -12 14.4 -12.2 14.8 -12.8 14.4 -13.6 13.6 -13.1 13.8 -13.6 12.7 -14.5 13.5 -14.5 12.1 -14.5 -1766.3 962.5 -12.7 14.5 -12.9 14.4 -13.6 14 -12.9 14.5 -14.5 12.8 -13.5 12.7 -14.5 13.2 -14.8 12.7 -15.3 12.3 -15.4 11 -15.3 12.3 -16.3 10.5 -16 10.5z"/>
    <path class="fil3" d="M7961.2 8923.1l1766.4 -962.8 1.5 -101.5 3.6 -99.1 6 -97.5 7.6 -95.8 11.1 -93.5 12.1 -90.9 15.3 -89.5 16.9 -87.9 19 -85.2 21.3 -83.8 22.9 -81.3 25.6 -79 27.4 -77.3 29.8 -75 31.7 -73.3 33.4 -70.8 34.9 -68.5 37.4 -66.8 39.4 -64.5 41 -61.9 42.8 -60.6 44.2 -57.9 46.1 -55.7 47.9 -53.2 49.4 -50.6 51.2 -48.3 53 -46.9 54.8 -44.3 56.3 -41.8 57.8 -39.5 59.1 -36.9 60.5 -34.7 -1766.3 962.5 -60.6 34.7 -59.6 36.9 -57.2 39.5 -56.3 42 -54.8 44.4 -53.1 45.8 -51.2 49.1 -49.4 50.9 -48.7 53.2 -46.1 55.4 -44.3 57.9 -42.8 59.7 -40.9 62.8 -39.2 64.5 -36.7 66 -34.9 69.3 -34.4 71 -30.7 72.5 -29.8 75.6 -27.4 76.7 -25.6 79.6 -22.9 81.3 -21.4 83.8 -19.6 85.5 -17.1 87 -14.5 90.1 -12.9 91.2 -10.3 93.2 -8.4 96.1 -5.1 97.4 -4.2 98.9 -1 101.8z"/>
    <path class="fil3" d="M14145.4 15082.9l1766.3 -962.6 -61.4 32.2 -64.1 29.8 -64.8 27.3 -66.5 25 -67.5 22.8 -69.3 20.2 -70.7 17.6 -71.7 15.3 -72.6 12 -74.4 10.5 -75 7.4 -76.2 4.8 -77.4 2.3 -78.6 0 -80.4 -3.2 -80.1 -5.7 -81.9 -8 -82.8 -10.4 -83.8 -13.7 -84.6 -16.2 -85.3 -19.3 -87 -21.9 -87 -24.1 -88 -26.5 -88.8 -29.8 -89.7 -33 -90.4 -35.5 -90.6 -37.8 -92.2 -41.2 -92.2 -44.3 -93 -46.6 -93.1 -50 -1767.2 962.5 93.9 50 93.1 46.9 92.2 43.5 91.5 40.8 91.3 38.7 90.3 35.5 89.7 32.2 88.9 29.8 88 27.6 87 24.1 86.1 21.6 85.6 19.4 85.2 16.2 83.7 12.7 82.8 11.4 81.1 8 80.9 5.6 79.6 2.6 78.6 0.8 77.7 -2.5 76.8 -4.8 75 -8 74.3 -9.7 72.6 -13 71.7 -14.5 69.9 -17.7 69.3 -20.1 68.3 -22.5 65.6 -25 65.7 -27.5 63.3 -29.6 62.3 -32.4z"/>
    <path class="fil3" d="M11583.4 14842.8l1767.2 -962.5 -93.9 -52.3 -93.1 -54 -92.1 -56.6 -91.3 -59.4 -91.6 -60.5 -90.3 -62.8 -89.8 -65.3 -88.5 -66.8 -87.9 -69.4 -87.4 -69.9 -86.1 -72.5 -85.2 -75 -85.6 -75.6 -83.7 -77.5 -82.8 -79.6 -81 -80.7 -81 -83 -79.6 -83.5 -78.6 -85.6 -77.7 -86.9 -76.8 -87.9 -75 -89.5 -74.4 -90.9 -72.5 -91.8 -71.7 -93.5 -70.8 -94.3 -68.3 -95 -68.4 -96.6 -66.6 -97.4 -64.7 -98.4 -63.3 -99.1 -62.3 -99.8 -1766.3 962.5 61.4 100 64.2 98.9 64.7 98.4 66.9 97.4 67.1 96.7 69.3 95.2 70.8 94 71 92.7 73.2 92.6 74.4 90.3 75 89.3 76.2 88.7 77.7 86.9 78.6 85.6 80.1 83.8 80.1 82.1 82.2 81.3 82.9 79 83.4 78.1 84.6 75.6 85.2 74.2 87.4 72.5 87 71 88 69.1 88.5 67 89.7 64.6 90.7 63.3 90.3 60.5 92.2 58.9 92.1 57.1 93.1 54 93.1 52.3z"/>
    <path class="fil3" d="M9022.3 12291.7l1766.3 -962.5 -60.5 -100.9 -59.1 -101.4 -57.8 -102.3 -56.3 -103.2 -54.8 -102.9 -53 -104.8 -51.2 -104 -49.4 -105.5 -47.9 -105.4 -46.1 -105.7 -44.2 -106.3 -42.8 -107.1 -41 -106.3 -39.4 -107.2 -37.4 -107.1 -34.9 -107.1 -33.4 -107.1 -31.7 -108 -29.8 -107.2 -27.4 -107.1 -25.6 -107.1 -22.9 -106.3 -21.3 -107.1 -19 -106.3 -16.9 -105.7 -15.3 -106.3 -12.1 -104.6 -11.1 -104.9 -7.6 -104.5 -6 -104.1 -3.6 -103.1 -1.5 -102.3 -1766.4 962.8 1 102.3 4.2 102.9 5.1 104 8.4 104 10.3 104.6 12.9 105.7 14.5 105.4 17.1 106.2 19.6 106.4 21.4 106.5 22.9 107.2 25.6 107.1 27.4 107.1 29.8 107.2 30.7 107.1 34.4 107.7 34.9 107.1 36.7 107.2 39.2 107.1 40.9 106.6 42.8 106.2 44.3 106.3 46.1 106.3 48.7 105.4 49.4 104.9 51.2 104.6 53.1 104 54.8 104 56.3 103.2 57.2 102.3 58.7 101.4 61.5 100.6z"/>
    <path class="fil3" d="M9022.3 6709.3l1766.3 -962.5 62.3 -32.4 63.3 -29.8 64.7 -27.3 -1766.3 962.5 -64.7 27.6 -64.2 29.8 -61.4 32.1z"/>
    <path class="fil4" d="M11583.4 5198.1c-1443.5,-786.1 -2751.5,-860.2 -3697.4,-345.6 -946.6,515.5 -1531.5,1621.5 -1531.5,3194.7 0,909.6 195.5,1876.2 543,2828.5 -106,14.5 -206.6,46.6 -299.6,97.4l-3848.6 2096.7c-665,361.8 -665,1548.5 0,2635.2l0 0.5c665.8,1086.7 1753.6,1680.4 2419.5,1318.1l3848.3 -2097c92.2,-50.6 171.7,-116.8 238.3,-195.8 700.8,762.1 1492.2,1407.5 2328,1863.4 1444.4,786.3 2751.4,861 3698.3,345.5 946,-515.5 1531.4,-1621.5 1531.4,-3194.7 0,-1573.2 -585.4,-3316.3 -1531.4,-4863.1 -946.9,-1546.5 -2253.9,-2896.7 -3698.3,-3683.8zm-2561.1 1511.2l0 0c655,-356.9 1560.6,-305.2 2561.1,240.2 1000.4,544.4 1906.4,1480.5 2562,2551 655.7,1071.4 1061.3,2278.8 1061.3,3368.9 0,1090.7 -405.6,1856.6 -1061.3,2213.5 -655.6,356.9 -1561.6,305.2 -2562,-240.1 -1000.5,-545.4 -1906.1,-1480.6 -2561.1,-2551.1 -655.7,-1071.3 -1061.1,-2278.8 -1061.1,-3368.6 0,-1090.7 405.4,-1856.8 1061.1,-2213.8z"/>
   </g>
  </g>
 </g>
</svg>
