<?xml version="1.0" encoding="UTF-8"?>
<!DOCTYPE svg PUBLIC "-//W3C//DTD SVG 1.0//EN" "http://www.w3.org/TR/2001/REC-SVG-20010904/DTD/svg10.dtd">
<!-- Creator: CorelDRAW 2018 (64 Bit) -->
<svg xmlns="http://www.w3.org/2000/svg" xml:space="preserve" width="24px" height="24px" version="1.0" style="shape-rendering:geometricPrecision; text-rendering:geometricPrecision; image-rendering:optimizeQuality; fill-rule:evenodd; clip-rule:evenodd"
viewBox="0 0 240 240"
 xmlns:xlink="http://www.w3.org/1999/xlink">
 <defs>
  <style type="text/css">
   <![CDATA[
    .fil15 {fill:#4B7F13}
    .fil9 {fill:#666565}
    .fil6 {fill:#8BAAF3}
    .fil14 {fill:#8BC051}
    .fil8 {fill:#999999}
    .fil4 {fill:#9C9C9C}
    .fil2 {fill:#B9BCBF}
    .fil12 {fill:#B9CDF3}
    .fil7 {fill:#C4CCD1}
    .fil1 {fill:#D2D6D9}
    .fil13 {fill:#DDDFE0}
    .fil5 {fill:#E6E9EA}
    .fil0 {fill:#EAEEF2}
    .fil11 {fill:#EE9E09}
    .fil10 {fill:#FFB93A}
    .fil3 {fill:white}
   ]]>
  </style>
 </defs>
 <g id="Camada_x0020_1">
  <metadata id="CorelCorpID_0Corel-Layer"/>
  <path class="fil0" d="M4.6 132.3l92.5 -54.9 131.9 78.2 -92.6 55 -131.8 -78.3z"/>
  <path class="fil1" d="M136.4 210.6l92.6 -55 0 8.3 -92.6 55 0 -8.3z"/>
  <path class="fil2" d="M136.4 218.9l-131.8 -78.2 0 -8.4 131.8 78.3 0 8.3z"/>
  <path class="fil2" d="M136.7 193.9l59.8 -35.6 0 -81.5 -59.9 35.6 0.1 81.5z"/>
  <path class="fil3" d="M136.7 193.9l-0.1 -81.6 -103.9 -61.6 0.1 81.5 103.9 61.7z"/>
  <path class="fil4" d="M92.5 17.7l-55.5 33 5.3 3.1 50.2 -29.8 0 -6.3z"/>
  <path class="fil5" d="M186.9 80l5.4 -3.1 -99.8 -59.2 0 6.3 94.4 56z"/>
  <path class="fil6" d="M136.7 109.8l50.2 -29.8 -94.4 -56 -50.2 29.8 94.4 56z"/>
  <path class="fil7" d="M136.6 112.4l59.9 -35.6 -103.9 -61.6 -59.9 35.5 103.9 61.7zm0.1 -2.6l0 0 -99.7 -59.1 55.5 -33 99.8 59.2 -55.6 32.9z"/>
  <path class="fil8" d="M118.3 183l-26.6 -15.8 0 -51.9 26.6 15.8 0 51.9z"/>
  <path class="fil9" d="M115.9 181.5l-21.7 -12.9 0 -48.4 21.7 12.9 0 48.4z"/>
  <path class="fil10" d="M115.9 178.2l-18.9 -11.2 0 -45.1 18.9 11.2 0 45.1z"/>
  <path class="fil11" d="M76.6 143.8l0.1 0 0.1 0 0 0 0.1 0 -1.8 1 0 0.1 -0.1 0 -0.1 0 0 -0.1 -32 -18.9 0 -0.1 -0.1 -0.1 0 0 -0.1 -0.1 0 -0.1 -0.1 -0.1 0 0 0 -0.1 0 -31 0 0 0 -0.1 0.1 0 0 -0.1 1.8 -1 -0.1 0 0 0.1 0 0 0 0.1 0 30.9 0 0.1 0 0.1 0 0.1 0.1 0.1 0 0 0.1 0.1 0 0.1 0.1 0 31.9 19z"/>
  <path class="fil11" d="M65.3 103.3l11 6.5 0.1 0.1 0.2 0.1 0.1 0.1 0.1 0.2 0.1 0.1 0.1 0.1 0.1 0.2 0.1 0.1 0.1 0.2 0.1 0.2 0.1 0.1 0 0.2 0.1 0.2 0 0.2 0 0.1 0 0.2 0 32.6 0 0.2 0 0.1 0 0.2 -0.1 0.1 0 0.1 -0.1 0.1 -0.1 0.1 -0.1 0 -1.7 1.1 0.1 -0.1 0 -0.1 0.1 -0.1 0.1 -0.1 0 -0.1 0 -0.1 0.1 -0.2 0 -0.1 0 -32.7 0 -0.1 -0.1 -0.2 0 -0.2 0 -0.1 -0.1 -0.2 -0.1 -0.2 0 -0.1 -0.1 -0.2 -0.1 -0.2 -0.1 -0.1 -0.1 -0.2 -0.1 -0.1 -0.2 -0.1 -0.1 -0.1 -0.1 -0.1 -0.2 -0.1 -10.9 -6.5 -2.4 -1.4 -19 -11.3 -0.1 -0.1 -0.2 -0.1 -0.1 0 -0.1 0 -0.1 0 -0.1 0 -0.1 0 -0.1 0.1 1.7 -1.1 0.1 0 0.1 0 0.1 -0.1 0.1 0 0.2 0.1 0.1 0 0.1 0.1 0.2 0 19 11.3 2.3 1.4z"/>
  <path class="fil12" d="M43.9 93.8l0 30.9c0,0.2 0.2,0.5 0.3,0.6l30.8 18.2c0.2,0.1 0.3,0 0.3,-0.2l0 -30.9c0,-0.2 -0.1,-0.5 -0.3,-0.6l-30.8 -18.2c-0.1,-0.2 -0.3,-0.1 -0.3,0.2z"/>
  <path class="fil10" d="M74.5 110.9c0.4,0.2 0.7,0.6 1,1 0.2,0.4 0.4,0.9 0.4,1.3l0 32.7c0,0.4 -0.2,0.7 -0.4,0.9 -0.3,0.1 -0.6,0.1 -1,-0.1 -8.1,-4.8 -24.2,-14.4 -32.3,-19.2 -0.4,-0.3 -0.7,-0.6 -0.9,-1 -0.3,-0.5 -0.4,-1 -0.4,-1.4l0 -32.6c0,-0.5 0.1,-0.8 0.4,-0.9 0.2,-0.2 0.5,-0.1 0.9,0.1l19 11.3 13.3 7.9zm-31.6 -16.7l0 0c-0.1,-0.2 -0.3,-0.1 -0.3,0.1 0,20.4 0,7.3 0,31 0,0.2 0.2,0.4 0.3,0.6 18,10.6 8.2,4.8 30.9,18.3 0.2,0.1 0.3,0 0.3,-0.2l0 -30.9c0,-0.2 -0.1,-0.5 -0.3,-0.6 -15.1,-9 -13.7,-8.2 -30.9,-18.3z"/>
  <path class="fil4" d="M121.6 103.5l2 -1.2 0 -5.6 -2 1.2 0 5.6z"/>
  <path class="fil7" d="M121.6 97.9l2 -1.2 -2.1 -1.3 -2.1 1.2 2.2 1.3z"/>
  <path class="fil13" d="M121.6 97.9l-2.2 -1.3 0 5.6 2.2 1.3 0 -5.6z"/>
  <path class="fil4" d="M49.9 60.8l2 -1.2 0 -5.6 -2 1.2 0 5.6z"/>
  <path class="fil13" d="M49.9 55.2l-2.2 -1.3 0 5.6 2.2 1.3 0 -5.6z"/>
  <path class="fil11" d="M113.7 171.2l0 0 0.1 0 0 0 0 0 -0.9 0.5 0 0 -0.1 0 0 0 0 0 -12.9 -7.6 0 0 -0.1 -0.1 0 0 0 0 0 -0.1 0 0 -0.1 -0.1 0 0 0 -14.6 0 0 0.1 -0.1 0 0 0 0 0.9 -0.6 0 0 0 0.1 0 0 0 0 0 14.6 0 0.1 0 0 0 0 0 0.1 0.1 0 0 0.1 0 0 0.1 0 12.8 7.7z"/>
  <path class="fil6" d="M100.4 148.9l0 14.6c0,0.1 0.1,0.2 0.2,0.3l12.2 7.2c0.1,0.1 0.2,0 0.2,-0.1l0 -14.6c0,-0.1 -0.1,-0.2 -0.2,-0.3l-12.2 -7.2c-0.1,-0.1 -0.2,0 -0.2,0.1z"/>
  <path class="fil10" d="M112.6 155.5c0.2,0.1 0.4,0.3 0.5,0.6l0 0c0.1,0.2 0.2,0.4 0.2,0.7l0 15.5c0,0.2 -0.1,0.4 -0.2,0.5 -0.1,0 -0.3,0 -0.5,-0.1 -4.4,-2.6 -8.7,-5.2 -13.1,-7.7 -0.2,-0.2 -0.4,-0.4 -0.5,-0.6 -0.1,-0.2 -0.2,-0.5 -0.2,-0.7l0 -15.5c0,-0.3 0.1,-0.4 0.2,-0.5 0.1,-0.1 0.3,-0.1 0.5,0.1l5.9 3.5 7.2 4.2zm-12.7 -6.4l0 0c-0.1,-0.1 -0.2,0 -0.2,0.1 0,10.9 0,1.9 0,14.6 0,0.1 0.1,0.2 0.2,0.3 9.7,5.7 0.1,0 12.3,7.3 0.1,0 0.2,0 0.2,-0.1l0 -14.6c0,-0.1 -0.1,-0.3 -0.2,-0.3 -8.1,-4.8 -3.1,-1.8 -12.3,-7.3z"/>
  <path class="fil11" d="M113.7 149.7l0 0 0.1 0 0 0 0 0 -0.9 0.6 0 0 -0.1 0 0 0 0 -0.1 -12.9 -7.6 0 0 -0.1 0 0 -0.1 0 0 0 -0.1 0 0 -0.1 -0.1 0 0 0 -14.6 0 0 0.1 0 0 -0.1 0 0 0.9 -0.5 0 0 0 0 0 0 0 0.1 0 14.5 0 0.1 0 0 0 0.1 0 0 0.1 0.1 0 0 0 0 0.1 0.1 12.8 7.6z"/>
  <path class="fil6" d="M100.4 127.4l0 14.6c0,0.1 0.1,0.2 0.2,0.3l12.2 7.2c0.1,0.1 0.2,0 0.2,-0.1l0 -14.5c0,-0.2 -0.1,-0.3 -0.2,-0.4l-12.2 -7.2c-0.1,-0.1 -0.2,0 -0.2,0.1z"/>
  <path class="fil10" d="M112.6 134c0.2,0.2 0.4,0.4 0.5,0.6l0 0c0.1,0.2 0.2,0.5 0.2,0.7l0 15.5c0,0.2 -0.1,0.4 -0.2,0.5 -0.1,0.1 -0.3,0.1 -0.5,-0.1 -4.4,-2.5 -8.7,-5.1 -13.1,-7.7 -0.2,-0.1 -0.4,-0.3 -0.5,-0.6 -0.1,-0.2 -0.2,-0.4 -0.2,-0.7l0 -15.5c0,-0.2 0.1,-0.4 0.2,-0.5 0.1,0 0.3,0 0.5,0.1l5.9 3.5 7.2 4.2zm-12.7 -6.4l0 0c-0.1,0 -0.2,0 -0.2,0.1 0,10.9 0,1.9 0,14.6 0,0.1 0.1,0.3 0.2,0.3 9.7,5.7 0.1,0 12.3,7.3 0.1,0.1 0.2,0 0.2,-0.1l0 -14.6c0,-0.1 -0.1,-0.2 -0.2,-0.3 -8.1,-4.8 -3.1,-1.8 -12.3,-7.3z"/>
  <path class="fil14" d="M132.5 113.1l-95.5 -56.8 -29.9 30.2 95.5 56.8 29.9 -30.2z"/>
  <path class="fil15" d="M132.5 113.1l-29.9 30.2 30 -19.5 -0.1 -10.7z"/>
  <path class="fil5" d="M123.8 107.9l-8.6 -5.1 -29.9 30.2 8.7 5.1 29.8 -30.2z"/>
  <path class="fil5" d="M106.5 97.6l-8.7 -5.2 -29.9 30.2 8.7 5.2 29.9 -30.2z"/>
  <path class="fil5" d="M89.1 87.3l-8.7 -5.2 -29.9 30.2 8.7 5.2 29.9 -30.2z"/>
  <path class="fil5" d="M71.7 77l-8.7 -5.2 -29.8 30.2 8.6 5.2 29.9 -30.2z"/>
  <path class="fil5" d="M54.3 66.7l-8.6 -5.2 -29.9 30.2 8.7 5.1 29.8 -30.1z"/>
 </g>
</svg>
