<?xml version="1.0" encoding="UTF-8"?>
<!DOCTYPE svg PUBLIC "-//W3C//DTD SVG 1.0//EN" "http://www.w3.org/TR/2001/REC-SVG-20010904/DTD/svg10.dtd">
<!-- Creator: CorelDRAW 2018 (64 Bit) -->
<svg xmlns="http://www.w3.org/2000/svg" xml:space="preserve" width="240px" height="240px" version="1.0" style="shape-rendering:geometricPrecision; text-rendering:geometricPrecision; image-rendering:optimizeQuality; fill-rule:evenodd; clip-rule:evenodd"
viewBox="0 0 240 240"
 xmlns:xlink="http://www.w3.org/1999/xlink">
 <defs>
  <style type="text/css">
   <![CDATA[
    .str0 {stroke:#A8C7E9;stroke-width:7.09;stroke-miterlimit:22.9256}
    .fil1 {fill:none;fill-rule:nonzero}
    .fil0 {fill:#FEFEFE;fill-rule:nonzero}
   ]]>
  </style>
 </defs>
 <g id="Camada_x0020_1">
  <metadata id="CorelCorpID_0Corel-Layer"/>
  <path class="fil0" d="M195.15 129.82c0.38,-3.25 0.67,-6.46 0.67,-9.8 0,-3.35 -0.29,-6.7 -0.67,-10.09l21.3 -16.5c1.93,-1.51 2.42,-4.27 1.21,-6.45l-20.19 -34.99c-1.21,-2.23 -3.98,-3.15 -6.21,-2.23l-25.13 10.09c-5.24,-3.93 -10.72,-7.37 -17.08,-9.89l-3.73 -26.78c-0.44,-2.43 -2.53,-4.27 -5.1,-4.27l-40.41 0c-2.53,0 -4.66,1.84 -5.05,4.27l-3.74 26.78c-6.35,2.52 -11.83,5.96 -17.07,9.9l-25.18 -10.09c-2.24,-0.93 -4.95,0 -6.17,2.23l-20.23 34.98c-1.31,2.18 -0.68,4.95 1.21,6.45l21.35 16.5c-0.43,3.39 -0.72,6.74 -0.72,10.09 0,3.35 0.29,6.55 0.72,9.8l-21.35 16.79c-1.89,1.5 -2.52,4.22 -1.21,6.45l20.23 34.98c1.22,2.23 3.93,3.06 6.17,2.23l25.18 -10.23c5.24,4.07 10.72,7.52 17.07,10.04l3.74 26.78c0.39,2.43 2.52,4.22 5.05,4.22l40.41 0c2.57,0 4.66,-1.79 5.1,-4.22l3.73 -26.78c6.36,-2.67 11.84,-5.97 17.08,-10.04l25.13 10.23c2.23,0.83 5,0 6.21,-2.23l20.19 -34.98c1.21,-2.23 0.72,-4.95 -1.21,-6.45l-21.3 -16.79 0 0zm-75.11 25.57c-19.55,0 -35.37,-15.82 -35.37,-35.37 0,-19.56 15.82,-35.37 35.37,-35.37 19.55,0 35.37,15.81 35.37,35.37 0,19.55 -15.82,35.37 -35.37,35.37z"/>
  <path class="fil1 str0" d="M174.94 120.02c0,30.33 -24.6,54.93 -54.97,54.93 -30.32,0 -54.92,-24.6 -54.92,-54.93 0,-30.32 24.59,-54.97 54.92,-54.97 30.37,0 54.97,24.65 54.97,54.97z"/>
 </g>
</svg>
