<?xml version="1.0" encoding="UTF-8"?>
<!DOCTYPE svg PUBLIC "-//W3C//DTD SVG 1.0//EN" "http://www.w3.org/TR/2001/REC-SVG-20010904/DTD/svg10.dtd">
<!-- Creator: CorelDRAW 2018 (64 Bit) -->
<svg xmlns="http://www.w3.org/2000/svg" xml:space="preserve" width="48px" height="48px" version="1.0" style="shape-rendering:geometricPrecision; text-rendering:geometricPrecision; image-rendering:optimizeQuality; fill-rule:evenodd; clip-rule:evenodd"
viewBox="0 0 48 48"
 xmlns:xlink="http://www.w3.org/1999/xlink">
 <defs>
  <style type="text/css">
   <![CDATA[
    .str2 {stroke:#BACDF4;stroke-width:0.9;stroke-miterlimit:10}
    .str1 {stroke:#BACDF4;stroke-width:1.27;stroke-miterlimit:10}
    .str0 {stroke:#BACDF4;stroke-width:1.03;stroke-miterlimit:10}
    .str3 {stroke:#A8C7E9;stroke-width:2.27;stroke-miterlimit:10}
    .fil5 {fill:none;fill-rule:nonzero}
    .fil0 {fill:#FEFEFE;fill-rule:nonzero}
    .fil4 {fill:#A8C7E9;fill-rule:nonzero}
    .fil3 {fill:#3C6DEC;fill-rule:nonzero}
    .fil2 {fill:#BACDF4;fill-rule:nonzero}
    .fil1 {fill:#BACDF4;fill-rule:nonzero}
   ]]>
  </style>
 </defs>
 <g id="Camada_x0020_1">
  <metadata id="CorelCorpID_0Corel-Layer"/>
  <path class="fil0" d="M-206.98 43.01l-8.35 0c-1.06,0 -1.92,-0.86 -1.92,-1.92l0 -18.34 28.4 0 0 18.34c0,1.06 -0.87,1.92 -1.92,1.92l-8.05 0 -0.26 -10.22 -7.95 0 0.05 10.22z"/>
  <path class="fil1" d="M-201.66 1.01l18.56 19.42c0.32,0.34 0.14,1 -0.28,1l-39.68 0c-0.41,0 -0.6,-0.66 -0.28,-1l18.56 -19.42c0.91,-0.95 2.21,-0.95 3.12,0z"/>
  <path class="fil0" d="M-134.02 35.54c0,3.1 1.36,5.89 3.55,7.85l-22.32 0c-1.27,0 -2.29,-1.01 -2.25,-2.22 0.15,-4.08 1.11,-12.74 6.44,-17.03 1.96,1.51 4.47,2.43 7.2,2.43 2.93,0 5.59,-1.05 7.61,-2.77 1.42,1.02 2.54,2.33 3.43,3.79 -2.25,1.97 -3.66,4.81 -3.66,7.95z"/>
  <path class="fil2" d="M-129.97 13.91c0,3.39 -1.48,6.43 -3.82,8.53 -2.02,1.8 -4.68,2.91 -7.61,2.91 -2.73,0 -5.24,-0.96 -7.2,-2.55 -2.59,-2.11 -4.24,-5.3 -4.24,-8.89 0,-6.31 5.12,-11.44 11.44,-11.44 6.31,0 11.43,5.13 11.43,11.44z"/>
  <path class="fil3" d="M-112.37 34.11c0,6.27 -5.08,11.35 -11.34,11.35 -3.01,0 -5.76,-1.18 -7.79,-3.1 -2.19,-2.06 -3.56,-4.99 -3.56,-8.25 0,-3.3 1.42,-6.28 3.66,-8.35 2.03,-1.86 4.72,-2.99 7.69,-2.99 6.26,0 11.34,5.07 11.34,11.34z"/>
  <path class="fil0" d="M-125.43 42.88l-2.48 0c-0.86,0 -1.56,-0.71 -1.56,-1.57l0 -8.52c0,-0.86 0.7,-1.57 1.56,-1.57l8.53 0c0.86,0 1.57,0.71 1.57,1.57l0 8.52c0,0.86 -0.71,1.57 -1.57,1.57l-2.36 0c-0.09,0 -0.17,-0.07 -0.17,-0.16l-0.1 -3.87c0,-0.09 -0.07,-0.17 -0.17,-0.17l-2.93 0c-0.09,0 -0.16,0.08 -0.16,0.17l0.01 3.86c0,0.09 -0.07,0.17 -0.17,0.17z"/>
  <path class="fil4" d="M-123.07 25.64l7.62 7.97c0.13,0.14 0.05,0.41 -0.12,0.41l-16.28 0c-0.18,0 -0.25,-0.27 -0.12,-0.41l7.62 -7.97c0.37,-0.39 0.9,-0.39 1.28,0z"/>
  <path class="fil2 str0" d="M-123.07 25.64l7.62 7.97c0.13,0.14 0.05,0.41 -0.12,0.41l-16.28 0c-0.18,0 -0.25,-0.27 -0.12,-0.41l7.62 -7.97c0.37,-0.39 0.9,-0.39 1.28,0z"/>
  <path class="fil4" d="M-67.01 23.2l2.58 0c0.63,0 1.14,0.52 1.14,1.14l0 16.28c0,0.63 -0.51,1.15 -1.14,1.15l-2.58 0c-0.63,0 -1.14,-0.52 -1.14,-1.15l0 -16.28c0,-0.62 0.51,-1.14 1.14,-1.14z"/>
  <path class="fil2 str1" d="M-67.01 23.2l2.58 0c0.63,0 1.14,0.52 1.14,1.14l0 16.28c0,0.63 -0.51,1.15 -1.14,1.15l-2.58 0c-0.63,0 -1.14,-0.52 -1.14,-1.15l0 -16.28c0,-0.62 0.51,-1.14 1.14,-1.14z"/>
  <path class="fil2 str2" d="M-36.62 17.11c1.21,0 2.2,0.99 2.2,2.2l0 2.92c0,1.2 -0.99,2.19 -2.2,2.19l0 -7.31z"/>
  <path class="fil2" d="M-59.98 15.17l0 13.39c-4.43,-0.86 -10.86,-1.48 -13.13,-1.78 -0.48,-0.06 -0.83,-0.46 -0.84,-0.95l-0.05 -5.94c0,-0.63 0.42,-1.18 1.04,-1.34 2.44,-0.64 8.65,-1.87 12.98,-3.38z"/>
  <path class="fil0" d="M-37.56 33.53c0.02,2.47 -2.54,4.04 -4.65,2.84 -4.25,-2.41 -10.3,-5.71 -13.23,-6.72 -0.78,-0.27 -1.99,-0.56 -3.41,-0.84l0 -14.1c1.44,-0.52 2.68,-1.01 3.46,-1.44 2.82,-1.54 8.56,-5.71 12.73,-8.84 2.07,-1.54 4.96,-0.03 4.98,2.6l0.06 12.85 0.06 13.65z"/>
  <path class="fil0" d="M39.03 26.44c0.08,-0.67 0.14,-1.33 0.14,-2.02 0,-0.69 -0.06,-1.38 -0.14,-2.08l4.39 -3.4c0.4,-0.31 0.5,-0.88 0.25,-1.33l-4.16 -7.21c-0.25,-0.46 -0.82,-0.65 -1.28,-0.46l-5.18 2.08c-1.08,-0.81 -2.21,-1.52 -3.52,-2.04l-0.77 -5.52c-0.09,-0.5 -0.52,-0.88 -1.05,-0.88l-8.33 0c-0.52,0 -0.96,0.38 -1.04,0.88l-0.77 5.52c-1.31,0.52 -2.44,1.23 -3.52,2.04l-5.19 -2.08c-0.46,-0.19 -1.02,0 -1.27,0.46l-4.17 7.21c-0.27,0.45 -0.14,1.02 0.25,1.33l4.4 3.4c-0.09,0.7 -0.15,1.39 -0.15,2.08 0,0.69 0.06,1.35 0.15,2.02l-4.4 3.46c-0.39,0.31 -0.52,0.87 -0.25,1.33l4.17 7.21c0.25,0.46 0.81,0.63 1.27,0.46l5.19 -2.11c1.08,0.84 2.21,1.55 3.52,2.07l0.77 5.52c0.08,0.5 0.52,0.87 1.04,0.87l8.33 0c0.53,0 0.96,-0.37 1.05,-0.87l0.77 -5.52c1.31,-0.55 2.44,-1.23 3.52,-2.07l5.18 2.11c0.46,0.17 1.03,0 1.28,-0.46l4.16 -7.21c0.25,-0.46 0.15,-1.02 -0.25,-1.33l-4.39 -3.46zm-15.48 5.27c-4.03,0 -7.29,-3.26 -7.29,-7.29 0,-4.03 3.26,-7.29 7.29,-7.29 4.03,0 7.29,3.26 7.29,7.29 0,4.03 -3.26,7.29 -7.29,7.29z"/>
  <path class="fil5 str3" d="M34.87 24.42c0,6.25 -5.07,11.32 -11.33,11.32 -6.25,0 -11.32,-5.07 -11.32,-11.32 0,-6.25 5.07,-11.33 11.32,-11.33 6.26,0 11.33,5.08 11.33,11.33z"/>
  <path class="fil4" d="M712.22 531.05l-54.16 0 0 -120.84 54.16 17.8 0 103.04z"/>
  <path class="fil0" d="M651.69 531.05l-98.41 0c-1.95,0 -3.56,-1.64 -3.56,-3.64l0 -125.53 104.17 0 0 126.92c0,1.23 -0.99,2.25 -2.2,2.25z"/>
  <path class="fil4" d="M593.84 437.3l-23.66 0c-2.08,0 -3.79,-1.71 -3.79,-3.8l0 -15.32c0,-2.09 1.71,-3.8 3.79,-3.8l23.66 0c2.09,0 3.8,1.71 3.8,3.8l0 15.32c0,2.09 -1.71,3.8 -3.8,3.8z"/>
  <path class="fil4" d="M635.51 437.3l-23.66 0c-2.09,0 -3.79,-1.71 -3.79,-3.8l0 -15.32c0,-2.09 1.7,-3.8 3.79,-3.8l23.66 0c2.09,0 3.8,1.71 3.8,3.8l0 15.32c0,2.09 -1.71,3.8 -3.8,3.8z"/>
  <path class="fil0" d="M701.38 443.55l-32.48 0c-1.38,0 -2.51,-1.13 -2.51,-2.51l0 -3.32c0,-1.38 1.13,-2.51 2.51,-2.51l32.48 0c1.38,0 2.51,1.13 2.51,2.51l0 3.32c0,1.38 -1.13,2.51 -2.51,2.51z"/>
  <path class="fil4" d="M593.84 466.46l-23.66 0c-2.08,0 -3.79,-1.71 -3.79,-3.8l0 -15.32c0,-2.08 1.71,-3.79 3.79,-3.79l23.66 0c2.09,0 3.8,1.71 3.8,3.79l0 15.32c0,2.09 -1.71,3.8 -3.8,3.8z"/>
  <path class="fil4" d="M593.84 495.63l-23.66 0c-2.08,0 -3.79,-1.71 -3.79,-3.8l0 -15.32c0,-2.09 1.71,-3.8 3.79,-3.8l23.66 0c2.09,0 3.8,1.71 3.8,3.8l0 15.32c0,2.09 -1.71,3.8 -3.8,3.8z"/>
  <path class="fil4" d="M635.51 466.46l-23.66 0c-2.09,0 -3.79,-1.71 -3.79,-3.8l0 -15.32c0,-2.08 1.7,-3.79 3.79,-3.79l23.66 0c2.09,0 3.8,1.71 3.8,3.79l0 15.32c0,2.09 -1.71,3.8 -3.8,3.8z"/>
  <path class="fil4" d="M635.51 495.63l-23.66 0c-2.09,0 -3.79,-1.71 -3.79,-3.8l0 -15.32c0,-2.09 1.7,-3.8 3.79,-3.8l23.66 0c2.09,0 3.8,1.71 3.8,3.8l0 15.32c0,2.09 -1.71,3.8 -3.8,3.8z"/>
  <path class="fil4" d="M589.31 531.05l25 0 0 -25 -25 0 0 25z"/>
  <path class="fil0" d="M701.38 460.21l-32.48 0c-1.38,0 -2.51,-1.13 -2.51,-2.51l0 -3.31c0,-1.38 1.13,-2.51 2.51,-2.51l32.48 0c1.38,0 2.51,1.13 2.51,2.51l0 3.31c0,1.38 -1.13,2.51 -2.51,2.51z"/>
  <path class="fil0" d="M701.38 476.88l-32.48 0c-1.38,0 -2.51,-1.13 -2.51,-2.51l0 -3.32c0,-1.37 1.13,-2.5 2.51,-2.5l32.48 0c1.38,0 2.51,1.13 2.51,2.5l0 3.32c0,1.38 -1.13,2.51 -2.51,2.51z"/>
  <path class="fil0" d="M701.38 493.55l-32.48 0c-1.38,0 -2.51,-1.13 -2.51,-2.51l0 -3.32c0,-1.38 1.13,-2.51 2.51,-2.51l32.48 0c1.38,0 2.51,1.13 2.51,2.51l0 3.32c0,1.38 -1.13,2.51 -2.51,2.51z"/>
  <path class="fil4" d="M658.06 356.05l0 41.66 -121.07 0 121.07 -41.66z"/>
 </g>
</svg>
