<?xml version="1.0" encoding="UTF-8"?>
<!DOCTYPE svg PUBLIC "-//W3C//DTD SVG 1.0//EN" "http://www.w3.org/TR/2001/REC-SVG-20010904/DTD/svg10.dtd">
<!-- Creator: CorelDRAW 2018 (64 Bit) -->
<svg xmlns="http://www.w3.org/2000/svg" xml:space="preserve" width="48px" height="48px" version="1.0" style="shape-rendering:geometricPrecision; text-rendering:geometricPrecision; image-rendering:optimizeQuality; fill-rule:evenodd; clip-rule:evenodd"
viewBox="0 0 48 48"
 xmlns:xlink="http://www.w3.org/1999/xlink">
 <defs>
  <style type="text/css">
   <![CDATA[
    .fil2 {fill:#3C6DEC}
    .fil1 {fill:#EDF1FD}
    .fil0 {fill:white}
   ]]>
  </style>
 </defs>
 <g id="Camada_x0020_1">
  <metadata id="CorelCorpID_0Corel-Layer"/>
  <g id="_1853899641072">
   <path class="fil0" d="M13.8 5.5l19.98 0c6.78,0 12.3,5.82 12.3,12.96l0 1.62c0,6.13 -4.08,11.29 -9.52,12.62l-6.77 8.8 -2.48 -8.44 -13.51 -0.02c-6.77,-0.02 -12.3,-5.82 -12.3,-12.96l0 -1.62c0,-7.14 5.53,-12.96 12.3,-12.96z"/>
   <path class="fil1" d="M36.27 8.5l1.55 0c0.43,0 6.31,5.84 6.31,10.56 0,4.05 -4.62,11.05 -6.31,11.05l-1.55 0c-1.7,0 2.1,-7.09 1.96,-11.05 -0.14,-4.02 -4.52,-10.56 -1.96,-10.56z"/>
   <circle class="fil2" cx="14.07" cy="18.5" r="2.83"/>
   <circle class="fil2" cx="23.5" cy="18.5" r="2.83"/>
   <circle class="fil2" cx="32.93" cy="18.5" r="2.83"/>
  </g>
 </g>
</svg>
