<?xml version="1.0" encoding="UTF-8"?>
<!DOCTYPE svg PUBLIC "-//W3C//DTD SVG 1.0//EN" "http://www.w3.org/TR/2001/REC-SVG-20010904/DTD/svg10.dtd">
<!-- Creator: CorelDRAW 2018 (64 Bit) -->
<svg xmlns="http://www.w3.org/2000/svg" xml:space="preserve" width="24px" height="24px" version="1.0" style="shape-rendering:geometricPrecision; text-rendering:geometricPrecision; image-rendering:optimizeQuality; fill-rule:evenodd; clip-rule:evenodd"
viewBox="0 0 240 240"
 xmlns:xlink="http://www.w3.org/1999/xlink">
 <defs>
  <style type="text/css">
   <![CDATA[
    .fil1 {fill:#8BAAF3}
    .fil0 {fill:#B9CDF3}
    .fil2 {fill:#E6E9EA}
    .fil3 {fill:#FFCB05}
    .fil4 {fill:white;fill-rule:nonzero}
   ]]>
  </style>
 </defs>
 <g id="Camada_x0020_1">
  <metadata id="CorelCorpID_0Corel-Layer"/>
  <g id="_2482597550000">
   <path class="fil0" d="M197.4 230.5l3.6 -2.1 1.6 -1.3 1.1 -1.8 0.8 -2.3 0.2 -2.8 0 -96 -0.2 -3.2 -0.8 -3.2 -1.1 -3.2 -1.6 -3 -1.9 -2.9 -2.1 -2.7 -2.4 -2.2 -2.6 -1.8 -146.8 -85.4 -2.6 -1.2 -2.4 -0.5 -2.1 0.1 -1.9 0.7 -3.6 2.1 1.9 -0.7 2.1 -0.1 2.4 0.5 2.6 1.2 146.9 85.4 2.5 1.8 2.4 2.2 2.1 2.6 1.9 2.9 1.6 3.1 1.2 3.2 0.7 3.2 0.3 3.1 0 96 -0.3 2.9 -0.7 2.3 -1.2 1.8 -1.6 1.3z"/>
   <path class="fil1" d="M188.5 104.1l-146.9 -85.4c-7,-4.1 -12.7,-0.8 -12.7,7.4l0 95.9c0,8.2 5.7,18.1 12.7,22.2l146.9 85.4c6.9,4.1 12.7,0.8 12.7,-7.4l0 -96c0,-8.1 -5.8,-18 -12.7,-22.1z"/>
   <path class="fil2" d="M180 201.4l-25.7 -15c-1.1,-0.6 -2,-2.1 -2,-3.4l0 -4.5c0,-1.3 0.9,-1.8 2,-1.1l25.7 14.9c1.1,0.7 2,2.2 2,3.4l0 4.6c0,1.2 -0.9,1.7 -2,1.1z"/>
   <path class="fil2" d="M144.2 180.5l-25.8 -14.9c-1.1,-0.7 -1.9,-2.2 -1.9,-3.4l0 -4.6c0,-1.2 0.8,-1.7 1.9,-1.1l25.8 15c1,0.6 1.9,2.1 1.9,3.4l0 4.5c0,1.3 -0.9,1.8 -1.9,1.1z"/>
   <path class="fil2" d="M108.3 159.7l-25.8 -15c-1.1,-0.6 -1.9,-2.2 -1.9,-3.4l0 -4.5c0,-1.3 0.8,-1.8 1.9,-1.2l25.8 15c1.1,0.6 1.9,2.2 1.9,3.4l0 4.5c0,1.3 -0.8,1.8 -1.9,1.2z"/>
   <path class="fil2" d="M72.4 138.8l-25.8 -15c-1,-0.6 -1.9,-2.1 -1.9,-3.4l0 -4.5c0,-1.3 0.9,-1.8 1.9,-1.1l25.8 14.9c1.1,0.7 2,2.2 2,3.4l0 4.6c0,1.2 -0.9,1.7 -2,1.1z"/>
   <path class="fil3" d="M182 141c0,-2.4 -1.7,-5.4 -3.8,-6.6 -7.9,-4.6 -15.7,-9.1 -23.6,-13.7 -2.1,-1.2 -3.8,-0.2 -3.8,2.2 0,6.4 0,14.5 0,20.9 0,2.5 1.7,5.5 3.8,6.7 7.9,4.5 15.7,9.1 23.6,13.7 2.1,1.2 3.8,0.2 3.8,-2.2 0,-6.4 0,-14.5 0,-21z"/>
   <g>
    <g>
     <g>
      <g>
       <path class="fil4" d="M52.4 58.5c-0.1,0.1 -0.2,0.1 -0.3,0.2l0 0c0,0 -0.1,0 -0.1,0.1l0 0 0 0 -0.1 0 0 0 -0.1 0.1 0 0 0 0c0,0 -0.1,0.1 -0.1,0.1l0 0 0 0 -0.1 0.1 0 0 0 0.1 0 0 -0.1 0c0,0 -0.1,0.1 -0.1,0.2l0 0 -0.1 0 0 0 -0.1 0.1 0 0 0 0 0 0.1 0 0 0 0 0 0 -0.1 0.1 0 0 0 0 -0.1 0c0,0.1 0,0.1 -0.1,0.2l0 0 0 0c0,0 0,0.1 0,0.1l-0.7 0.4 0 0 0 0 0.1 -0.1 0 0 0 -0.1 0.1 -0.1 0 0 0 0 0 -0.1 0 0 0 0 0.1 0 0 0 0.1 -0.1 0 0 0 0 0 -0.1 0 0 0.1 0 0 -0.1 0 0 0 0 0.1 0c0,-0.1 0,-0.1 0.1,-0.2l0 0 0 0 0 0 0 0 0 0 0.1 -0.1 0 0 0 0 0.1 0 0 0 0 0 0 -0.1 0.1 0 0 0 0 -0.1 0 0 0.1 0 0 0c0,-0.1 0.1,-0.1 0.1,-0.1l0 0zm0.1 -0.1l0 0 0 0 0.1 0 0 0 0.1 -0.1 0 0 0.1 0 0.6 -0.4z"/>
       <path class="fil4" d="M50.2 60.4l0.7 -0.4 -0.1 0.1 0 0 0 0 0 0 0 0 0 0.1 -0.1 0 0 0 0 0.1 0 0 0 0 0 0 -0.1 0.1 0 0.1 0 0 0 0 -0.1 0.1 0 0 0 0 0 0 -0.7 0.4 0 0 0 0 0.1 0 0 0 0 0 0 0 0 -0.1 0 0 0 0 0.1 -0.1 0 -0.1 0 0 0 -0.1 0.1 0 0 0 0 0 0 -0.1 0 0 0 0 0.1 0 0 0 0 -0.1z"/>
       <path class="fil4" d="M49.8 61l0.7 -0.4 0 0.1 0 0 0 0 0 0 -0.1 0.1 0 0 0 0 0 0 0 0.1 0 0 0 0 0 0 0 0 0 0 0 0 0 0.1 0 0 0 0 0 0 -0.1 0.1 0 0 0 0 0 0 0 0 0 0 0 0.1 -0.7 0.4 0 -0.1 0 0 0 0 0 0 0.1 -0.1 0 0 0 0 0 0 0 0 0 0 0 -0.1 0 0 0 0 0 0 0.1 -0.1 0 0 0 0 0 0 0 0 0 0 0 0 0 0 0 0 0 -0.1 0 0 0 0 0 0 0 0 0 0 0 0 0 0 0 -0.1z"/>
       <path class="fil4" d="M49.6 61.6l0 0 0.7 -0.4 0 0 0 0 0 0 0 0 0 0 -0.1 0.1 0 0 0 0 0 0 0 0 0 0 0 0 0 0 0 0.1 0 0 0 0 0 0 0 0 0 0 0 0.1 0 0 0 0 0 0 0 0 0 0 -0.1 0.1 0 0 0 0 0 0 0 0 0 0 0 0 0 0.1 -0.7 0.4 0.1 -0.1 0 0 0 0 0 0 0 0 0 -0.1 0 0 0 -0.1 0 0 0 0 0 0 0.1 -0.1 0 0 0 0 0 -0.1 0 0 0 0 0 0 0 0 0 0z"/>
       <path class="fil4" d="M49.4 62.1l0.7 -0.4 0 0 0 0 0 0 0 0 0 0 0 0.1 0 0.1 0 0 0 0 0 0 -0.1 0.1 0 0 0 0 0 0 0 0 0 0.1 0 0 0 0 0 0 0 0 0 0 0 0 0 0 0 0 0 0 0 0 0 0 0 0.1 0 0 0 0 0 0 0 0 0 0 0 0 -0.7 0.4 0 0 0 0 0 0 0 -0.1 0 0 0 0 0 0 0 0 0 0 0 0 0.1 -0.1 0 0 0 0 0 0 0 0 0 0 0 0 0 -0.1 0 0 0 0 0 0 0 0 0 -0.1 0 0 0 0 0 0 0 -0.1 0 0 0 0 0 0 0 0 0 0 0 0z"/>
       <path class="fil4" d="M49.3 62.6l0.7 -0.4 0 0 0 0 0 0 0 0 0 0 0 0.1 0 0 0 0 0 0 0 0 0 0 0 0 0 0 0 0 -0.1 0.1 0 0 0 0 0 0 0 0 0 0 0 0 0 0.1 0 0 0 0 0 0.1 0 0 0 0 0 0.1 0 0 0 0 -0.7 0.4 0 0 0 0 0 0 0 0 0 -0.1 0 0 0 0 0 0 0 0 0 0 0 0 0 -0.1 0 0 0 0 0.1 0 0 0 0 -0.1 0 0 0 0 0 0 0 0 0 0 0 0 0 0 0 -0.1 0 0 0 0 0 0 0 -0.1 0 0z"/>
       <path class="fil4" d="M49.2 63.1l0.7 -0.4 0 0 0 0.1 0 0 0 0 0 0 0 0 0 0 0 0 0 0 -0.1 0.1 0 0 0 0 0 0 0 0 0 0.1 0 0 0 0 0 0.1 0 0 0 0 0 0 0 0 0 0.1 -0.7 0.4 0 0 0.1 -0.1 0 0 0 0 0 -0.1 0 0 0 -0.1 0 0 0 0 0 0 0 0 0 -0.1 0 0 0 0 0 0 0 0 0 0 0 -0.1 0 0 0 0 0 0 0 0 0 0z"/>
       <path class="fil4" d="M49.1 63.6l0.7 -0.4 0 0 0 0 0 0 0 0 0 0.1 0 0 0 0 0 0 0 0 0 0 0 0.1 0 0 0 0 0 0 0 0.1 0 0 0 0 0 0.1 0 0 0 0 0 0 0 0 0 0 0 0 0 0 0 0 0 0.1 -0.7 0.4c0,-0.1 0,-0.2 0,-0.2l0 0 0 -0.1 0 0 0 0 0 0 0 0 0 -0.1 0 0 0 0 0 0 0 0 0 0 0 0 0 -0.1 0 0 0 0 0 0 0 0 0 0 0 0 0 0 0 0z"/>
       <path class="fil4" d="M49.1 64.1l0.7 -0.4 0 0 0 0 0 0 0 0 0 0 0 0 0 0.1 -0.1 0 0 0.1 0 0 0 0 0 0 0 0c0,0.1 0,0.1 0,0.2l0 0 0 0 0 0 0 0.1 -0.6 0.4 0 -0.1 0 0 0 0 0 0c0,-0.1 0,-0.1 0,-0.2l0 0 0 0 0 0 0 -0.1 0 0 0 0 0 -0.1 0 0 0 0 0 0 0 0 0 0 0 0 0 0z"/>
       <path class="fil4" d="M49.1 64.6l0.6 -0.4 0 0.1 0 0 0 0 0 0 0 0 0 0 0 0 0 0 0 0.1 0 0 0 0 0 0 0 0 0 0 0 0 0 0.1 0 0 0 0.1 0 0 0 0 0 0 0 0 0 0.1 -0.7 0.4 0 -0.1 0 0 0 0 0 0 0 0 0 0 0 -0.1 0 0 0 0 0 -0.1 0 0 0.1 -0.1 0 0 0 0 0 0 0 0 0 -0.1z"/>
       <path class="fil4" d="M49 65.1l0 0 0.7 -0.4 0 0 0 0 0 0 0 0 0 0 0 0 0 0 0 0 0 0 0 0 0 0 0 0c0,0.1 0,0.2 0,0.3l0 0 0 0 0 0 0 0.2 -0.6 0.4c-0.1,-0.1 -0.1,-0.1 -0.1,-0.2l0 0 0 0 0 0 0 0 0 0 0 0 0 0c0,-0.1 0,-0.2 0,-0.3l0 0 0 0 0 0 0 0 0 0 0 0 0 0 0 0 0 0 0 0 0 0 0 0 0 0 0 0 0 0z"/>
       <path class="fil4" d="M49.1 65.6l0.6 -0.4 0 0.1 0 0c0,0.1 0,0.2 0,0.3l0 0 0.1 0.1 -0.7 0.4 0 -0.1 0 0 0 0 0 0 0 0 0 0c0,-0.1 0,-0.2 0,-0.3l0 0 0 0 0 0 0 0 0 0 0 -0.1z"/>
       <path class="fil4" d="M49.1 66.1l0.7 -0.4c0,0.1 0,0.1 0,0.2l0 0 0 0c0,0.1 0,0.2 0,0.3l-0.7 0.4 0 0c0,-0.1 0,-0.2 0,-0.3l0 0 0 0 0 0 0 0c0,-0.1 0,-0.1 0,-0.2z"/>
       <path class="fil4" d="M49.1 66.6l0 0 0.7 -0.4 0 0 0 0 0 0 0 0c0,0.1 0,0.2 0,0.3l0 0 0 0 0 0c0,0.1 0,0.1 0,0.2l-0.6 0.4 -0.1 -0.2 0 0 0 0 0 0c0,-0.1 0,-0.2 0,-0.3l0 0 0 0 0 0 0 0z"/>
       <path class="fil4" d="M49.2 67.1l0.6 -0.4 0.1 0.1 0 0 0 0c0,0.1 0,0.2 0,0.3l0 0 0 0 0 0.1 -0.7 0.4 0 -0.1 0 0 0 0c0,-0.1 0,-0.2 0,-0.3l0 0 0 0 0 -0.1z"/>
       <path class="fil4" d="M49.2 67.6l0.7 -0.4c0,0.1 0,0.1 0.1,0.2l0 0 0 0 0 0c0,0.1 0,0.2 0,0.3l-0.7 0.4c0,-0.1 0,-0.2 0,-0.3l0 0 0 0 0 0c0,-0.1 0,-0.1 -0.1,-0.2z"/>
       <path class="fil4" d="M49.3 68.1l0.7 -0.4 0 0 0 0 0 0 0 0 0 0c0,0.1 0,0.2 0.1,0.3l0 0 0 0.2 -0.7 0.4 0 -0.2 0 0 0 0 0 0c0,-0.1 0,-0.2 -0.1,-0.3l0 0 0 0 0 0 0 0 0 0z"/>
       <path class="fil4" d="M49.4 68.6l0.7 -0.4 0 0.1 0 0 0 0c0.1,0.1 0.1,0.2 0.1,0.3l0 0 0 0 0 0.1 -0.7 0.4 0 -0.1 0 0 0 0 0 0 0 0 0 0 0 0 0 0c0,-0.1 0,-0.2 0,-0.3l0 0 0 0 0 0 -0.1 -0.1z"/>
       <path class="fil4" d="M49.5 69.1l0.7 -0.4c0,0.1 0.1,0.2 0.1,0.2l0 0 0 0 0 0.1c0,0 0,0.1 0.1,0.2l-0.7 0.4 0 0 0 0c0,-0.1 -0.1,-0.2 -0.1,-0.2l0 -0.1 0 0 0 0 0 0 0 0 0 0 0 0c0,-0.1 0,-0.1 -0.1,-0.2z"/>
       <path class="fil4" d="M49.7 69.6l0.7 -0.4 0 0 0 0 0 0 0 0.1 0 0c0,0 0,0.1 0,0.2l0 0 0 0 0 0 0 0 0.1 0.1 0 0.1 -0.7 0.4c0,0 0,-0.1 0,-0.2l0 0 0 0 0 0 0 0 0 0c-0.1,-0.1 -0.1,-0.1 -0.1,-0.2l0 0 0 0 0 -0.1 0 0 0 0 0 0 0 0z"/>
       <path class="fil4" d="M49.8 70.1l0.7 -0.4 0 0.1 0 0 0 0 0 0 0 0.1c0.1,0 0.1,0.1 0.1,0.2l0 0 0 0 0 0 0 0.1 0.1 0 -0.7 0.4 0 -0.1 0 0 0 0 0 0 0 0c-0.1,-0.1 -0.1,-0.2 -0.1,-0.2l0 -0.1 0 0 0 0 0 0 0 0 0 0 -0.1 -0.1z"/>
       <path class="fil4" d="M50 70.6l0.7 -0.4c0,0.1 0,0.2 0,0.2l0 0 0 0 0 0 0 0 0 0.1 0 0 0 0c0.1,0 0.1,0.1 0.1,0.2l-0.7 0.4c0,-0.1 0,-0.2 0,-0.2l0 0 0 -0.1 0 0 0 0 0 0 0 0 0 0 -0.1 -0.2z"/>
       <path class="fil4" d="M50.1 71.1l0.7 -0.4 0 0 0 0 0 0 0 0 0 0c0.1,0.1 0.1,0.2 0.2,0.3l0 0 0 0 0 0 0 0 0 0.1 0 0 0 0 -0.7 0.4 0 0 0 -0.1 0 0 0 0 0 0 0 0 0 0c-0.1,-0.1 -0.1,-0.2 -0.1,-0.3l0 0 0 0 0 0 0 0 -0.1 0z"/>
       <path class="fil4" d="M50.3 71.5l0.7 -0.4c0,0.1 0,0.2 0.1,0.2l0 0 0 0 0 0c0,0.1 0,0.2 0.1,0.3l-0.7 0.4c0,-0.1 -0.1,-0.2 -0.1,-0.3l0 0 0 0 0 0 0 0 0 0 -0.1 -0.2z"/>
       <path class="fil4" d="M50.5 72l0.7 -0.4 0 0 0 0 0 0 0 0 0 0 0 0 0 0 0 0.1 0 0c0,0 0.1,0.1 0.1,0.2l0 0 0 0 0 0 0 0 0 0 0.1 0.1 -0.7 0.4 -0.1 -0.1 0 0 0 0 0 0 0 0 0 0c0,-0.1 0,-0.2 -0.1,-0.2l0 -0.1 0 0 0 0 0 0 0 0 0 0 0 0 0 0 0 0 0 0z"/>
       <path class="fil4" d="M50.7 72.4l0.7 -0.4 0 0.2 0.1 0 0 0 0 0 0 0 0 0c0,0.1 0,0.2 0.1,0.2l-0.7 0.4c-0.1,0 -0.1,-0.1 -0.1,-0.2l0 0 0 0 0 0 0 0 0 0 0 0 0 0 0 0c-0.1,-0.1 -0.1,-0.1 -0.1,-0.2z"/>
       <path class="fil4" d="M50.9 72.8l0.7 -0.4 0 0.1 0 0 0 0 0 0c0,0.1 0.1,0.2 0.1,0.3l0 0 0 0 0 0 0 0 0 0 0.1 0.1 -0.7 0.4 0 -0.1 0 0 0 0 -0.1 0 0 0 0 0c0,-0.1 0,-0.2 -0.1,-0.3l0 0 0 0 0 0 0 0 0 -0.1z"/>
       <path class="fil4" d="M51.1 73.3l0.7 -0.4 0.1 0.2 0 0 0 0 0 0 0 0 0 0 0 0c0,0.1 0.1,0.2 0.1,0.3l0 0 0 0 0 0 0 0 0 0 0.1 0 -0.7 0.4 0 0 -0.1 0 0 0 0 0 0 0 0 0c0,-0.1 -0.1,-0.2 -0.1,-0.3l0 0 0 0 0 0 0 0 0 0 0 0 0 0 0 0 -0.1 -0.2z"/>
       <path class="fil4" d="M51.4 73.8l0.7 -0.4c0,0.1 0,0.2 0.1,0.3l0 0 0 0c0,0.1 0.1,0.1 0.1,0.2 0.1,0.1 0.1,0.2 0.2,0.3l-0.7 0.4c-0.1,-0.1 -0.1,-0.2 -0.1,-0.3zm-0.2 -0.2l0 0 0 0 0 -0.1 0 0 -0.1 -0.2z"/>
       <path class="fil4" d="M51.8 74.6l0.7 -0.4 0 0 0 0 0 0 0 0c0,0.1 0.1,0.2 0.1,0.3l0.1 0 0 0 0 0c0,0.1 0.1,0.2 0.1,0.3l0 0 0 0 0 0c0.1,0.1 0.1,0.1 0.2,0.2l0 0 0 0 0 0.1c0.1,0.1 0.1,0.2 0.2,0.2l-0.7 0.4 0 0 0 0 0 0 0 0c-0.1,-0.1 -0.1,-0.2 -0.2,-0.2l0 -0.1 0 0 0 0c0,-0.1 -0.1,-0.1 -0.1,-0.2l-0.1 0 0 0 0 -0.1c0,0 -0.1,-0.1 -0.1,-0.2l0 0 0 0 0 0c-0.1,-0.1 -0.1,-0.2 -0.2,-0.3l0 0 0 0 0 0 0 0z"/>
       <path class="fil4" d="M52.5 75.7l0.7 -0.4c0,0.1 0.1,0.2 0.2,0.3l0 0 0 0c0,0.1 0.1,0.1 0.1,0.2l0 0 0 0 0 0 0 0c0.1,0.1 0.2,0.2 0.2,0.3l0 0 0 0 0 0 0.1 0.1 -0.7 0.4 0 -0.1 0 0 0 0 -0.1 0 0 0c0,-0.1 -0.1,-0.2 -0.1,-0.2l0 -0.1 0 0 0 0 -0.1 0c0,-0.1 -0.1,-0.1 -0.1,-0.2l0 0 0 0 0 0 0 0 0 -0.1 -0.2 -0.2z"/>
       <path class="fil4" d="M53.1 76.6l0.7 -0.4 0.1 0.2 0 0 0 0 0 0 0 0 0 0c0.1,0.1 0.2,0.1 0.2,0.2l0 0 0.1 0.1 -0.7 0.4 -0.1 -0.1 0 0c0,-0.1 -0.1,-0.1 -0.1,-0.2l0 0 0 0 -0.1 0 0 -0.1 0 0 -0.1 -0.1z"/>
       <path class="fil4" d="M53.5 77.1l0.7 -0.4 0.1 0.2 0 0 0 0 0 0 0 0 0 0c0.1,0.1 0.2,0.1 0.2,0.2l0 0 0 0 0 0 0 0 0 0 -0.6 0.4 0 0 0 0 0 0 -0.1 0 0 0 0 0 0 0c0,-0.1 -0.1,-0.1 -0.1,-0.2l0 0 -0.1 0 0 0 0 0 0 0 0 -0.1 -0.1 -0.1z"/>
       <path class="fil4" d="M53.9 77.5l0.6 -0.4c0.1,0.1 0.2,0.2 0.2,0.3l0 0 0 0 0 0c0.1,0 0.2,0.1 0.2,0.2l-0.7 0.4c0,-0.1 -0.1,-0.2 -0.1,-0.2l0 0 0 0 0 0 -0.1 0 0 -0.1c0,0 -0.1,-0.1 -0.1,-0.2l0 0z"/>
       <path class="fil4" d="M54.2 78l0.7 -0.4 0 0 0 0c0.1,0.1 0.2,0.2 0.2,0.2l0.1 0 0 0.1 0 0 0 0 0.1 0.1 -0.7 0.4c0,-0.1 -0.1,-0.1 -0.1,-0.1l0 -0.1 0 0 0 0 0 0 0 0c-0.1,0 -0.2,-0.1 -0.2,-0.2l0 0 0 0 0 0 0 0 -0.1 0z"/>
       <path class="fil4" d="M54.6 78.4l0.7 -0.4 0.1 0.1 0 0 0 0 0 0 0 0c0,0.1 0.1,0.1 0.2,0.2l0 0 0 0 0 0 0 0 0 0 0 0 0.1 0.1 -0.7 0.4 -0.1 -0.1 0 0 0 0 0 0 0 0 0 0 0 0 0 0c-0.1,-0.1 -0.1,-0.1 -0.2,-0.2l0 0 0 0 0 0 0 0 0 0 -0.1 -0.1z"/>
       <path class="fil4" d="M55 78.8l0.7 -0.4 0.1 0.1 0 0 0 0c0.1,0.1 0.2,0.2 0.2,0.3l0 0 0 0 0 0 0.1 0 -0.7 0.4 0 0 0 0 0 0 0 0 0 -0.1c-0.1,0 -0.2,-0.1 -0.2,-0.1l0 -0.1 -0.1 0 0 0 0 0 0 0 -0.1 -0.1z"/>
       <path class="fil4" d="M55.4 79.2l0.7 -0.4c0.1,0.1 0.1,0.1 0.2,0.2l0 0 0 0 0 0c0.1,0.1 0.1,0.1 0.2,0.2l0 0 0 0 0 0 0.1 0.1 -0.7 0.3 -0.1 0 0 0 0 0 0 0 0 0 0 0c-0.1,-0.1 -0.1,-0.2 -0.2,-0.2l0 0 0 0 0 0c-0.1,-0.1 -0.1,-0.1 -0.2,-0.2z"/>
       <path class="fil4" d="M55.9 79.6l0.7 -0.3c0,0 0.1,0.1 0.1,0.1 0.1,0.1 0.2,0.1 0.3,0.2l0 0 0 0 0 0 0 0 0 0.1 -0.7 0.3 0 0 0 0 0 0 0 0 0 0c-0.1,-0.1 -0.2,-0.1 -0.2,-0.2z"/>
       <path class="fil4" d="M56.3 80l0.7 -0.3c0.1,0 0.2,0.1 0.2,0.1l0 0 0 0c0.1,0.1 0.2,0.1 0.3,0.2l0 0 0 0 0 0 -0.7 0.4 0 0 0 0 0 0 0 0c-0.1,-0.1 -0.2,-0.1 -0.3,-0.2l0 0 0 0c0,-0.1 -0.1,-0.1 -0.2,-0.2z"/>
       <path class="fil4" d="M56.8 80.4l0.7 -0.4c0.1,0.1 0.1,0.1 0.2,0.2l0 0 0 0 0 0c0.1,0.1 0.2,0.1 0.3,0.2l0 0 0 0 -0.7 0.4 0 0 0 0c-0.1,-0.1 -0.2,-0.1 -0.3,-0.2l0 0 0 0 0 0 0 0c0,-0.1 -0.1,-0.1 -0.2,-0.2z"/>
       <path class="fil4" d="M57.3 80.8l0.7 -0.4c0,0.1 0.1,0.1 0.2,0.2l0 0 0 0 0 0c0.1,0 0.2,0.1 0.2,0.1l-0.6 0.4c-0.1,0 -0.2,-0.1 -0.3,-0.1l0 0 0 0 0 0 0 0c-0.1,-0.1 -0.1,-0.2 -0.2,-0.2z"/>
       <path class="fil4" d="M57.8 81.1l0.6 -0.4 0.1 0 0 0.1 0 0 0 0c0.1,0 0.1,0.1 0.2,0.1l0 0c0.1,0.1 0.1,0.1 0.2,0.1l-0.7 0.4zm-0.2 -0.1l0 0 0 0c0,0 -0.1,-0.1 -0.2,-0.1l0 -0.1 0 0 0 0 0 0 0 0 0 0z"/>
       <path class="fil4" d="M58.2 81.4l0.7 -0.4 0.1 0.1 0 0c0.1,0 0.1,0.1 0.2,0.1l0 0 0.2 0.1 -0.7 0.4 -0.1 0 0 -0.1 0 0 0 0 0 0 -0.1 0c0,0 -0.1,-0.1 -0.2,-0.1l0 0 -0.1 -0.1z"/>
       <path class="fil4" d="M58.7 81.7l0.7 -0.4 0.1 0.1 0 0 0 0 0 0 0 0 0 0 0 0 0 0 0 0 0 0 0 0 0 0 0 0 0.1 0.1 0 0 0 0 0 0 0 0 0 0 0 0 0 0 0 0 0.1 0 0 0 0 0 0 0 0 0 0 0 0.1 0 0 0 0 0 0.1 0.1 -0.7 0.4 0 0 0 0 -0.1 0 0 -0.1 0 0 0 0 0 0 0 0 0 0 0 0 0 0 0 0 -0.1 0 0 0 0 0 0 0 0 0 0 0 0 0 -0.1 0 0 0 0 0 0 0 0 -0.1 0 0 0 0 -0.1 0 0 0 0 0 0 0 0 0 0 0 0 0 0 0 0 0 0 0 -0.1 -0.1z"/>
       <path class="fil4" d="M59.2 82l0.7 -0.4c0,0.1 0.1,0.1 0.2,0.1l0 0 0 0 0 0 0 0 0.1 0.1 0 0 0 0 0 0 0.1 0 -0.7 0.4 0 0 0 0 0 0 0 0 -0.1 0 0 0 0 -0.1 0 0 0 0 -0.1 0 0 0 0 0 0 0 0 0 -0.1 0 0 0 -0.1 -0.1 0 0 0 0 0 0 0 0z"/>
       <path class="fil4" d="M59.6 82.2l0.7 -0.4 0 0.1 0.1 0 0 0 0 0 0 0 0 0 0 0 0.1 0 0 0 0 0 0 0 0 0 0 0 0 0 0 0 0 0 0.1 0.1 0 0 0 0 0 0 0 0 0 0 0.1 0 0 0 0 0 0 0 0 0 0 0 -0.6 0.4 -0.1 0 0 0 0 0 0 0 0 0 0 0 0 0 0 0 -0.1 0 0 0 0 0 0 0 0 0 0 0 0 0 0 0 0 0 -0.1 -0.1 0 0 0 0 0 0 0 0 0 0 0 0 0 0 0 0 -0.1 0 0 0 0 0 0 0 0 0 0 0 0 0 -0.1 -0.1z"/>
       <path class="fil4" d="M60.1 82.4l0.6 -0.4 0 0 0 0 0.1 0.1 0 0 0 0 0 0 0.1 0 0 0 0 0 0.1 0 0 0 0 0 0 0 0 0 0 0 0 0 0 0.1 0 0 0 0 0 0 0.1 0 0 0 0 0 0 0 0 0 0 0 0 0 0 0 0 0 0 0 0 0 -0.6 0.4 -0.1 0 0 0 0 0 0 0 0 0 0 0 0 0 0 0 0 0 0 0 0 0 0 0 -0.1 -0.1 0 0 0 0 0 0 0 0 0 0 0 0 0 0 0 0 0 0 0 0 -0.1 0 0 0 0 0 0 0 0 0 -0.1 -0.1 0 0 0 0z"/>
       <path class="fil4" d="M60.5 82.6l0.6 -0.4 0.1 0 0 0 0 0 0 0 0 0 0.1 0.1 0 0 0 0 0 0 0 0 0 0 0.1 0 0 0 0 0 0 0 0 0 0.1 0 0 0 0 0.1 0 0 0 0 -0.6 0.3 0 0 -0.1 0 0 0 0 0 0 0 0 0 0 0 0 0 -0.1 0 0 0 0 0 -0.1 0 0 0 0 0 0 0 0 0 0 0 -0.1 -0.1 0 0 0 0 0 0 0 0 0 0 0 0 0 0 0 0 0 0 0 0 0 0 0 0 0 0 0 0z"/>
       <path class="fil4" d="M60.9 82.7l0.6 -0.3 0 0 0 0 0 0 0 0 0.1 0 0 0 0 0 0 0 0 0 0 0 0 0 0.1 0 0 0 0 0 0 0 0 0 0 0 0.1 0 0 0 0 0 0 0 0 0 0 0 0 0 0 0 0 0 0 0.1 0 0 0.1 0 0 0 0 0 0 0 0 0 0 0 0 0 0 0 0 0 0 0 -0.7 0.4 0 0 0 0 0 0 0 0 0 0 0 0 0 0 0 0 0 0 0 0 -0.1 -0.1 0 0 0 0 0 0 0 0 0 0 0 0 0 0 0 0 0 0 0 0 -0.1 0 0 0 0 0 0 0 0 0 0 0 0 0 -0.1 0 0 0 0 0 0 0 0 0 0 0 0 0 0 0 0 0 0 0 0 -0.1z"/>
       <path class="fil4" d="M61.2 82.9l0.7 -0.4 0 0 0.1 0 0 0 0 0 0 0 0 0 0 0 0 0 0 0 0.1 0 0 0 0 0 0 0 0 0 0.1 0.1 0 0 0 0 0 0 0 0 0 0 0.1 0 -0.7 0.4 0 0 0 0 0 0 0 0 0 0 0 0 0 0 0 0 0 0 0 0 0 0 0 0 -0.1 0 0 0 0 -0.1 0 0 0 0 0 0 0 0 -0.1 0 0 0 0 0 0 0 0 0 0 0 0 0 0 0 -0.1 0 0 0 0 0 0 0 0 0 0 0 0 0 0 0 0 0 0 0 0 0 0 0 0 0 0 0 0 0 0 0 0 0 -0.1 0 0 0z"/>
       <path class="fil4" d="M61.6 83l0.7 -0.4 0 0 0 0 0 0 0 0 0.1 0 0 0 0.1 0 0 0 0 0 0 0 0 0 0 0 0.1 0.1 0 0 0 0 0 0 0 0 0.1 0 0 0 -0.7 0.4 0 0 0 0 0 0 0 0 0 0 -0.1 -0.1 0 0 0 0 0 0 0 0 0 0 0 0 -0.1 0 0 0 0 0 0 0 0 0 0 0 0 0 0 0 0 0 -0.1 0 0 0 0 0 0 0 0 0 0 0 0 0 0 0 0 0 -0.1 0 0 0 0 0z"/>
       <path class="fil4" d="M62 83.1l0.7 -0.4 0 0 0 0 0 0 0 0 0.1 0 0 0 0 0 0 0 0 0 0.1 0 0 0 0 0 0 0 0 0 0 0 0.1 0 0 0 0 0 0 0 0 0 0 0 0 0 0 0 0.1 0 -0.7 0.4 -0.1 0 0 0 0 0 0 0 0 0 0 0 0 0 0 0 -0.1 0 0 0 0 0 0 0 0 0 0 0 0 0 0 0 -0.1 0 0 0 0 0 0 0 0 0 0 0 0 0 0 0 0 0 -0.1 0 0 0 0 0 0 0 0 0 0 0 0 0 0 0 0 0z"/>
       <path class="fil4" d="M62.4 83.1l0.7 -0.4 0 0 0 0 0 0 0 0 0 0 0 0 0 0 0 0 0.1 0.1 0 0 0 0 0 0 0.1 0 0 0 0 0c0.1,0 0.1,0 0.2,0l-0.7 0.4 0 0 0 0 0 0 0 0 -0.1 0 0 0 0 0 0 0 0 0 -0.1 0 0 0 -0.1 -0.1 0 0 0 0 0 0 -0.1 0 0 0 0 0 0 0 0 0 0 0 0 0 0 0z"/>
       <path class="fil4" d="M62.8 83.2l0.7 -0.4 0 0 0 0 0 0 0.1 0 0 0 0 0 0.1 0 0 0 0 0 0 0 0.1 0 0 0 0 0 0 0 0 0 0 0 0.1 0 0 0 0 0 0 0 0 0 0 0 -0.7 0.4 0 0 0 0 0 0 0 0 0 0 0 0 -0.1 0 0 0 0 0 0 0 0 0 0 0 0 0 0 0 -0.1 0 0 0 0 0 0 0 -0.1 0 0 0 0 0 0 0 0 0 0 0 0 0 -0.1 0z"/>
       <path class="fil4" d="M63.2 83.2l0.7 -0.4 0.1 0 0 0 0 0 0 0 0 0 0 0 0 0 0.1 0 0 0 0 0 0 0 0 0c0,0 0,0 0.1,0l0 0 0 0 0 0 0.1 0 0 0 0 0 0 0 0 0 -0.6 0.4 -0.1 0 0 0 0 0 0 0 -0.1 0 0 0 0 0 0 0 -0.1 0 0 0 0 0 0 0 0 0 0 0 0 0 -0.1 0 0 0 0 0 0 0 0 0 -0.1 0z"/>
       <path class="fil4" d="M63.7 83.2l0.6 -0.4 0 0 0.1 0 0 0 0 0 0 0 0 0 0 0 0 0 0.1 0 0 0 0 0 0 0 0.1 -0.1 0 0 0 0 0 0 0 0 0 0 0.1 0 0 0 0 0 0 0 0 0 0.1 0 0 0 0.1 0 -0.7 0.4 0 0 -0.1 0 0 0 0 0 0 0 0 0 0 0 0 0 0 0 -0.1 0 0 0 0 0 0 0 0 0 0 0 0 0 0 0 -0.1 0 0 0 0 0 0 0 0 0 0 0 0 0 0 0 0 0 -0.1 0 0 0 0 0 0 0 0 0.1 0 0 -0.1 0 0 0 0 0 0 0 0 0 0 0 0 0 0 0 0 0z"/>
       <path class="fil4" d="M64.2 83.1l0 0 0.7 -0.4 0.1 0 0 0 0 0 0 0 0.1 0 0 0 0.1 -0.1 0 0 0 0 0 0 0.1 0 0 0 0 0 0.1 0 0 0 0 0 0.1 -0.1 0 0 0 0 0 0 -0.7 0.4 0 0 0 0 0 0 0 0 0 0 -0.1 0 0 0.1 0 0 0 0 0 0 0 0 0 0 0 0 0 0 -0.1 0 0 0 0 0 0 0 0 0 -0.1 0 0 0 0 0 0 0 0 0 0 0 0 0 0 0 -0.1 0 0 0 0 0 0 0 0 0 -0.1 0.1 0 0 0 0 0 0 0 0 -0.1 0 0 0 0 0 0 0 0 0z"/>
       <path class="fil4" d="M64.8 82.9l0.7 -0.4 0 0 0 0 0.1 0 0 0 0 0 0.1 -0.1 0 0 0 0 0.1 0 0 0 0 0 0 0 0.1 0 0 0 0.1 -0.1 0 0 0 0 0.1 0 0 0 0 0 0 0 0.1 -0.1 0 0 0.1 0 0 0 0 0 0 -0.1 -0.6 0.4 -0.1 0.1 0 0 0 0 0 0 -0.1 0 0 0 0 0 -0.1 0.1 0 0 0 0c0,0 -0.1,0 -0.2,0l0 0.1 0 0 0 0 0 0 -0.1 0 0 0 0 0 0 0 0 0 -0.1 0 0 0.1 0 0 0 0 0 0 -0.1 0 0 0 0 0 -0.1 0z"/>
      </g>
      <g>
       <path class="fil4" d="M68.2 86.3l0.7 -0.4c-0.2,0.1 -0.3,0.2 -0.5,0.3l-0.6 0.4 0 0 0 0 0 0 0 0 0 0 0 0 0 0 0 0 0 0 0 0c0.1,-0.1 0.3,-0.2 0.4,-0.3z"/>
      </g>
      <g>
       <path class="fil4" d="M65.9 82.4l0.6 -0.4 2.4 3.9 -0.7 0.4 -2.3 -3.9z"/>
      </g>
      <g>
       <path class="fil4" d="M49.1 54.8l0.6 -0.4c0.1,0 0.1,0 0.1,0l0.1 0 0 -0.1 0.1 0 0 0 0 0 0.1 -0.1 0 0 0 0 0.1 0 0 0 0 0 0 0 0.1 -0.1 0 0zm0.3 -0.1l0 0 0.1 0 0 0 0 0 0 0 0 0 -0.6 0.3 -0.1 0.1 0 0 0 0c0,0 -0.1,0 -0.1,0l0 0c-0.1,0 -0.1,0 -0.1,0.1l0 0 0 0 0 0c-0.1,0 -0.1,0 -0.2,0l0 0 0 0c0,0 0,0.1 -0.1,0.1l0 0 0 0 0 0c0,0 -0.1,0 -0.1,0l0 0 0 0 -0.1 0.1 0 0 0 0c0,0 -0.1,0 -0.1,0l0 0 0 0c-0.1,0.1 -0.1,0.1 -0.1,0.1z"/>
       <path class="fil4" d="M50.1 54.3l0.6 -0.3 0.1 -0.1 0 0 0 0 0.1 0 0 0 0 0 0 0c0.1,0 0.1,0 0.2,0l0 0 0 0 0 -0.1 0.1 0 0 0 0 0c0.1,0 0.2,0 0.2,0l0 0 0 0 0.2 -0.1 0 0 0 0 0 0 0 0 -0.7 0.4 0 0 0 0 -0.1 0 0 0 -0.2 0.1 0 0 0 0 0 0 -0.1 0 0 0 0 0 -0.1 0 0 0 0 0 0 0c-0.1,0.1 -0.1,0.1 -0.1,0.1l0 0 -0.1 0 0 0 0 0 -0.1 0 0 0 0 0 0 0z"/>
       <path class="fil4" d="M50.9 54.1l0.7 -0.4 0.1 0 0 0c0.1,0 0.1,0 0.1,0l0 0 0 0c0.1,0 0.1,0 0.2,0l0 0 0 0 0 0 0.1 -0.1 0 0 0 0 0 0zm0.2 0l0 0 0 0 -0.6 0.4 -0.1 0 0 0 0 0 0 0 0 0 -0.2 0 0 0 0 0 0 0 -0.1 0 0 0 0 0 0 0 0 0.1 0 0 -0.1 0 0 0 0 0 0 0 0 0 -0.2 0 0 0 0 0c0,0 0,0 -0.1,0z"/>
       <path class="fil4" d="M51.7 54l0.6 -0.4 0.1 0 0 0 0 0 0.1 0 0 0 0 0c0.1,0 0.1,0 0.2,0l0 0 0 0 0 0 0 0 0.1 0 0 0 0 0 0 0 0 0c0.1,0 0.1,0 0.2,0l-0.7 0.4 0 0 0 0 0 0 -0.1 0 0 0 -0.1 0 0 0 0 0 -0.1 0 0 0 0 0 0 0 -0.1 0 0 0 0 0 0 0 -0.1 0 -0.1 0 0 0 0 0 0 0 0 0 0 0 0 0 0 0z"/>
       <path class="fil4" d="M52.3 54l0.7 -0.4c0,0 0.1,0 0.1,0l0 0 0 0 0 0 0.2 0 0 0 0 0 0.1 0 0 0 0.2 0 0 0 0 0 -0.7 0.4 0 0 0 0 0 0 0 0 0 0 0 0 -0.1 0 -0.1 0 0 0 0 0 0 0 0 0 -0.1 0 0 0 0 0 -0.2 0 0 0 0 0 0 0 -0.1 0 0 0 0 0z"/>
       <path class="fil4" d="M52.9 54l0.7 -0.4 0.1 0 0 0 0 0 0 0 0 0 0.2 0 0 0 0 0 0 0 0.1 0 0 0 0 0 0 0 0 0 0.2 0.1 0 0 0 0 0 0 0 0 0 0 -0.7 0.4 0 0 0 0 0 0 0 0 0 0 -0.1 -0.1 0 0 -0.1 0 0 0 0 0 0 0 0 0 0 0 0 0 -0.1 0 0 0 0 0 0 0 0 0 0 0 0 0 0 0 0 0 -0.2 0 0 0 0 0 0 0 0 0 0 0 0 0 0 0 -0.1 0z"/>
       <path class="fil4" d="M53.5 54.1l0.7 -0.4 0.1 0 0 0 0 0 0 0 0.2 0 0 0 0 0 0 0 0 0c0.1,0 0.2,0 0.3,0.1l-0.7 0.4 0 0 -0.1 -0.1 0 0 0 0 -0.1 0 -0.1 0 0 0 0 0 0 0 0 0 -0.1 0 0 0 0 0 -0.1 0 0 0 0 0 0 0 -0.1 0z"/>
       <path class="fil4" d="M54.1 54.2l0.7 -0.4 0 0 0 0 0 0 0 0 0 0 0 0 0 0 0.1 0 0 0 0 0 0.1 0 0 0 0 0 0 0 0.1 0 0 0 0 0 0 0 0 0 0.2 0.1 0 0 0 0 0 0 0 0 0.1 0 -0.7 0.4 -0.1 0 0 0 0 0 0 0 0 0 0 0 0 0 0 0 0 0 -0.1 -0.1 0 0 0 0 -0.1 0 0 0 0 0 0 0 0 0 0 0 0 0 0 0 -0.1 0 0 0 0 0 0 0 0 0 -0.1 0 0 0 -0.1 0 0 0 0 0 0 0 0 0 0 0 0 0z"/>
       <path class="fil4" d="M54.7 54.3l0.7 -0.4 0 0 0 0 0.2 0.1 0 0 0 0 0 0 0 0 0.1 0 0.1 0 0 0 0 0 0 0 0 0 0.1 0 0 0 0 0.1 0 0 -0.6 0.3 0 0 -0.1 0 0 0 0 0 -0.1 0 0 0 0 0 0 0 0 0 0 0 0 0 -0.1 0 -0.1 0 0 0 0 0 0 -0.1 0 0 0 0 0 0 0 0 -0.1 0 0 0 0 0 0 0 0 0 0 0 -0.1 0 0 0z"/>
       <path class="fil4" d="M55.3 54.4l0.6 -0.3 0 0 0.2 0 0 0 0 0 0 0 0 0 0 0 0 0 0.2 0.1 0 0 0 0 0.1 0 0 0 0 0 0 0 0 0 0.1 0 -0.7 0.4 0 0 0 0 0 0 0 0 -0.1 0 0 0 -0.1 0 0 0 0 0 0 0 0 0 0 -0.1 0 0 0 0 -0.2 0 0 0 0 0 -0.1 0 0 -0.1 0 0z"/>
       <path class="fil4" d="M55.8 54.6l0.7 -0.4 0.1 0.1 0 0 0 0 0 0 0 0 0 0 0 0 0.1 0 0.1 0 0 0 0 0 0 0 0 0 0 0 0 0 0.1 0.1 0 0 0 0 0 0 0.1 0 0 0 0 0 0.1 0 0 0.1 0 0 0 0 0 0 -0.7 0.4 -0.1 -0.1 0 0 0 0 -0.2 -0.1 0 0 0 0 0 0 -0.1 0 0 0 -0.1 0 0 0 0 0 0 0 0 0 0 0 0 0 0 0 -0.1 -0.1z"/>
       <path class="fil4" d="M56.4 54.9l0.7 -0.4 0 0 0 0 0 0 0 0 0 0 0 0 0.2 0 0 0 0 0 0 0 0 0 0 0 0 0 0 0.1 0 0 0.1 0 0.1 0 0 0 0 0 0 0 0 0 0 0 0.1 0.1 0 0 0 0 0 0 0 0 0.1 0 -0.7 0.4 0 0 0 0 0 0 0 0 0 0 0 0 0 0 0 0 -0.1 0 0 0 0 0 0 0 0 0 0 0 -0.1 -0.1 0 0 0 0 0 0 0 0 0 0 -0.2 -0.1 0 0 0 0 0 0 0 0 0 0 0 0 0 0 -0.1 0 -0.1 0 0 0 0 0 0 0z"/>
       <path class="fil4" d="M57 55.1l0.7 -0.4 0.1 0.1 0 0 0 0 0 0 0 0 0.2 0 0 0.1 0 0 0 0 0 0 0 0 0.2 0 0 0 0.1 0.1 -0.7 0.4 -0.1 -0.1 0 0 0 0 0 0 0 0 0 0 0 0 0 0 0 0 0 0 -0.1 0 0 0 0 0 -0.1 0 0 0 0 -0.1 0 0 0 0 0 0 0 0 0 0 0 0 0 0 -0.1 0 0 0 0 0 -0.1 0 0 0 0 0 0 0 0 0 0 -0.1 0 0 0 0 -0.1 0 0 0z"/>
       <path class="fil4" d="M57.6 55.4l0.7 -0.4 0 0 0 0 0 0 0 0 0.1 0 0 0 0 0 0.1 0.1 0 0 0 0 0 0 0 0 0 0 0 0 0 0 0.1 0 0 0 0 0.1 0.1 0 0 0 0 0 0 0 0 0 0 0 0 0 0 0 0 0 0 0 0 0 0.2 0.1 0 0 0 0 0 0 0 0 -0.6 0.4 -0.1 0 0 0 0 0 0 0 0 0 0 0 0 0 0 0 0 0 -0.1 -0.1 -0.1 0 0 0 0 0 0 0 0 0 0 0 -0.1 -0.1 0 0 0 0 -0.1 0 0 0 0 0 0 0 -0.1 -0.1 0 0 0 0 0 0 0 0 0 0 -0.1 0 0 0 0 0z"/>
       <path class="fil4" d="M58.3 55.7l0.6 -0.4 0.1 0.1 0 0 0.1 0 0 0 0 0 0 0 0 0 0 0 0 0 0.1 0.1 0 0 0 0 0.1 0 0 0 0 0 0.1 0.1 0 0 0 0 -0.6 0.4 -0.1 0 0 0 -0.1 -0.1 0 0 0 0 0 0 0 0 0 0 -0.2 -0.1 0 0 0 0 0 0 0 0 0 0 0 0 0 0 0 0 0 0 0 0 -0.1 -0.1z"/>
      </g>
      <g>
       <path class="fil4" d="M58.8 56l0.6 -0.4 0 0 0 0 0 0 0 0 0 0 0 0 0.1 0 0 0 0 0 0.1 0.1 -0.7 0.4 0 0 0 0 -0.1 -0.1 0 0 0 0 0 0 0 0 0 0 0 0 0 0 0 0 0 0 0 0 0 0z"/>
       <path class="fil4" d="M58.9 56.1l0.7 -0.4 0.2 0.1 0 0 0 0 0 0 0.2 0.1 0 0 0 0 0 0 0 0 0.1 0.1 0 0 0.1 0 0 0 0 0 0 0.1 0 0 0.1 0 -0.7 0.4 0 0 -0.1 0 0 0 0 -0.1 0 0 0 0 0 0 0 0 0 0 -0.1 0 0 0 0 0 -0.1 -0.1 0 0 0 0 0 0 0 0 0 0 0 0 0 0 -0.2 -0.1 0 0 0 0 0 0 0 0 -0.2 -0.1 0 0 0 0 0 0 0 0z"/>
       <path class="fil4" d="M59.6 56.5l0.7 -0.4 0 0 0 0 0 0.1 0 0 0 0 0.1 0 0 0 0.1 0 0 0 0 0.1 0 0 0 0 0 0 0 0 0 0 0.1 0.1 0.1 0 0 0 0 0 0 0 0 0 0 0 0 0 0 0 0.1 0.1 0.1 0 0 0.1 -0.6 0.3 -0.1 0 0 0 0 0 0 0 0 0 0 0 -0.1 0 -0.1 -0.1 0 0 0 0 0 0 0 0 0 0 0 0 0 -0.1 -0.1 0 0 0 0 0 -0.1 0 0 0 0 0 0 0 0 -0.1 0 0 -0.1 0 0 0 0 0 0 0 0 -0.1 0 0 -0.1 0 0 0 0 0 0 0 0 0 0 0z"/>
       <path class="fil4" d="M60.3 56.9l0.6 -0.3 0.1 0 0 0 0 0 0 0 0 0 0 0 0.1 0 0 0 0.1 0.1 0 0 0 0 0 0 0 0 0 0 0 0 0 0.1 0 0 0.1 0 0 0 0.1 0.1 0 0 0 0 0 0 0 0 0.1 0.1 0 0 0 0 0 0 0 0 0.1 0 0 0 0 0 -0.7 0.4 0 0 0 0 0 0 0 0 0 0 0 0 -0.1 0 0 0 0 -0.1 0 0 -0.1 0 0 0 0 0 0 0 0 0 0 0 0 -0.1 0 0 -0.1 0 0 0 -0.1 0 0 -0.1 0 0 0 0 0 0 0 0 0 0 0 0 -0.1 -0.1 0 0 0 0 0 0 0 0 0 0 -0.1 0 0 0 0 0 0 0 0 -0.1z"/>
       <path class="fil4" d="M61.6 57l0.1 0.1 0 0 0 0 0 0 0 0 0 0 0 0 0 0 0 0 0.1 0 0 0 0.1 0.1 0 0 0 0 0 0.1 0 0 0 0 0 0 0.1 0.1 0 0 0 0 0.1 0 0 0 0 0 0 0 0.1 0.1 -0.7 0.4 0 0 0 0 -0.1 -0.1 0 0 0 0 0 0 0 0 0 0 0 0 0 -0.1 -0.1 0 0 0 -0.1 0 0 0 0 -0.1 0 0 0 0 0 0 0 0 0 0 0 0 0 0 -0.1 0 0 0 0 0 0 0 0 -0.1 0 0 0 0 0 0 0 0 -0.1 0 0 0 0 0 0 0 0 0 0 0 0 0 -0.1 -0.1 0 0 0 0 0.8 -0.3z"/>
       <path class="fil4" d="M61.5 57.9l0.7 -0.4 0 0 0 0 0 0 0.2 0.1 0 0 0 0 0 0 0 0 0 0 0.1 0.1 0 0 0 0.1 0 0 0.1 0 0 0 0 0 0 0 0 0 0.1 0.1 0 0 0 0 0 0 0 0 0 0 0.1 0 0 0.1 -0.6 0.4 -0.1 -0.1 0 0 0 0 -0.1 0 0 0 0 0 0 0 -0.1 -0.1 0 0 0 0 0 0 0 0 0 0 0 0 0 -0.1 0 0 -0.1 0 0 0 0 0 0 0 -0.1 0 0 -0.1 0 0 0 0 0 0 0 0 0 0 0 0 0 0 0 0 -0.1 -0.1 0 0 0 0 -0.1 0 0 0 0 0z"/>
       <path class="fil4" d="M62.2 58.4l0.6 -0.4 0.1 0 0 0 0 0 0 0 0 0 0 0.1 0.1 0.1 0 0 0 0 0.1 0 0 0 0 0 0.1 0.1 0 0 0 0 0 0 0 0 0 0 0.1 0.1 0 0 0.1 0.1 0 0 0 0 0 0 0 0 0 0 0 0 0 0 -0.6 0.4 -0.1 0 0 0 0 0 0 0 0 -0.1 -0.2 -0.1 0 0 0 0 0 0 0 0 0 0 -0.1 -0.1 0 0 0 0 0 0 0 0 -0.1 0 0 0 -0.1 -0.2 0 0 0 0 0 0 0 0 0 0 0 0z"/>
       <path class="fil4" d="M62.8 58.9l0.6 -0.4 0.1 0.1 0 0 0 0 0 0 0 0 0 0 0 0 0.1 0 0 0 0.1 0.1 0 0 0 0.1 0 0 0 0 0 0 0.1 0.1 0 0 0 0 0 0 0.1 0 0.1 0.1 0 0 0 0 0 0.1 0 0 -0.7 0.4 0 -0.1 0 0 0 0 0 0 0 0 0 0 0 0 0 0 -0.1 -0.1 0 0 0 0 0 0 0 0 0 0 0 0 0 0 0 0 -0.1 0 0 0 0 -0.1 -0.1 0 0 0 0 0 0 0 0 -0.1 0 0 0 0 0 0 0 0 0 0 -0.1 -0.1 0 0 -0.1 0 0 0 0 0 0 0 0 0 0 -0.1z"/>
       <path class="fil4" d="M63.3 59.5l0.7 -0.4 0 0 0 0 0 0 0.1 0.1 0 0 0 0 0.1 0 0 0 0 0 0.1 0.1 0 0 0 0 0 0.1 0 0 0 0 0 0 0 0 0.1 0.1 0 0 0.1 0 0 0 0 0 0 0 0 0.1 -0.6 0.4 -0.1 -0.1 0 0 0 0 0 0 0 0 0 0 0 0 0 0 -0.1 -0.1 0 0 0 0 0 0 0 0 -0.1 0 0 0 0 -0.1 0 0 0 0 0 0 0 0 0 0 0 0 0 0 -0.1 -0.1 0 0 0 0 0 0 0 0 0 0 0 0 0 0 0 0 0 0 -0.1 0 0 0 0 -0.1 0 0 0 0 0 0 0 0 0 0 0 0 0 0 -0.1 0 0 0 0 0z"/>
       <path class="fil4" d="M63.9 60l0.6 -0.4 0.1 0 0 0 0 0 0 0 0 0.1 0 0 0 0 0 0 0 0 0 0 0 0 0.1 0 0 0.1 0 0 0 0 0.1 0 0 0 0 0 0 0 0 0 0 0 0 0 0 0.1 0.1 0 0 0 0 0 0 0 0 0 0 0.1 0 0 0 0 0 0 0 0 0 0 0 0 0.1 0.1 -0.6 0.4 -0.1 -0.1 0 0 0 0 0 0 -0.1 0 0 0 0 0 0 0 0 -0.1 0 0 0 0 0 0 -0.1 0 0 0 0 -0.1 0 0 0 0 0 0 0 0 0 0 0 0 0 0 0 0 -0.1 0 0 -0.1 0 0 0 0 0 0 -0.1 0 0 0 0 0 0 -0.1 0 0 0 0 0 0 0 0 0 0 0 0z"/>
       <path class="fil4" d="M64.4 60.5l0.6 -0.4 0 0 0.1 0 0 0 0 0 0.1 0.2 0 0 0 0 0 0 0 0 0 0 0.1 0.1 0.1 0.1 0 0 0 0 0.1 0.1 -0.7 0.4 0 0 0 0 0 0 0 0 0 0 0 0 -0.1 -0.1 0 0 0 0 0 0 0 -0.1 0 0 -0.1 -0.1 -0.1 0 0 0 0 0 0 0 0 0 -0.1 -0.1 0 -0.1 0 0 0 0 0 0 0 0 0 0 0 0 0 0z"/>
       <path class="fil4" d="M64.8 61l0.7 -0.4 0 0 0 0 0 0 0 0 0 0 0 0.1 0.1 0.1 0 0 0 0 0 0 0.1 0 0.1 0.1 0 0 0 0 0 0.1 0 0 0 0 0 0 0.1 0.1 0 0 0 0 0 0 -0.6 0.4 0 0 0 0 0 0 -0.1 0 0 0 0 0 -0.1 -0.1 0 0 0 0 0 0 0 -0.1 0 0 0 0 0 0 0 0 -0.1 -0.1 0 0 0 0 0 0 0 0 -0.1 -0.2 -0.1 0 0 0 0 0 0 0 0 0 0 0z"/>
       <path class="fil4" d="M65.3 61.5l0.6 -0.4 0.2 0.2 0 0 0 0 0 0 0 0 0 0 0.1 0.1 0 0.1 0 0 0 0 0 0 0 0 0 0 0 0 0.1 0.1 0 0 0 0 0 0 0.1 0 0 0.1 0 0 -0.7 0.4 0 0 0 0 0 -0.1 0 0 0 0 0 0 -0.1 0 0 0 0 0 0 0 0 0 0 0 0 -0.1 0 0 0 0 0 0 0 0 0 0 0 0 -0.1 0 0 0 0 0 0 0 0 -0.1 0 0 0 0 0 0 0 0 -0.1 -0.1 0 0 0 0 0 0 0 0 0 0 0 0 0 0 0 0 -0.1 -0.1 0 -0.1 0 0 0 0z"/>
       <path class="fil4" d="M65.7 62.1l0.7 -0.4 0.1 0.1 0 0 0 0 0 0 0 0 0 0 0 0 0 0 0.1 0.2 0 0 0 0 0 0 0 0 0 0 0 0 0 0 0.1 0 0 0 0 0.1 0 0 0 0 0 0 0 0 0 0 0 0 0 0 0 0.1 0.1 0 0 0 0 0 0 0 0.1 0.1 -0.7 0.4 -0.1 -0.1 0 0 0 0 0 0 0 0 0 -0.1 0 0 0 0 -0.1 -0.1 -0.1 0 0 0 0 0 0 0 0 0 0 -0.1 0 0 -0.1 -0.1 0 0 0 0 0 0 0 0 0 0 0 0 0 0 0 0 0 0 0 0 0 -0.1 0 0 -0.1 0 0 0 0 0 0 0 0 0 0 0 0 0z"/>
       <path class="fil4" d="M66.2 62.7l0.7 -0.4 0 0 0 0 0.1 0.2 0 0 0 0 0 0 0.1 0.2 0 0 0 0 0.1 0 0 0 0 0.1 0.1 0.1 0 0 0 0 0 0 0 0 0 0 0 0 0.1 0.1 0 0 0 0.1 0 0 0 0 0 0 0.1 0.1 -0.7 0.4 -0.1 -0.1 0 0 0 0 0 0 0 -0.1 -0.1 -0.1 0 0 0 0 0 0 0 0 0 0 0 -0.1 0 0 -0.1 -0.1 0 0 0 0 0 0 0 0 -0.1 0 0 -0.1 0 0 0 0 0 -0.1 0 0 -0.1 0 0 0 0 0 0 0 0 0 0 0 -0.1 -0.1 0 -0.1 0 0 0 0 0 0 0 0 0 0z"/>
       <path class="fil4" d="M66.8 63.6l0.7 -0.4 0 0 0 0 0 0.1 0.1 0.1 0 0 0 0 0.1 0 0 0.2 0.1 0 0 0 0 0 0 0 0 0.1 0 0 0.1 0.1 0 0 0 0 0 0 0.1 0.1 0 0.1 0 0 0 0 0 0 0 0 0 0 0.1 0.2 0 0 0 0 0 0 0.1 0.1 0 0.1 0 0 0.1 0 0 0 0 0.1 0 0.1 0.1 0 0 0 0 0 0 0 -0.7 0.4 0 0 0 0 0 0 0 0 -0.1 -0.2 0 0 0 0 -0.1 -0.1 0 -0.1 0 0 -0.2 -0.2 0 0 0 0 -0.1 -0.2 0 0 0 0 -0.1 -0.2 0 0 -0.1 -0.1 0 -0.1 0 0 0 0 -0.2 -0.2 0 0 0 0z"/>
       <path class="fil4" d="M67.7 65l0.7 -0.4 0.1 0.2 0 0 0 0 0.1 0.1 0 0.1 0 0 0 0 0 0 0 0 0 0 0 0 0.1 0.1 0 0 0 0 0 0 0 0.1 0 0 0 0 0 0 0 0 0 0 0 0 0.1 0.1 0 0 0 0 0 0 0 0 0 0.1 0 0 0 0 0 0 0 0 0.1 0.1 0 0 0 0.1 -0.7 0.4 0 -0.1 0 0 -0.1 -0.1 0 0 0 0 0 0 0 -0.1 0 0 0 0 -0.1 -0.1 0 0 0 0 0 0 0 -0.1 0 0 -0.1 -0.1 0 0 0 0 0 0 -0.1 -0.2 0 0 0 0 0 0 0 0 0 0 0 -0.1 -0.1 -0.1z"/>
      </g>
      <g>
       <path class="fil4" d="M58.8 56c3.8,2.2 7.2,5.7 9.4,10l-2.3 1.2c-1.9,-3.5 -4.3,-5.9 -7,-7.5 -5.7,-3.2 -9.8,-1 -9.9,5.4 0,6.4 4.2,13.4 9.8,16.7 2.8,1.6 5.1,1.8 7.1,0.6l2.3 3.9c-2.3,1.7 -5.7,1.3 -9.6,-1 -7.5,-4.3 -13.2,-13.8 -13.1,-22.3 0,-8.4 5.7,-11.4 13.3,-7z"/>
      </g>
     </g>
     <g>
      <g>
       <path class="fil4" d="M76.9 86.8l0.6 -0.4 0 8.7 -0.7 0.4 0.1 -8.7z"/>
      </g>
      <g>
       <path class="fil4" d="M76.9 83.3l0.7 -0.4 6 3.5 -0.7 0.4 -6 -3.5z"/>
      </g>
      <g>
       <path class="fil4" d="M76.9 70.4l0.7 -0.4 0 12.9 -0.7 0.4 0 -12.9z"/>
      </g>
      <g>
       <path class="fil4" d="M82.9 86.8l0.7 -0.4 0 0 0 0 0 0 0 0 0.1 0 0 0 0 0 0 0 0 0 0 0 0 0 0 0 0 0 0 0 0 0 0 0 0 0 0 0 0 0 0.1 0.1 0 0 0 0 0 0 0 0 0 0 0 0 0 0 0 0 0 0 0 0 0 0 0 0 0 0 0.1 0 0 0 0 0 0 0 0 0 0 0 0 0 0 0 0 0 0 0 0 0 0 0 0 0.1 0 0 0 0 0.1 0 0 0 0 0 0 0 0 0 0 0 0 0 0 0 0 0 0 0 0 0 0 0 0 0 0 0 0 0 0.1 0 0 0 0 0 0 0 -0.7 0.4 0 0 0 0 0 0 0 0 0 0 0 0 -0.1 0 0 0 0 0 0 0 0 0 0 0 0 0 0 0 0 0 0 0 0 0 0 0 0 0 0 0 0 -0.1 -0.1 0 0 0 0 0 0 0 0 0 0 0 0 0 0 0 0 0 0 0 0 0 0 0 0 0 0 0 0 0 -0.1 0 0 0 0 0 0 0 0 0 0 0 0 0 0 0 0 0 0 0 0 -0.1 0 0 -0.1 0 0 0 0 0 0 0 0 0 0 0 0 0 0 0 0 0 0 0 0 0 0 0 0 0 -0.1 0 0 0z"/>
       <path class="fil4" d="M83.4 87l0.7 -0.4 0 0 0 0 0 0 0 0 0 0 0 0.1 0 0 0 0 0.1 0 0 0 0 0 0 0 0 0 0 0 0 0 0 0 0 0 0 0 0 0 0 0 0 0 0.1 0.1 0 0 0 0 0 0 0 0 0 0 0 0 0.1 0 0 0 0 0 0 0 0 0 0 0 0.1 0 0 0 0 0 0 0 0 0 0 0.1 0 0 0 0 0 0 0 0 0 0 0 0 0 0 0.1 0 0 0 0 0 0 0 0 0 0 0 0 0 0 0 -0.7 0.4 0 0 0 0 0 0 0 0 0 0 0 0 0 0 0 0 0 0 0 0 0 0 -0.1 0 0 0 0 -0.1 0 0 0 0 0 0 0 0 0 0 0 0 0 0 0 0 0 0 0 0 -0.1 0 0 0 0 0 0 0 0 0 0 0 0 0 0 0 -0.1 0 0 0 0 0 0 -0.1 0 0 0 0 0 0 0 0 0 0 0 0 0 0 0 0 0 0 -0.1 0 0 0 0 0 0 0 0 0 0 0 0 0 0 0 0 0 0 0 0 0 0 0 -0.1 0 0 -0.1 0 0 0 0 0 0 0 0 0 0 0 0z"/>
       <path class="fil4" d="M83.9 87.3l0.7 -0.4 0 0 0 0 0 0 0 0 0 0 0 0 0.1 0 0 0 0 0 0 0 0 0 0 0.1 0 0 0 0 0 0 0 0 0 0 0 0 0.1 0 0 0 0 0 0 0 0 0 0 0 0 0 0 0 0 0 0 0 0.1 0 0 0 0 0 0 0 0 0 0 0 0 0 0 0 0 0.1 0 0 0.1 0 0 0 0 0 0 0 0 0 0 0 0 0 0 0 0 0 0 0 0 0 0 0 0 0 0.1 0 0 0 0 0 0 0 0 0 0 0 0 0 -0.7 0.4 0 0 0 0 0 0 0 0 0 0 0 0 0 0 0 0 0 0 -0.1 0 0 0 0 0 0 0 0 0 0 0 0 0 0 0 0 0 0 0 0 0 0 0 -0.1 -0.1 0 0 0 0 0 0 0 0 0 0 0 0 0 0 0 0 0 0 -0.1 0 0 0 0 0 0 0 0 0 0 0 0 0 0 0 0 0 0 0 0 0 -0.1 0 0 0 0 -0.1 0 0 0 0 0 0 0 0 0 0 0 0 0 0 0 0 0 0 0 0 -0.1 0 0 0 0 0z"/>
       <path class="fil4" d="M84.4 87.5l0.7 -0.4 0 0 0 0 0 0 0 0.1 0 0 0.1 0 0 0 0 0 0 0 0 0 0 0 0 0 0.1 0 0 0 0 0 0 0 0 0 0 0 0.1 0.1 0 0 0 0 0 0 0 0 0.1 0 0 0 0 0 0 0 0 0 0 0 0 0 0 0 0 0 0 0 0 0 -0.6 0.4 -0.1 0 0 0 0 0 0 0 0 0 0 0 0 0 0 0 0 0 0 0 0 0 0 0 0 0 0 0 -0.1 0 0 0 0 0 0 0 0 0 0 0 0 0 0 0 0 0 0 0 0 -0.1 0 0 0 0 0 0 0 0 -0.1 0 0 0 0 0 0 0 0 0 0 0 0 0 0 0 0 0 0 0 0 0 0 0 0 0 0 0 0 0 -0.1 0 0 0 0 0 0 0 0 0 0 0 0 0 0 0 0 0 0 0 0 0 0 0 0 0 0 -0.1 0 0 -0.1 0 0 0 0 0 0 0z"/>
       <path class="fil4" d="M84.9 87.7l0.6 -0.4 0 0 0 0 0.1 0 0 0 0 0 0 0 0 0 0 0 0 0 0 0 0 0.1 0 0 0 0 0 0 0 0 0 0 0 0 0 0 0 0 0.1 0 0 0 0 0 0 0 0 0 0 0 0 0 0 0 0 0 0 0 0 0 0 0 0 0 0.1 0 0 0 0 0 0 0 0 0 0 0 0 0 0 0 0 0 0 0 0 0 0 0 0 0 0 0 0 0 0.1 0 0 0 0 0.1 0 0 0 0 0 0 0 0 0 0 0 0 0 0 0 0 0 0 0 0 0 0 -0.7 0.4 0 0 0 0 0 0 0 0 0 0 0 0 0 0 0 -0.1 0 0 0 0 0 0 0 0 0 0 0 0 0 0 0 0 -0.1 0 0 0 0 0 0 0 0 0 0 0 0 0 0 0 0 0 0 0 0 0 0 0 0 0 0 0 -0.1 0 0 0 0 0 0 0 0 0 0 0 0 0 0 0 0 0 0 0 0 0 0 0 0 0 0 0 0 0 0 0 0 0 -0.1 0 0 0 0 -0.1 0 0 0 0 0 0 0 0 0 0 0 0 0 0 0 0 0 0 0 0 0 0 0 0 0 0 0 0z"/>
       <path class="fil4" d="M85.2 87.9l0.7 -0.4 0 0 0 0 0 0 0 0 0.1 0 0 0 0 0 0 0 0 0 0 0 0 0 0 0 0 0 0 0 0 0 0 0 0 0 0 0 0 0 0 0 0 0 0 0 0.1 0 0 0 0 0 0 0 0 0 0 0 0 0 0 0 0 0 0 0 0 0 0 0 0 0 0 0 0 0 0 0 0 0 0.1 0 0 0.1 0 0 0 0 0 0 0 0 0 0 0 0 0 0 0 0 0 0 0 0 0 0 0 0 0 0 0 0 0.1 0 0 0 0 0 0 0 0 0 0 0 0 0 0 0 0 0 -0.7 0.4 0 0 0 0 0 0 0 0 0 0 0 0 0 0 0 0 0 0 0 0 0 0 -0.1 0 0 0 0 0 0 0 0 0 0 0 0 0 0 0 0 0 0 -0.1 0 0 0 0 0 0 0 0 0 0 0 0 0 0 0 0 0 0 -0.1 0 0 0 0 0 0 0 0 0 0 0 0 0 0 0 0 0 0 0 0 0 0 0 0 0 0 0 0 0 0 0 0 0 0 0 -0.1 0 0 0 0 0 0 0 0 0 0 0 0 0 0 0 0 0 0 0 0 0 0 0 0 0 0 0 0 0 0 0 0 0 -0.1 0z"/>
       <path class="fil4" d="M85.6 88l0.7 -0.4 0 0 0 0 0 0 0 0 0 0 0 0 0.1 0 0 0 0 0 0 0 0 0 0 0 0 0 0 0 0.1 0 0 0 0 0 0 0 0 0 0 0 0 0.1 0 0 0 0 0 0 0 0 0.1 0 0 0 0 0 0 0 0 0 0 0 0 0 0 0 0 0 0 0 0 0 0 0 0 0 0 0 0 0 0 0 -0.6 0.4 0 0 0 0 -0.1 0 0 0 0 0 0 0 0 0 0 0 0 0 0 0 0 0 0 0 0 0 0 0 0 0 0 0 0 0 0 0 0 0 0 0 0 0 0 0 -0.1 0 0 0 0 -0.1 0 0 0 0 0 0 0 0 0 0 0 0 0 0 0 0 -0.1 0 0 0 0 0 0 0 0 0 0 0 0 0 0 0 -0.1 0 0 0 0 0 0 0 0 0 0 0 0 0z"/>
       <path class="fil4" d="M86 88.1l0.6 -0.4 0 0 0 0 0.1 0 0 0 0 0 0 0 0 0 0 0 0 0 0 0 0 0 0 0 0 0 0 0 0 0 0 0 0 0 0 0 0 0 0 0 0 0 0 0 0.1 0 0 0 0 0 0 0 0 0 0.1 0.1 0 0 0 0 0 0 0.1 0 -0.7 0.4 0 -0.1 -0.1 0 0 0 0 0 0 0 0 0 0 0 0 0 0 0 0 0 0 0 -0.1 0 0 0 0 0 0 0 0 0 0 0 0 0 0 0 0 0 0 0 0 0 0 0 0 0 -0.1 0 0 0 0 0 0 0 0 0 0 0 0 0 0 0 0 0 0 0 0 0 0 0 0 0 0 0 0 0 0 0 0 0 0 0 0 0z"/>
       <path class="fil4" d="M86.3 88.2l0.7 -0.4 0 0 0 0 0 0 0 0 0 0 0 0 0 0 0 0 0 0 0 0 0.1 0 0 0 0 0 0 0 0 0 0 0 0 0 0 0 0 0 0 0 0 0 0 0 0 0 0 0 0 0 0 0 0 0 0.1 0 0 0 0 0 0 0 0 0 0 0 0 0 0 0 0 0 0 0 0 0 0 0 0 0 0 0 0 0 0 0 0 0 0 0 0 0 0 0 0 0 0.1 0 0 0 0 0 0 0 -0.7 0.4 0 0 0 0 0 0 0 0 0 0 0 0 0 0 0 0 -0.1 0 0 0 0 0 0 0 0 0 0 0 0 0 0 0 0 0 0 0 0 0 0 0 0 0 0 0 0 0 0 0 0 0 0 0 0 0 0 0 -0.1 0 0 0 0 0 0 0 0 0 0 0 0 0 0 0 0 0 0 0 0 0 0 0 0 0 0 0 -0.1 0 0 0 0 0 0 0 0 0 0 0 0 0 0 0 0 0 0 0z"/>
       <path class="fil4" d="M86.6 88.2l0.7 -0.4 0 0 0 0 0 0 0 0 0 0 0 0 0 0 0 0 0 0 0 0 0 0 0 0 0 0 0 0 0 0 0 0 0 0 0 0 0.1 0 0 0 0 0 0 0 0 0 0 0 0 0 0 0 0 0 0 0 0 0 0 0 0 0 0 0 0 0 0 0 0 0 0 0 0 0 0 0 0 0 0.1 0 0 0 0 0 0 0 0 0 0 0 0 0 0 0 0 0 0 0 0 0 0 0 0 0 0 0 0.1 0 -0.7 0.4 -0.1 0 0 0 0 0 0 0 0 0 0 0 0 0 0 0 0 0 0 0 0 0 0 0 0 0 0 0 0 0 0 0 0 0 0 0 0 0 0 0 -0.1 0 0 0 0 0 0 0 0 0 0 0 0 0 0 0 0 0 0 0 0 0 0 0 0 0 0 0 0 0 0 0 0 0 0 0 0 0 0 0 0 0 -0.1 0 0 0 0 0 0 0 0 0 0 0 0 0 0 0 0 0 0 0 0 0 0 0 0 0 0 0z"/>
       <path class="fil4" d="M86.9 88.2l0.7 -0.4 0 0 0 0 0 0 0 0 0 0 0 0 0 0 0 0 0 0 0 0 0.1 0 0 0 0 0 0 0 0 0 0 0 0 0 0 0 0 0 0 0 0 0 0 0 0 0 0 0 0 0 0 0 0 0 0 0 0.1 0 0 0 0 0 0 0 0 0 0 0.1 0 0 0 0 0 0 0 0 0 0 0 0 0 0 0 0 0 0 0 0 0 0 0 0 0.1 0 -0.7 0.3 0 0 0 0 0 0 0 0 0 0 -0.1 0 0 0 0 0 0 0 0 0 0 0 0 0 0 0 0 0 0 0 0 0 0 0 0 0 0 0 0 0 0 0 0 0 0 0 0 0 0 0 0 0 -0.1 0 0 0 0 0 0 0 0 0 0 0 0 0 0 0 0 0 0 0 0 0 0 0 0 0 0 0 0 0 0 0 0 0 0 0 0 0 0 0 -0.1 0 0 0 0 0 0 0 0 0 0 0 0 0 0 0 0 0 0 0z"/>
       <path class="fil4" d="M87.2 88.2l0.7 -0.3 0 0 0 0 0 0 0 -0.1 0 0 0 0 0 0 0 0 0 0 0 0 0 0 0 0 0 0 0 0 0.1 0 0 0 0 0 0 0 0 0 0 0 0 0 0 0 0 0 0 0 0 0 0 0 0 0 0 0 0.1 0 0 0 0 0 0 0 0 0 0 0 0 0 0 0 0 0 0 0 0 0 0 0 0 0 -0.6 0.4 -0.1 0 0 0 0 0 0 0 0 0 0 0 0 0 0 0 0 0 0 0 0 0 0 0 0 0 0 0 0 0 0 0 0 0 0 0 0 0 0 0 -0.1 0 0 0 0 0 0 0 0 0 0 0 0 0 0 0 0 0 0 0 0 0 0 0 0 0 0 0 -0.1 0 0 0 0 0 0 0 0 0 0 0 0 0 0 0 0 0 0 0 0 0 0 0 0 0 0 0 0 0z"/>
       <path class="fil4" d="M87.5 88.2l0.6 -0.4 0.1 0 0 0 0 0 0 0 0 0 0 0 0 0 0 0 0 0 0 0 0 0 0 0 0 0 0 0 0 0 0 0 0.1 0 0 0 0 0 0 0 0 0 0 0 0 0 0 0 0 0 0 0 0.1 0 0 0 0 0 0 0 0 0 0 0 0 0 0 0 -0.6 0.4 0 0 0 0 0 0 0 0 -0.1 0 0 0 0 0 0 0 0 0 0 0 0 0 0 0 0 0 0 0 0 0 0 0 0 0 0 0 0 0 0 0 0 0 0 0 0 0 0 0 0 0 -0.1 0 0 0 0 0 0 0 0 0 0 0 0 0 0 0 0 0 0 0 0 0 0 0 0 0 0 0 -0.1 0 0 0 0 0 0 0 0 0 0 0 0 0 0 0 0 0 0 0 0 0 0 0z"/>
       <path class="fil4" d="M87.8 88.2l0.6 -0.4 0.1 0 0 0 0 0 0 0 0 0 0.1 0 0 0 0 0 0 0 0 0 0 0 0 -0.1 0 0 0.1 0 0 0 0 0 0 0 0 0 0 0 0 0 0 0 0 0 0 0 0.1 0 0 0 0 0 0 0 0 0 0 0 0 0 0 0 0 0 -0.7 0.4 0 0 0 0 0 0 0 0 0 0 0 0 0 0 0 0 0 0 0 0 0 0 0 0 0 0 0 0 -0.1 0 0 0 0 0 0 0 0 0 0 0 0 0 0 0 0 0 0 0 0 0 -0.1 0.1 0 0 0 0 0 0 0 0 0 0 0 0 0 0 0 0 0 0 -0.1 0 0 0 0 0 0 0 0 0 0 0 0 0 0 0 0 0 0 0 0 0 0 0 0 0z"/>
       <path class="fil4" d="M88.1 88.1l0.7 -0.4 0 0 0 0 0 0 0 0 0 0 0.1 0 0 0 0.1 -0.1 0 0 0 0 0 0 0 0 0 0 0.1 0 0 0 0 0 0 0 0 0 0 0 0 0 0 0 0 0 0 0 0 0 0 -0.1 0.1 0 -0.7 0.4 0 0 0 0 0 0 0 0 0 0 -0.1 0 0 0.1 0 0 0 0 0 0 0 0 0 0 0 0 0 0 -0.1 0 0 0 0 0 0 0 0 0 0 0 0 0 0 0 -0.1 0.1 0 0 0 0 0 0 0 0 0 0 0 0 0 0 0 0 -0.1 0 0 0 0 0zm1.1 -0.6l0 0 0 0z"/>
      </g>
      <g>
       <path class="fil4" d="M73.4 64.8l0.6 -0.4 9.8 5.6 -0.7 0.4 -9.7 -5.6z"/>
      </g>
      <g>
       <path class="fil4" d="M83.1 70.4l0.7 -0.4 0 0 0 0 0 0 0 0 0 0c0,0 0.1,0.1 0.1,0.1l-0.6 0.4 -0.2 -0.1 0 0 0 0z"/>
       <path class="fil4" d="M83.3 70.5l0.6 -0.4 0.2 0.1 0 0c0.1,0 0.2,0.1 0.3,0.1l0 0 0 0.1 0 0 0 0c0.1,0 0.2,0.1 0.3,0.1l0 0 0 0 0 0 0 0 0 0.1 -0.7 0.4 0 -0.1 0 0 0 0 0 0 0 0c-0.1,0 -0.2,-0.1 -0.3,-0.1l0 -0.1 0 0 0 0 0 0c-0.2,-0.1 -0.3,-0.1 -0.4,-0.2z"/>
       <path class="fil4" d="M84 71l0.7 -0.4c0.1,0 0.2,0.1 0.2,0.1l0.1 0 0 0 0 0 0 0zm0.2 0.2l0 0c0.1,0.1 0.2,0.1 0.2,0.1l-0.7 0.4c-0.1,-0.1 -0.3,-0.2 -0.4,-0.3l0 0 0 0 0 0 0 0c-0.1,0 -0.2,-0.1 -0.3,-0.1z"/>
       <path class="fil4" d="M84.7 71.4l0.7 -0.4 0.1 0.1 0 0zm0.3 0.2l0 0 0 0c0.1,0.1 0.2,0.1 0.3,0.2l-0.7 0.4c-0.1,-0.1 -0.2,-0.1 -0.3,-0.2l0 0 0 0c-0.1,-0.1 -0.2,-0.2 -0.4,-0.3z"/>
       <path class="fil4" d="M85.4 71.9l0.7 -0.4 0 0 0 0 0 0c0.1,0.1 0.2,0.1 0.3,0.2l0 0 0 0c0,0.1 0.1,0.1 0.2,0.2l0 0 0 0 0 0 0.1 0.1 -0.7 0.4 -0.1 -0.1 0 0c0,-0.1 -0.1,-0.1 -0.2,-0.2l0 0c-0.1,-0.1 -0.2,-0.1 -0.3,-0.2l0 0 0 0z"/>
       <path class="fil4" d="M86 72.4l0.7 -0.4c0.1,0 0.1,0.1 0.2,0.1l0 0 0 0 0 0c0.1,0.1 0.2,0.2 0.2,0.2l0 0 0 0 0.1 0 0 0c0,0.1 0.1,0.1 0.1,0.2l-0.7 0.4c0,-0.1 -0.1,-0.1 -0.1,-0.2l0 0c-0.1,0 -0.2,-0.1 -0.3,-0.2l0 0 0 0 0 0 -0.2 -0.1z"/>
       <path class="fil4" d="M86.6 72.9l0.7 -0.4 0.1 0 0 0 0 0 0 0 0 0c0.1,0.1 0.2,0.2 0.2,0.3l0 0 0.1 0 0 0c0,0 0.1,0.1 0.2,0.2l-0.7 0.3c-0.1,0 -0.1,-0.1 -0.2,-0.1l0 0 0 0c-0.1,-0.1 -0.2,-0.2 -0.3,-0.3l0 0 0 0 0 0 0 0 -0.1 0z"/>
       <path class="fil4" d="M87.2 73.3l0.7 -0.3 0 0 0 0 0 0 0 0 0 0 0 0c0.1,0.1 0.2,0.1 0.2,0.2l0 0 0 0 0 0 0.1 0c0,0.1 0.1,0.2 0.2,0.2l0 0 0 0 -0.7 0.4 0 0 0 0 0 0 0 0c-0.1,-0.1 -0.2,-0.1 -0.2,-0.2l0 0 0 0 0 0 0 0c-0.1,-0.1 -0.2,-0.2 -0.3,-0.2l0 0 0 0 0 -0.1z"/>
       <path class="fil4" d="M87.7 73.8l0.7 -0.4c0.1,0.1 0.1,0.2 0.2,0.2l0 0 0 0.1 0 0c0.1,0 0.2,0.1 0.3,0.2l-0.7 0.4 0 0 0 0 0 0 0 0 0 0c-0.1,-0.1 -0.2,-0.2 -0.2,-0.2l0 0 -0.1 0 0 0 0 -0.1 0 0 0 0 0 0 0 0c-0.1,0 -0.1,-0.1 -0.2,-0.2l0 0z"/>
       <path class="fil4" d="M88.2 74.3l0.7 -0.4c0,0.1 0.1,0.1 0.2,0.2l0 0 0 0 0 0 0 0c0,0.1 0.1,0.2 0.2,0.2l-0.7 0.4c-0.1,0 -0.1,-0.1 -0.2,-0.2l0 0 0 0 0 0c-0.1,-0.1 -0.2,-0.1 -0.2,-0.2z"/>
       <path class="fil4" d="M88.6 74.7l0.7 -0.4 0 0 0 0 0 0 0 0.1c0.1,0 0.1,0.1 0.2,0.2l0 0 0 0 0 0c0.1,0.1 0.1,0.1 0.2,0.2l-0.7 0.4c-0.1,-0.1 -0.1,-0.2 -0.2,-0.2l0 0 0 0c0,-0.1 -0.1,-0.2 -0.2,-0.3l0 0 0 0 0 0 0 0z"/>
       <path class="fil4" d="M89.9 75.1l0 0 0 0 0 0 0 0 0.1 0.1 -0.7 0.4 0 -0.1 -0.1 0 0 0 0 0 0 0c0,-0.1 -0.1,-0.2 -0.2,-0.3l0 0 0 0 0 0 0 0 0 0 0 0 0.7 -0.4 0 0 0 0 -0.7 0.4z"/>
       <path class="fil4" d="M89.3 75.6l0.7 -0.4 0.1 0.1 0 0 0 0 0 0c0.1,0.1 0.2,0.2 0.2,0.3l0 0 0 0 0 0 0.1 0 -0.7 0.4 0 0 -0.1 0 0 -0.1 0 0 0 0 0 0 0 0c0,0 -0.1,-0.1 -0.1,-0.2l0 0 0 0 -0.1 0 0 0 0 0 0 0 0 0 -0.1 -0.1z"/>
       <path class="fil4" d="M89.7 76l0.7 -0.4c0,0.1 0.1,0.1 0.1,0.2l0 0 0 0c0.1,0.1 0.1,0.2 0.2,0.2l0 0 0 0 0 0.1 0 0 0 0 0 0 0 0 0 0 0 0 -0.6 0.4 -0.1 0 0 0 0 -0.1 0 0 0 0 0 0 0 0c0,-0.1 -0.1,-0.1 -0.2,-0.2l0 0 0 0c0,-0.1 -0.1,-0.1 -0.1,-0.2z"/>
       <path class="fil4" d="M90.1 76.5l0.6 -0.4zm0.2 0.2l0 0c0,0.1 0.1,0.2 0.2,0.3l0 0 0 0 0 0c0,0 0.1,0.1 0.1,0.2l0 0 0 0 0 0 0 0 0.1 0 0 0 -0.7 0.4 0 0 0 0c-0.1,-0.1 -0.1,-0.2 -0.2,-0.2l0 0 0 0 0 -0.1c-0.1,0 -0.1,-0.1 -0.2,-0.2l0 0 0 0 0 0c0,-0.1 -0.1,-0.1 -0.1,-0.2z"/>
       <path class="fil4" d="M90.6 77.2l0.7 -0.4zm0.1 0.3l0 0c0.1,0.1 0.1,0.1 0.2,0.2l0 0 0 0c0,0.1 0.1,0.2 0.1,0.3l0 0 0 0c0.1,0 0.1,0.1 0.1,0.1l-0.7 0.4c0,-0.1 -0.1,-0.2 -0.2,-0.4l0 0 0 0c-0.1,-0.1 -0.1,-0.1 -0.2,-0.2l0 0 0 0c0,-0.1 -0.1,-0.2 -0.1,-0.3z"/>
       <path class="fil4" d="M91.1 78.1l0.7 -0.4 0.1 0.1 0 0.1 0 0c0,0 0.1,0.1 0.1,0.2l0 0zm0.2 0.3l0 0 0 0 0 0 0 0 -0.7 0.4 0 0 0 0 0 0 0 0c0,-0.1 -0.1,-0.2 -0.1,-0.3l0 0 0 0 0 0 0 0 0 0c-0.1,-0.1 -0.1,-0.2 -0.2,-0.2l0 -0.1 0 0 -0.1 -0.1z"/>
       <path class="fil4" d="M91.5 78.8l0.7 -0.4 0 0c0,0.1 0.1,0.2 0.1,0.2l0 0 0 0.1 0 0 0 0 0 0c0.1,0 0.1,0.1 0.1,0.2l-0.6 0.4c-0.1,-0.1 -0.1,-0.2 -0.1,-0.2l0 -0.1 0 0c-0.1,0 -0.1,-0.1 -0.2,-0.2l0 0z"/>
       <path class="fil4" d="M91.8 79.3l0.6 -0.4 0.1 0 0 0 0 0 0 0 0 0 0 0 0 0 0 0 0 0c0,0.1 0.1,0.2 0.1,0.3l0 0 0 0 0 0 0 0 0 0 0 0 -0.7 0.4 0 0 0 0 0 0 0 0 0 0 0 0c0,-0.1 -0.1,-0.2 -0.1,-0.3l0 0 0 0 0 0z"/>
       <path class="fil4" d="M91.9 79.6l0.7 -0.4c0.1,0.1 0.1,0.2 0.1,0.3l0 0 0 0 0 0 0 0 0 0c0,0 0.1,0.1 0.1,0.1l-0.7 0.4 0 -0.1 -0.1 0 0 0 0 0c0,-0.1 0,-0.2 -0.1,-0.3z"/>
       <path class="fil4" d="M92.1 80l0.7 -0.4c0,0 0,0.1 0,0.1l0 0 0 0 0 0 0 0 0.1 0.1c0,0 0,0.1 0,0.2l-0.6 0.4c-0.1,-0.1 -0.1,-0.2 -0.1,-0.3l0 0 0 0 0 0 0 0 0 0 -0.1 -0.1z"/>
       <path class="fil4" d="M92.3 80.4l0.6 -0.4 0.1 0 0 0 0 0 0 0 0 0 0 0 0 0 0 0 0 0 0 0c0,0.1 0,0.2 0.1,0.3l0 0 0 0 0 0 0 0 0 0 0 0 0 0 0 0 0 0 0 0 -0.7 0.4 0 0 0 0 0 0 0 0 0 0 0 0 0 0 0 0c0,-0.1 -0.1,-0.2 -0.1,-0.3l0 0 0 0 0 0 0 0 0 0 0 0 0 0 0 0z"/>
       <path class="fil4" d="M92.4 80.7l0.7 -0.4c0,0.1 0,0.2 0.1,0.3l0 0 0 0 0 0 0 0 0 0 0 0 0 0 0 0.1 -0.7 0.4 0 -0.1 0 0 0 0 0 0 0 0 0 0 0 -0.1c0,0 -0.1,-0.1 -0.1,-0.2z"/>
       <path class="fil4" d="M92.5 81.1l0.7 -0.4c0,0 0.1,0.1 0.1,0.1l0 0.1 0 0c0,0 0,0.1 0.1,0.2l-0.7 0.4c0,-0.1 -0.1,-0.2 -0.1,-0.3l0 0 0 0 -0.1 -0.1z"/>
       <path class="fil4" d="M92.7 81.5l0.7 -0.4 0 0 0 0 0 0 0 0 0 0 0 0 0 0c0,0.1 0,0.2 0.1,0.3l0 0 0 0 0 0 0 0 0 0 0 0 0 0.1 -0.7 0.4 0 -0.1 0 0 0 0 0 0 0 0 0 0 0 0c0,-0.1 -0.1,-0.2 -0.1,-0.3l0 0 0 0 0 0 0 0 0 0 0 0 0 0z"/>
       <path class="fil4" d="M92.8 81.9l0.7 -0.4c0,0 0,0.1 0,0.2l0 0 0 0 0 0 0 0 0.1 0 0 0c0,0.1 0,0.1 0,0.2l-0.7 0.4c0,-0.1 0,-0.1 0,-0.2l0 0 0 0c-0.1,-0.1 -0.1,-0.2 -0.1,-0.2z"/>
       <path class="fil4" d="M92.9 82.3l0.7 -0.4 0 0.1 0 0 0 0 0 0 0 0 0 0 0 0c0.1,0.1 0.1,0.2 0.1,0.2l0 0 0 0 0 0.1 0 0 0 0 0 0 0 0 0 0 0 0 -0.7 0.4 0 0 0 0 0 0 0 0 0 -0.1 0 0 0 0c0,-0.1 0,-0.1 0,-0.2l0 0 0 0 0 0 0 0 -0.1 0 0 -0.1z"/>
       <path class="fil4" d="M93 82.7l0.7 -0.4c0,0.1 0,0.1 0.1,0.2l0 0 0 0 0 0 0 0 0 0 0 0.1 0 0c0,0 0,0.1 0,0.1l-0.7 0.4c0,0 0,-0.1 0,-0.2l0 0 0 0 0 0 0 0 0 0c0,-0.1 0,-0.1 -0.1,-0.2z"/>
       <path class="fil4" d="M93.1 83.1l0.7 -0.4 0 0.1 0 0 0 0 0 0 0 0 0 0 0 0c0.1,0.1 0.1,0.2 0.1,0.3l0 0 0 0 0 0 0 0 0 0 0 0 0 0 0 0.1 -0.7 0.4 0 -0.1 0 0 0 0 0 0 0 0 0 0c0,-0.1 0,-0.2 0,-0.3l0 0 0 0 0 0 0 0 0 0 0 0 -0.1 -0.1z"/>
       <path class="fil4" d="M93.2 83.6l0.7 -0.4c0,0 0,0.1 0,0.2l0 0 0 0 0 0 0 0 0 0 0 0c0.1,0.1 0.1,0.2 0.1,0.2l-0.7 0.4c0,0 0,-0.1 0,-0.2l0 0 0 0 0 0 0 0 0 0 0 0c0,-0.1 -0.1,-0.2 -0.1,-0.2z"/>
       <path class="fil4" d="M93.3 84l0.7 -0.4 0 0.1 0 0 0 0 0 0 0 0c0,0.1 0,0.2 0,0.3l0 0 0 0 0 0 0 0 0 0 0 0 0 0.1 -0.6 0.4 0 -0.1 0 0 0 0c-0.1,-0.1 -0.1,-0.2 -0.1,-0.3l0 0 0 0 0 0 0 0 0 -0.1z"/>
       <path class="fil4" d="M93.4 84.5l0.6 -0.4c0.1,0 0.1,0.1 0.1,0.1l0 0.1 0 0 0 0 0 0 0 0 0 0 0 0c0,0.1 0,0.2 0,0.2l0 0.1 0 0 -0.7 0.4 0 -0.1c0,0 0,-0.1 0,-0.2l0 0 0 0 0 0 0 0 0 0 0 -0.1 0 0c0,0 0,-0.1 0,-0.1z"/>
       <path class="fil4" d="M93.4 85l0.7 -0.4 0 0 0 0 0 0 0 0c0,0.1 0,0.1 0,0.2l0 0 0 0 0 0 0 0.1 0 0c0,0 0,0.1 0,0.1l-0.6 0.4 -0.1 -0.1 0 -0.1 0 0 0 0 0 0c0,-0.1 0,-0.1 0,-0.2l0 0 0 0 0 0z"/>
       <path class="fil4" d="M93.5 85.4l0.6 -0.4 0 0.1 0 0 0 0 0 0 0 0 0 0.1 0 0c0,0 0.1,0.1 0.1,0.2l0 0 0 0 0 0 0 0 0 0 0 0.1 -0.7 0.4 0 -0.1 0 0 0 0 0 0 0 0c0,-0.1 0,-0.2 0,-0.3l0 0 0 0 0 0 0 -0.1z"/>
       <path class="fil4" d="M93.5 85.9l0.7 -0.4c0,0.1 0,0.2 0,0.2l0 0 0 0 0 0 0 0 0 0 0 0c0,0.1 0,0.2 0,0.3l0 0 0 0 0 0 0 0 0 0 0 0 0 0 0 0 0 0 0 0 0 0 0 0 0 0 0 0 0 0 0 0 0 0 0 0 0 0 -0.7 0.4 0 0 0 0 0 0 0 0 0 0 0 0 0 0 0 0 0 0 0 0 0 0 0 0 0 0 0 0 0 0 0 0 0 0 0 0c0,-0.1 0,-0.2 0,-0.3l0 0 0 0 0 0 0 0c0,-0.1 0,-0.1 0,-0.2z"/>
       <path class="fil4" d="M93.5 86.4l0.7 -0.4 0 0.1 0 0 0 0 0 0 0 0 0 0 0 0 0 0 0 0 0 0 0 0 0 0 0 0.1 0 0 0 0 0 0 0 0 0 0 0 0 0 0 0 0 0 0 0 0 0 0 0 0 0 0.1 0 0 0 0 0 0 0 0 0 0 0 0 0 0 0 0 0 0 0 0 0 0 0 0 0 0.1 0 0 0 0 0 0 0 0 0 0 0 0 0 0 0 0 0 0 0 0 0 0 0 0 0 0 0 0.1 0 0 0 0 0 0 0 0 0 0 0 0 0 0 0 0 0 0 0 0.1 -0.7 0.3 0 0 0 0 0 0 0 0 0 0 0 0 0 0 0 0 0 0 0 0 0 0 0 0 0 0 0 -0.1 0 0 0 0 0 0 0 0 0 0 0 0 0 0 0 0 0 0 0 0 0 0 0 0 0 -0.1 0 0 0 0 0 0 0 0 0 0 0 0 0 -0.1 0 0 0 0 0 0 0 0 0 0 0 0 0 -0.1 0 0 0 0 0 0 0 0 0 0 0 -0.1z"/>
       <path class="fil4" d="M93.5 86.9l0.7 -0.3 0 0 0 0 0 0 0 0 0 0 0 0 0 0 0 0 0 0 0 0 0 0 0 0 0 0.1 0 0 -0.1 0 0 0 0 0 0 0 0 0 0 0 0 0 0 0 0 0 0 0 0 0 0 0 0 0.1 0 0 0 0 0 0 0 0 0 0 0 0 0 0 0 0 0 0 0 0 0 0.1 0 0 0 0 0 0 0 0 0 0 0 0 0 0 0 0.1 0 0 0 0 0 0 0 0 0 0 0 0 0 0 0 0 0 0 0 0 0 0 0 0 -0.7 0.4 0 0 0 0 0.1 0 0 0 0 0 0 0 0 0 0 0 0 0 0 0 0 0 0 -0.1 0 0 0 0 0 0 0 0 0 0 0 0 0 0 0 0 0 0 0 0 0 0 0 0 0 0 0 -0.1 0 0 0 0 0 0 0 0 0 0 0 0 0 0 0 0 0 0 0 0 0 -0.1 0 0 0 0 0 0 0 0 0 0 0 0 0 0 0 -0.1 0 0 0 0 0 0 0 0 0 -0.1z"/>
       <path class="fil4" d="M93.4 87.4l0.7 -0.4 0 0.1 0 0 0 0 0 0 0 0 0 0 0 0 0 0 0 0 0 0 0 0 0 0 0 0 0 0 0 0 0 0.1 0 0 0 0 0 0 0 0 0 0 0 0 0 0 0 0.1 0 0 0 0 0 0 0 0 0 0 0 0.1 0 0 0 0 0 0 0 0 0 0 0 0 0 0 0 0 0 0 0 0 0 0.1 0 0 0 0 0 0 0 0 0 0 0 0 -0.7 0.4 0 0 0 0 0 0 0 0 0 0 0 0 0 0 0 -0.1 0 0 0 0 0 0 0 0 0 0 0 0 0 0 0 0 0 0 0 0 0 0 0 0 0 0 0 0 0 -0.1 0 0 0 0 0 0 0 0 0 0 0 0 0 0 0 0 0 0 0 0 0 0 0 -0.1 0 0 0 0 0 0 0 0 0 0 0 0 0 0 0 0 0 0 0 0 0 0 0 0 0 0 0 -0.1 0 0 0 0 0 0 0 0 0 0 0 0 0 0 0 0 0 0 0 0 0 0 0 0 0 0 0 0 0 -0.1 0 0z"/>
       <path class="fil4" d="M93.4 87.9l0.7 -0.4 0 0.1 0 0 0 0 0 0 0 0 0 0 0 0.1 0 0 0 0 0 0 0 0 -0.1 0 0 0 0 0 0 0 0 0.1 0 0 0 0 0 0 0 0 0 0 0 0 0 0 0 0 0 0 0 0 0 0 0 0.1 0 0 0 0 0 0 0 0 0 0 0 0 0 0 0 0 0 0 0 0 0 0 0 0.1 0 0 0 0 -0.7 0.4 0 -0.1 0 0 0 0 0 0 0 0 0 0 0 0 0 0 0 0 0 0 0 0 0 0 0 0 0.1 0 0 -0.1 0 0 0 0 0 0 0 0 0 0 0 0 0 0 0 0 0 0 0 0 0 0 0 -0.1 0 0 0 0 0 0 0 0 0 0 0 0 0 0 0 0 0 0 0 0 0 0 0 0 0 -0.1 0 0 0 0 0 0 0 0 0 0 0 0 0 0 0 0 0 0 0 0 0 0 0 0 0 0 0 0 0 -0.1 0 0 0 0 0 0 0 0 0 0 0 0z"/>
       <path class="fil4" d="M93.3 88.4l0.7 -0.4 0 0 0 0 0 0 0 0 0 0 0 0 0 0 0 0.1 0 0 0 0 0 0 0 0 0 0 0 0 0 0 0 0 0 0 0 0 0 0 0 0 0 0.1 0 0 0 0 0 0 0 0 0 0 0 0 0 0 0 0 0 0 0 0 0 0 0 0 0 0 0 0 0 0.1 0 0 0 0 0 0 -0.1 0 0 0 0 0 0 0 0 0 0 0 0 0 0 0 0 0.1 0 0 0 0 0 0 0 0 0 0 0 0 0 0 0 0 0 0 -0.7 0.4 0.1 0 0 0 0 -0.1 0 0 0 -0.1 0 0 0 0 0 -0.1 0 0 0 0 0 0 0 0 0 0 0 0 0 0 0 0 0 0 0 0 0 0 0 -0.1 0 0 0 0 0 0 0 0 0 0 0 0 0 0 0 0 0 0 0 0 0 0 0 0 0 0 0 0z"/>
       <path class="fil4" d="M93.2 88.8l0.7 -0.4 0 0 0 0 0 0 0 0 0 0 0 0 0 0 0 0.1 0 0 0 0 0 0 0 0 0 0 0 0 0 0 0 0 0 0 0 0 0 0 0 0 0 0 0 0 0 0.1 0 0 0 0 0 0 0 0 0 0 0 0 0 0 0 0 0 0 0 0 0 0 0 0 0 0 0 0 0 0 0 0.1 0 0 0 0 0 0 0 0 0 0 -0.1 0 0 0 0 0 0 0 0 0.1 0 0 0 0 0 0 0 0 0 0 0 0 -0.7 0.4 0 0 0.1 0 0 0 0 -0.1 0 0 0 0 0 0 0 0 0 0 0 -0.1 0 0 0 0 0 0 0 0 0 0 0 0 0 0 0 0 0 -0.1 0 0 0 0 0 0 0 -0.1 0 0 0 0 0 0z"/>
       <path class="fil4" d="M93.1 89.2l0.7 -0.4 0 0 0 0 0 0.1 0 0 0 0 0 0 0 0 0 0 0 0.1 0 0 0 0 0 0 0 0 0 0 -0.1 0 0 0 0 0 0 0 0 0.1 0 0 0 0 0 0 0 0 0 0 0 0 0 0 0 0 0 0 0 0 0 0 0 0 0 0 0 0 0 0 0 0.1 0 0 0 0 0 0 0 0 0 0 0 0 0 0 0 0 0 0 0 0 0 0 0 0 0 0.1 -0.7 0.4 0 -0.1 0 0 0 0 0 0 0 0 0 0 0 0 0 0 0 0 0 0 0 0 0 0 0 -0.1 0 0 0 0 0 0 0 0 0 0 0 0 0 0 0 0 0.1 -0.1 0 0 0 0 0 0 0 0 0 -0.1 0 0 0 0 0 0 0 0 0 -0.1 0 0 0 0 0 0z"/>
       <path class="fil4" d="M93 89.7l0.7 -0.4 0 0 -0.1 0 0 0 0 0.1 0 0 0 0 0 0 0 0.1 0 0 0 0 0 0 0 0 0 0 0 0 0 0 0 0.1 0 0 -0.1 0 0 0 0 0 0 0 0 0 0 0 0 0 0 0 0 0 0 0 0 0 0 0.1 0 0 0 0 0 0 0 0 0 0 0 0 -0.7 0.4 0 0 0 0 0 0 0 0 0 0 0 0 0 0 0 0 0 0 0 -0.1 0 0 0 0 0 0 0 0 0 0 0.1 0 0 0 0 0 0 0 0 0 0 0 0 -0.1 0 0 0 0 0 0 0 0 0 0 0 0 0 0 0 0 0 -0.1 0 0 0 0 0 0 0 0 0 0 0 0 0 0 0 0 0.1 -0.1 0 0 0 0 0 0 0 0 0 0z"/>
       <path class="fil4" d="M92.8 90.1l0.7 -0.4 0 0 0 0 0 0 -0.1 0.1 0 0 0 0 0 0c0,0.1 0,0.1 0,0.2l-0.1 0 0 0 0 0 0 0 0 0.1 0 0c0,0 -0.1,0.1 -0.1,0.2l-0.7 0.3 0 0 0 0 0 0 0 0 0 0 0 0 0 0 0.1 0 0 -0.1 0 0 0 0 0 0 0 0 0 0 0 0 0 0 0 -0.1 0 0 0 0 0 0 0 0 0.1 0 0 0 0 0 0 0 0 0 0 0 0 0 0 0 0 -0.1 0 0 0 0 0 0 0 0 0 0 0 -0.1 0 0 0 0 0.1 0 0 0 0 0 0 0 0 0 0 0 0 0 0 -0.1 0 0 0 0 0 0z"/>
       <path class="fil4" d="M92.5 90.6l0.7 -0.3 0 0 0 0 0 0 -0.1 0 0 0 0 0.1 0 0 0 0 0 0 -0.1 0.1 0 0 0 0 0 0 0 0 0 0 -0.1 0.1 0 0 0 0 0 0 0 0.1 0 0 0 0 -0.1 0 0 0 0 0 0 0 0 0.1 0 0 0 0 -0.1 0 0 0.1 0 0c0,0 -0.1,0 -0.1,0.1l0 0 -0.1 0 0 0 0 0 0 0.1 0 0 -0.1 0 0 0 0 0.1 0 0 0 0 -0.1 0 0 0 0 0 -0.1 0.1 0 0 0 0 0 0 0 0 0 0 -0.1 0.1 0 0 0 0 -0.1 0 0 0 0 0.1 0 0 0 0 0 0 -0.1 0 -0.7 0.4 0.1 0 0 0 0 -0.1 0 0 0.1 0 0 0 0 0 0 0 0 0 0.1 -0.1 0 0 0 0 0.1 0 0 0 0 0 0 -0.1 0 0 0 0 0 0 0.1 0 0 0 0 0 0 -0.1 0 0 0.1 0 0 0 0 0 0.1 -0.1 0 0 0 0 0 0 0 0c0.1,-0.1 0.1,-0.1 0.1,-0.1l0 0 0 -0.1 0.1 0 0 0 0 0 0 0 0 -0.1 0 0 0.1 0 0 0 0 0 0 0 0 0 0 -0.1 0 0 0.1 0 0 0 0 0 0 -0.1 0 0 0 0 0 0 0.1 0 0 -0.1 0 0 0 0 0 0 0 0 0 -0.1 0.1 0 0 0 0 0 0 0 0 0 0 -0.1z"/>
      </g>
      <g>
       <path class="fil4" d="M83.1 70.4c6.5,3.7 10.4,9.8 10.4,16 0,6.2 -4,7.7 -10.5,4l-6.1 -3.6 -0.1 8.7 -3.5 -2 0.1 -28.7 9.7 5.6zm-0.2 16.4l0 0c4.6,2.6 7,1.6 7,-2.5 0,-4.1 -2.4,-7.8 -6.9,-10.4l-6.1 -3.5 0 12.9 6 3.5z"/>
      </g>
     </g>
     <g>
      <g>
       <path class="fil4" d="M102.3 98.6l0.7 -0.4 -0.1 11.6 -0.6 0.4 0 -11.6z"/>
      </g>
      <g>
       <path class="fil4" d="M102.3 85.1l0.7 -0.4 0 10 -0.7 0.4 0 -10z"/>
      </g>
      <g>
       <path class="fil4" d="M102.3 95.1l0.7 -0.4 12.5 7.2 -0.7 0.4 -12.5 -7.2z"/>
      </g>
      <g>
       <path class="fil4" d="M114.8 102.3l0.7 -0.4 0 3.5 -0.7 0.4 0 -3.5z"/>
      </g>
      <g>
       <path class="fil4" d="M116.4 89.6l0.7 -0.4 0 3.6 -0.7 0.4 0 -3.6z"/>
      </g>
      <g>
       <path class="fil4" d="M98.8 79.4l0.6 -0.4 17.7 10.2 -0.7 0.4 -17.6 -10.2z"/>
      </g>
      <g>
       <path class="fil4" d="M116.4 89.6l0 3.6 -14.1 -8.1 0 10 12.5 7.2 0 3.5 -12.5 -7.2 0 11.6 -3.6 -2.1 0.1 -28.7 17.6 10.2z"/>
      </g>
     </g>
    </g>
   </g>
  </g>
 </g>
</svg>
