<?xml version="1.0" encoding="UTF-8"?>
<!DOCTYPE svg PUBLIC "-//W3C//DTD SVG 1.0//EN" "http://www.w3.org/TR/2001/REC-SVG-20010904/DTD/svg10.dtd">
<!-- Creator: CorelDRAW 2018 (64 Bit) -->
<svg xmlns="http://www.w3.org/2000/svg" xml:space="preserve" width="48px" height="48px" version="1.0" style="shape-rendering:geometricPrecision; text-rendering:geometricPrecision; image-rendering:optimizeQuality; fill-rule:evenodd; clip-rule:evenodd"
viewBox="0 0 48 48"
 xmlns:xlink="http://www.w3.org/1999/xlink">
 <defs>
  <style type="text/css">
   <![CDATA[
    .fil3 {fill:none}
    .fil2 {fill:#BACDF4}
    .fil1 {fill:#EDF1FD}
    .fil0 {fill:#FEFEFE;fill-rule:nonzero}
    .fil4 {fill:#EDF1FD;fill-rule:nonzero}
   ]]>
  </style>
 </defs>
 <g id="Camada_x0020_1">
  <metadata id="CorelCorpID_0Corel-Layer"/>
  <g id="_1580155851200">
   <path class="fil0" d="M20.62 44.99l0.27 -8.86 7.5 0 0.4 8.86 8.05 0c1.05,0 1.92,-0.91 1.92,-2.02l0 -19.34c-9.47,0 -18.94,0 -28.4,0 0,6.45 0,12.89 0,19.34 0,1.11 0.86,2.02 1.92,2.02l8.34 0z"/>
   <path class="fil1" d="M3.36 23.51l21 -20.5 10.84 10.69 -20.81 9.81 -11.03 0z"/>
   <path class="fil2" d="M7.86 23.51l20.01 -16.8 16.76 16.36 -17.48 0.44 -19.29 0z"/>
   <path class="fil3" d="M25.91 4.8l18.57 17.79c0.32,0.31 0.13,0.92 -0.28,0.92l-39.68 0c-0.42,0 -0.6,-0.61 -0.28,-0.92l18.56 -17.79c0.91,-0.87 2.21,-0.87 3.11,0z"/>
   <path class="fil4" d="M21.67 44.99l0.22 -8.36 6.07 0 0.33 8.36 6.51 0c0.86,0 1.56,-0.86 1.56,-1.91l0 -18.25c-4.49,1.72 -20,5 -21.45,20.16l6.76 0z"/>
  </g>
 </g>
</svg>
