<?xml version="1.0" encoding="UTF-8"?>
<!DOCTYPE svg PUBLIC "-//W3C//DTD SVG 1.1//EN" "http://www.w3.org/Graphics/SVG/1.1/DTD/svg11.dtd">
<!-- Creator: CorelDRAW 2018 (64 Bit) -->
<svg xmlns="http://www.w3.org/2000/svg" xml:space="preserve" width="4.064mm" height="4.064mm" version="1.1" style="shape-rendering:geometricPrecision; text-rendering:geometricPrecision; image-rendering:optimizeQuality; fill-rule:evenodd; clip-rule:evenodd"
viewBox="0 0 406.4 406.4"
 xmlns:xlink="http://www.w3.org/1999/xlink">
 <defs>
  <style type="text/css">
   <![CDATA[
    .fil2 {fill:#EDF1FD}
    .fil1 {fill:#FEFEFE;fill-rule:nonzero}
    .fil0 {fill:#A8C7E9;fill-rule:nonzero}
   ]]>
  </style>
 </defs>
 <g id="Camada_x0020_1">
  <metadata id="CorelCorpID_0Corel-Layer"/>
  <polygon class="fil0" points="368.3,370.81 262.51,370.81 262.51,134.8 368.3,169.55 "/>
  <path class="fil1" d="M243.81 370.8l-192.2 0c-3.82,0 -6.95,-4.37 -6.95,-9.73l0 -335.67 203.45 0 0 339.39c0,3.3 -1.93,6.01 -4.3,6.01z"/>
  <path class="fil2" d="M70.98 226.47c13.69,99.5 110.63,144.65 157.62,103.73l0 -251.36c-50.8,-15.34 -110.07,-11.11 -158.49,98.42l0.87 49.21z"/>
  <path class="fil0" d="M130.83 120.96l-46.21 0c-4.07,0 -7.41,-3.34 -7.41,-7.42l0 -29.92c0,-4.08 3.34,-7.42 7.41,-7.42l46.21 0c4.08,0 7.41,3.34 7.41,7.42l0 29.92c0,4.08 -3.33,7.42 -7.41,7.42z"/>
  <path class="fil0" d="M212.21 120.96l-46.21 0c-4.07,0 -7.41,-3.34 -7.41,-7.42l0 -29.92c0,-4.08 3.34,-7.42 7.41,-7.42l46.21 0c4.08,0 7.42,3.34 7.42,7.42l0 29.92c0,4.08 -3.34,7.42 -7.42,7.42z"/>
  <path class="fil1" d="M347.12 199.91l-63.43 0c-2.7,0 -4.91,-2.21 -4.91,-4.9l0 -6.48c0,-2.69 2.21,-4.9 4.91,-4.9l63.43 0c2.7,0 4.9,2.21 4.9,4.9l0 6.48c0,2.69 -2.2,4.9 -4.9,4.9z"/>
  <path class="fil0" d="M130.83 177.93l-46.21 0c-4.07,0 -7.41,-3.34 -7.41,-7.42l0 -29.92c0,-4.08 3.34,-7.42 7.41,-7.42l46.21 0c4.08,0 7.41,3.34 7.41,7.42l0 29.92c0,4.08 -3.33,7.42 -7.41,7.42z"/>
  <path class="fil0" d="M130.83 234.89l-46.21 0c-4.07,0 -7.41,-3.34 -7.41,-7.42l0 -29.92c0,-4.08 3.34,-7.42 7.41,-7.42l46.21 0c4.08,0 7.41,3.34 7.41,7.42l0 29.92c0,4.08 -3.33,7.42 -7.41,7.42z"/>
  <path class="fil0" d="M212.21 177.93l-46.21 0c-4.07,0 -7.41,-3.34 -7.41,-7.42l0 -29.92c0,-4.08 3.34,-7.42 7.41,-7.42l46.21 0c4.08,0 7.42,3.34 7.42,7.42l0 29.92c0,4.08 -3.34,7.42 -7.42,7.42z"/>
  <path class="fil0" d="M212.21 234.89l-46.21 0c-4.07,0 -7.41,-3.34 -7.41,-7.42l0 -29.92c0,-4.08 3.34,-7.42 7.41,-7.42l46.21 0c4.08,0 7.42,3.34 7.42,7.42l0 29.92c0,4.08 -3.34,7.42 -7.42,7.42z"/>
  <polygon class="fil0" points="121.97,370.81 170.8,370.81 170.8,321.98 121.97,321.98 "/>
  <path class="fil1" d="M347.12 232.46l-63.43 0c-2.7,0 -4.91,-2.21 -4.91,-4.9l0 -6.48c0,-2.69 2.21,-4.9 4.91,-4.9l63.43 0c2.7,0 4.9,2.21 4.9,4.9l0 6.48c0,2.69 -2.2,4.9 -4.9,4.9z"/>
  <path class="fil1" d="M347.12 265.01l-63.43 0c-2.7,0 -4.91,-2.2 -4.91,-4.9l0 -6.48c0,-2.69 2.21,-4.89 4.91,-4.89l63.43 0c2.7,0 4.9,2.2 4.9,4.89l0 6.48c0,2.7 -2.2,4.9 -4.9,4.9z"/>
  <path class="fil1" d="M347.12 297.56l-63.43 0c-2.7,0 -4.91,-2.2 -4.91,-4.89l0 -6.48c0,-2.7 2.21,-4.9 4.91,-4.9l63.43 0c2.7,0 4.9,2.2 4.9,4.9l0 6.48c0,2.69 -2.2,4.89 -4.9,4.89z"/>
 </g>
</svg>
