<?xml version="1.0" encoding="UTF-8"?>
<!DOCTYPE svg PUBLIC "-//W3C//DTD SVG 1.0//EN" "http://www.w3.org/TR/2001/REC-SVG-20010904/DTD/svg10.dtd">
<!-- Creator: CorelDRAW 2017 -->
<svg xmlns="http://www.w3.org/2000/svg" xml:space="preserve" width="81mm" height="30mm" version="1.0" style="shape-rendering:geometricPrecision; text-rendering:geometricPrecision; image-rendering:optimizeQuality; fill-rule:evenodd; clip-rule:evenodd"
viewBox="0 0 81000 30000"
 xmlns:xlink="http://www.w3.org/1999/xlink">
 <defs>
  <style type="text/css">
   <![CDATA[
    .fil2 {fill:#FEFEFE;fill-rule:nonzero}
    .fil0 {fill:#2C3258;fill-rule:nonzero}
    .fil1 {fill:url(#id0)}
   ]]>
  </style>
  <linearGradient id="id0" gradientUnits="userSpaceOnUse" x1="27425.7" y1="26940.6" x2="11617.4" y2="28752">
   <stop offset="0" style="stop-opacity:1; stop-color:#276E43"/>
   <stop offset="0.329412" style="stop-opacity:1; stop-color:#4E9748"/>
   <stop offset="1" style="stop-opacity:1; stop-color:#76C04E"/>
  </linearGradient>
 </defs>
 <g id="Camada_x0020_1">
  <metadata id="CorelCorpID_0Corel-Layer"/>
  <g id="_2395719782384">
   <path class="fil0" d="M6308.7 9518.7c1323.6,0 2304.4,389.5 2942.3,1168.5 637.8,779 838.1,1857.9 600.5,3236.6 -90.2,523.9 -248.4,1082.4 -474.6,1675.2l-5873.6 0c-79.3,620.5 44.8,1120.3 372.4,1499.4 327.6,379.2 898.2,489.4 1711.6,491.7 473.2,1.4 520.7,2.9 993.9,4.3 1698.6,115.9 1941.1,1149.8 1929.7,2475.2l-4921.3 1.4c-1804.8,0.4 -3031.5,-1393.8 -3365.2,-3086.3 -125,-634.1 -121.2,-1337.4 11.8,-2109.5 142.5,-827.3 391.4,-1571.9 746.7,-2233.6 355.4,-661.8 796.7,-1223.7 1324.5,-1685.6 527.6,-461.9 1130,-816.9 1806.9,-1065.1 677.1,-248.2 1408.5,-372.2 2194.4,-372.2zm-466.8 2109.5c-524,0 -956.3,168.8 -1297.2,506.7 -340.8,337.8 -562.3,803.1 -664.5,1395.9l2936.8 0c46.6,-110.2 80.6,-227.5 101.9,-351.5 76.1,-441.3 22.4,-810 -160.9,-1106.5 -183.4,-296.4 -488.7,-444.6 -916.1,-444.6z"/>
   <path class="fil0" d="M53872.7 9518.8c1323.6,0 2304.4,389.5 2942.3,1168.5 637.8,779 838.1,1857.9 600.5,3236.7 -90.2,523.9 -248.4,1082.3 -474.6,1675.1l-5873.6 0c-79.3,620.5 44.8,1120.3 372.4,1499.5 327.7,379.1 898.2,489.3 1711.6,491.7 473.2,1.3 520.7,2.8 993.9,4.2 1698.6,115.9 1941.1,1149.9 1929.7,2475.2l-4921.3 1.4c-1804.8,0.5 -3031.5,-1393.8 -3365.2,-3086.3 -125,-634.1 -121.2,-1337.4 11.9,-2109.5 142.5,-827.3 391.3,-1571.8 746.6,-2233.6 355.4,-661.8 796.7,-1223.6 1324.5,-1685.6 527.6,-461.8 1130,-816.8 1806.9,-1065.1 677.1,-248.1 1408.5,-372.2 2194.4,-372.2zm-466.8 2109.5c-524,0 -956.3,168.9 -1297.2,506.7 -340.8,337.8 -562.3,803.2 -664.5,1396l2936.8 0c46.6,-110.3 80.6,-227.5 101.9,-351.6 76.1,-441.2 22.4,-810 -160.9,-1106.5 -183.4,-296.4 -488.7,-444.6 -916.1,-444.6z"/>
   <path class="fil0" d="M44714.6 16762c-45,261.9 -24.9,465.3 60.3,610.2 85.5,144.6 286.8,217.2 603.9,217.2 192.9,0 598.2,-65.5 881,-106.8l-455.8 2319.6c-289.9,82.8 -614.8,148.3 -974.6,196.4 -360.1,48.4 -726,72.5 -1098.2,72.5 -551.6,0 -999.3,-82.8 -1343,-248.1 -343.7,-165.7 -602.4,-386.2 -775.3,-662 -173.2,-275.8 -277.8,-589.4 -313.7,-940.9 -35.9,-351.5 -22,-713.6 42.3,-1085.8 574.7,-3336.5 1149.5,-6673 1724.3,-10009.5 476.3,-1480.5 1794.9,-1974.1 3629.8,-1861.8l-1981 11499z"/>
   <path class="fil0" d="M57122.8 20071.2l1907.7 -10308.8 3239.9 0 -249.2 1346.4c426.4,-561 917.7,-960.7 1473.7,-1199.1 556,-238.5 1121.6,-357.7 1696.7,-357.7 687.2,0 1242.7,143.8 1666.4,431.3 423.6,287.5 742.1,669.7 955.4,1146.6 213.3,476.9 328.8,1027.4 346.6,1651.5 17.7,624.1 -36.9,1279.8 -164.1,1967.1l-985 5322.7 -3366.2 0 996.7 -5385.8c158.3,-855.6 141.2,-1483.2 -51.3,-1883 -192.5,-399.7 -562.3,-599.6 -1109.2,-599.6 -350.7,0 -670,77.2 -958.1,231.5 -288,154.2 -529.9,343.6 -725.8,568l-1308.1 7068.9 -3366.1 0z"/>
   <path class="fil0" d="M78351.4 19864.2l-3164.6 0 220.9 -1282.1c-395.5,454.8 -867.9,816.8 -1417.5,1085.7 -549.4,268.7 -1176,403.3 -1879.2,403.3 -565.2,0 -1075.3,-120.6 -1530.1,-362 -454.8,-241.3 -826.4,-586 -1114.6,-1034 -288,-448.2 -481,-989.3 -578.4,-1623.6 -97.5,-634.2 -78.7,-1344.2 56.9,-2130.1 151.9,-882.5 427.2,-1661.5 826.3,-2337.1 398.9,-675.7 875.7,-1240.9 1429.7,-1695.8 554.1,-455 1167.7,-796.3 1841.4,-1023.7 673.2,-227.6 1368.6,-341.5 2085.5,-341.5 358.6,0 671.3,24.2 938.8,72.6 267.4,48.1 505.6,106.7 714.2,175.8 151.9,-881.3 303.6,-1762.6 455.6,-2643.9 504.4,-1642.7 1985.9,-1871.6 3630.3,-1864.8l-2515.2 14601.2zm-4602.6 -2336.9c703.3,0 1308.8,-234.5 1817.1,-703.2l801.5 -4653.4c-284.3,-110.4 -667.8,-165.4 -1150.3,-165.4 -827.3,0 -1488.3,255.1 -1982.7,765.1 -494.7,510.3 -818.1,1206.4 -970.2,2089 -135.4,785.8 -90.7,1427 134.1,1923.4 224.7,496.3 674.9,744.5 1350.5,744.5z"/>
   <path class="fil0" d="M38597.2 23552.2c0,88.5 -19.1,167.7 -57.1,237.6 -38.1,69.9 -89.5,129.6 -154.3,179 -64.8,49.3 -140.9,87.4 -228.3,114.1 -87.4,26.8 -181.5,40.1 -282.3,40.1 -98.8,0 -200.1,-10.3 -304,-30.8 -103.8,-20.6 -199,-51.5 -285.4,-92.6l55.6 -225.2c76.1,34.9 159.9,63.7 251.4,86.4 91.6,22.6 183.6,33.9 276.2,33.9 133.7,0 241.7,-28.3 324,-84.9 82.3,-56.5 123.4,-138.3 123.4,-245.2 0,-59.7 -11.8,-110.6 -35.5,-152.8 -23.6,-42.2 -56,-80.2 -97.2,-114.1 -41.1,-34 -89,-64.3 -143.5,-91.1 -54.5,-26.7 -112.6,-54.5 -174.3,-83.3 -69.9,-32.9 -137.3,-67.3 -202.1,-103.3 -64.8,-36 -121.9,-77.2 -171.2,-123.5 -49.4,-46.2 -89,-98.7 -118.8,-157.3 -29.9,-58.6 -44.8,-127 -44.8,-205.2 0,-88.5 16,-166.6 47.9,-234.5 31.8,-67.9 76.6,-124.5 134.2,-169.7 57.6,-45.3 126.5,-79.2 206.7,-101.8 80.2,-22.7 168.7,-34 265.4,-34 98.7,0 194.9,11.3 288.5,34 93.5,22.6 175.3,52.4 245.2,89.5l-52.4 225.2c-65.8,-35 -140.9,-63.8 -225.2,-86.4 -84.4,-22.6 -169.7,-33.9 -256.1,-33.9 -248.9,0 -373.4,96.6 -373.4,290 0,43.2 6.2,80.7 18.5,112.6 12.4,31.9 32.4,61.7 60.2,89.5 27.8,27.8 64.8,54.5 111.1,80.2 46.3,25.7 102.3,55 168.1,88 65.9,32.9 135.8,68.4 209.8,106.4 74.1,38.1 142,83.3 203.7,135.8 61.7,52.4 113.1,113.6 154.3,183.6 41.1,69.9 61.7,151.1 61.7,243.7zm1588.5 570.8c-160.4,0 -303.4,-28.8 -428.8,-86.4 -125.5,-57.6 -230.4,-134.7 -314.8,-231.4 -84.3,-96.7 -148.6,-209.8 -192.8,-339.4 -44.2,-129.6 -66.4,-265.3 -66.4,-407.3 0,-141.9 22.2,-277.7 66.4,-407.3 44.2,-129.5 108.5,-242.7 192.8,-339.4 84.4,-96.6 189.3,-173.8 314.8,-231.4 125.4,-57.6 268.4,-86.4 428.8,-86.4 160.5,0 303.4,28.8 428.9,86.4 125.5,57.6 230.4,134.8 314.7,231.4 84.4,96.7 148.7,209.9 192.9,339.4 44.2,129.6 66.3,265.4 66.3,407.3 0,142 -22.1,277.7 -66.3,407.3 -44.2,129.6 -108.5,242.7 -192.9,339.4 -84.3,96.7 -189.2,173.8 -314.7,231.4 -125.5,57.6 -268.4,86.4 -428.9,86.4zm0 -228.3c117.3,0 221.2,-21.6 311.7,-64.8 90.5,-43.2 165.6,-102.8 225.2,-179 59.7,-76.1 104.9,-165 135.8,-266.9 30.8,-101.8 46.3,-210.3 46.3,-325.5 0,-115.2 -15.5,-223.7 -46.3,-325.5 -30.9,-101.8 -76.1,-190.3 -135.8,-265.3 -59.6,-75.1 -134.7,-134.8 -225.2,-179 -90.5,-44.2 -194.4,-66.3 -311.7,-66.3 -117.2,0 -221.1,22.1 -311.6,66.3 -90.5,44.2 -165.6,103.9 -225.2,179 -59.7,75 -104.9,163.5 -135.8,265.3 -30.9,101.8 -46.3,210.3 -46.3,325.5 0,115.2 15.4,223.7 46.3,325.5 30.9,101.9 76.1,190.8 135.8,266.9 59.6,76.2 134.7,135.8 225.2,179 90.5,43.2 194.4,64.8 311.6,64.8zm2005.2 -1863.6l0 1823.5 857.8 0 0 231.4 -1141.7 0 0 -2054.9 283.9 0zm2742.6 0l283.8 0 0 1326.7c0,107 -17.5,207.3 -52.4,300.9 -35,93.6 -86.4,174.8 -154.3,243.7 -67.9,68.9 -151.7,122.9 -251.5,162 -99.7,39.1 -215.4,58.6 -347.1,58.6 -131.6,0 -247.3,-19.5 -347.1,-58.6 -99.8,-39.1 -183.6,-93.1 -251.5,-162 -67.9,-68.9 -119.3,-150.1 -154.2,-243.7 -35,-93.6 -52.5,-193.9 -52.5,-300.9l0 -1326.7 283.9 0 0 1339.1c0,154.2 43.7,279.7 131.1,376.4 87.4,96.7 217.5,145 390.3,145 172.8,0 302.9,-48.3 390.3,-145 87.5,-96.7 131.2,-222.2 131.2,-376.4l0 -1339.1zm2251.9 2422.1c0,47.3 -11.3,87.9 -33.9,121.9 -22.7,33.9 -53.5,62.7 -92.6,86.3 -39.1,23.7 -85.9,42.7 -140.4,57.1 -54.5,14.4 -113.6,25.7 -177.4,34l-40.1 -166.6c26.7,-4.2 54,-9.3 81.8,-15.5 27.7,-6.1 52.9,-14.4 75.6,-24.7 22.6,-10.2 41.6,-22.6 57,-37 15.5,-14.4 23.2,-31.9 23.2,-52.4 0,-20.6 -7.2,-38.1 -21.6,-52.5 -14.4,-14.4 -32.9,-26.2 -55.6,-35.5 -22.6,-9.2 -48.3,-16.9 -77.1,-23.1 -28.8,-6.2 -57.6,-12.4 -86.4,-18.5l89.5 -219.1c-139.9,-18.5 -263.8,-58.1 -371.8,-118.8 -108,-60.7 -199,-136.8 -273.1,-228.3 -74,-91.6 -130.1,-197 -168.1,-316.3 -38.1,-119.3 -57.1,-247.9 -57.1,-385.7 0,-154.2 24.1,-296.2 72.5,-425.8 48.3,-129.6 117.7,-241.7 208.3,-336.3 90.5,-94.6 202.1,-168.7 334.7,-222.1 132.7,-53.5 283.4,-80.3 452.1,-80.3 92.5,0 189.2,8.8 290,26.3 100.8,17.4 185.1,40.6 253,69.4l-46.3 219.1c-69.9,-24.7 -145,-44.8 -225.2,-60.2 -80.2,-15.4 -159.4,-23.2 -237.6,-23.2 -257.1,0 -457.7,72 -601.7,216 -144,144 -216,349.7 -216,617.1 0,267.4 72,473.1 216,617.1 144,144 344.6,216 601.7,216 78.2,0 157.4,-7.7 237.6,-23.1 80.2,-15.5 155.3,-35.5 225.2,-60.2l46.3 219.1c-67.9,28.8 -152.2,51.9 -253,69.4 -100.8,17.5 -197.5,26.2 -290,26.2l-27.8 0 -34 98.8c28.8,6.1 58.7,14.9 89.5,26.2 30.9,11.3 59.2,25.7 84.9,43.2 25.7,17.5 46.8,39.6 63.2,66.3 16.5,26.8 24.7,58.6 24.7,95.7zm1903.3 -330.2c-160.4,0 -303.4,-28.8 -428.8,-86.4 -125.5,-57.6 -230.4,-134.7 -314.8,-231.4 -84.3,-96.7 -148.6,-209.8 -192.8,-339.4 -44.2,-129.6 -66.4,-265.3 -66.4,-407.3 0,-141.9 22.2,-277.7 66.4,-407.3 44.2,-129.5 108.5,-242.7 192.8,-339.4 84.4,-96.6 189.3,-173.8 314.8,-231.4 125.4,-57.6 268.4,-86.4 428.8,-86.4 160.5,0 303.4,28.8 428.9,86.4 125.5,57.6 230.4,134.8 314.7,231.4 84.4,96.7 148.7,209.9 192.9,339.4 44.2,129.6 66.3,265.4 66.3,407.3 0,142 -22.1,277.7 -66.3,407.3 -44.2,129.6 -108.5,242.7 -192.9,339.4 -84.3,96.7 -189.2,173.8 -314.7,231.4 -125.5,57.6 -268.4,86.4 -428.9,86.4zm0 -228.3c117.3,0 221.2,-21.6 311.7,-64.8 90.5,-43.2 165.6,-102.8 225.2,-179 59.7,-76.1 104.9,-165 135.8,-266.9 30.8,-101.8 46.3,-210.3 46.3,-325.5 0,-115.2 -15.5,-223.7 -46.3,-325.5 -30.9,-101.8 -76.1,-190.3 -135.8,-265.3 -59.6,-75.1 -134.7,-134.8 -225.2,-179 -90.5,-44.2 -194.4,-66.3 -311.7,-66.3 -117.2,0 -221.1,22.1 -311.6,66.3 -90.5,44.2 -165.6,103.9 -225.2,179 -59.7,75 -104.9,163.5 -135.8,265.3 -30.9,101.8 -46.3,210.3 -46.3,325.5 0,115.2 15.4,223.7 46.3,325.5 30.9,101.9 76.1,190.8 135.8,266.9 59.6,76.2 134.7,135.8 225.2,179 90.5,43.2 194.4,64.8 311.6,64.8zm240.7 -2073.5c-39.1,0 -80.2,-7.7 -123.4,-23.1 -43.2,-15.4 -87.4,-31.4 -132.7,-47.8 -47.3,-16.5 -87.9,-29.9 -121.9,-40.1 -33.9,-10.3 -65.3,-15.5 -94.1,-15.5 -39.1,0 -66.8,12.9 -83.3,38.6 -16.4,25.7 -32.9,59.1 -49.4,100.3l-169.7 -58.6c26.8,-104.9 62.8,-179.5 108,-223.7 45.3,-44.3 111.1,-66.4 197.5,-66.4 49.4,0 96.7,6.7 141.9,20.1 45.3,13.3 86.4,27.2 123.5,41.6 41.1,16.5 78.6,31.4 112.6,44.8 33.9,13.3 64.3,20 91,20 35,0 60.7,-11.3 77.1,-33.9 16.5,-22.6 33,-53.5 49.4,-92.6l166.6 74.1c-32.9,90.5 -70.4,156.8 -112.6,199 -42.2,42.2 -102.3,63.2 -180.5,63.2zm1480.6 209.9l1144.8 0 0 231.4 -860.9 0 0 657.2 823.8 0 0 231.4 -823.8 0 0 703.5 870.1 0 0 231.4 -1154 0 0 -2054.9zm3091.3 1521.1c0,88.5 -19.1,167.7 -57.1,237.6 -38.1,69.9 -89.5,129.6 -154.3,179 -64.8,49.3 -140.9,87.4 -228.3,114.1 -87.4,26.8 -181.5,40.1 -282.3,40.1 -98.8,0 -200.1,-10.3 -304,-30.8 -103.8,-20.6 -199,-51.5 -285.4,-92.6l55.6 -225.2c76.1,34.9 159.9,63.7 251.4,86.4 91.6,22.6 183.6,33.9 276.2,33.9 133.7,0 241.7,-28.3 324,-84.9 82.3,-56.5 123.4,-138.3 123.4,-245.2 0,-59.7 -11.8,-110.6 -35.5,-152.8 -23.6,-42.2 -56,-80.2 -97.2,-114.1 -41.1,-34 -89,-64.3 -143.5,-91.1 -54.5,-26.7 -112.6,-54.5 -174.3,-83.3 -69.9,-32.9 -137.3,-67.3 -202.1,-103.3 -64.8,-36 -121.9,-77.2 -171.2,-123.5 -49.4,-46.2 -89,-98.7 -118.8,-157.3 -29.9,-58.6 -44.8,-127 -44.8,-205.2 0,-88.5 16,-166.6 47.9,-234.5 31.8,-67.9 76.6,-124.5 134.2,-169.7 57.6,-45.3 126.5,-79.2 206.7,-101.8 80.2,-22.7 168.7,-34 265.4,-34 98.7,0 194.9,11.3 288.5,34 93.5,22.6 175.3,52.4 245.2,89.5l-52.4 225.2c-65.8,-35 -140.9,-63.8 -225.2,-86.4 -84.4,-22.6 -169.7,-33.9 -256.1,-33.9 -248.9,0 -373.4,96.6 -373.4,290 0,43.2 6.2,80.7 18.5,112.6 12.4,31.9 32.4,61.7 60.2,89.5 27.8,27.8 64.8,54.5 111.1,80.2 46.3,25.7 102.3,55 168.1,88 65.9,32.9 135.8,68.4 209.8,106.4 74.1,38.1 142,83.3 203.7,135.8 61.7,52.4 113.1,113.6 154.3,183.6 41.1,69.9 61.7,151.1 61.7,243.7zm1357.1 -1521.1l1144.8 0 0 231.4 -860.9 0 0 657.2 823.8 0 0 231.4 -823.8 0 0 703.5 870.1 0 0 231.4 -1154 0 0 -2054.9zm3668.3 0l256.1 0 148.1 2054.9 -271.6 0 -98.7 -1601.4 -592.4 1231.1 -290.1 0 -592.4 -1231.1 -98.7 1601.4 -271.5 0 148.1 -2054.9 256.1 0 703.5 1453.2 703.5 -1453.2zm2464.8 601.6c0,98.8 -21.6,187.7 -64.8,266.9 -43.2,79.2 -103.4,146.6 -180.5,202.1 -77.1,55.6 -168.1,98.2 -273.1,128.1 -104.9,29.8 -218,44.7 -339.4,44.7l-141.9 0 0 811.5 -283.9 0 0 -2054.9 496.8 0c111.1,0 214.4,12.3 310.1,37 95.6,24.7 179,62.2 249.9,112.6 71,50.4 126.5,113.1 166.6,188.2 40.2,75.1 60.2,163 60.2,263.8zm-283.9 -3.1c0,-67.8 -13.3,-124.9 -40.1,-171.2 -26.7,-46.3 -63.2,-84.3 -109.5,-114.2 -46.3,-29.8 -100.8,-51.4 -163.5,-64.8 -62.8,-13.3 -129.1,-20 -199.1,-20l-203.6 0 0 786.8 151.2 0c82.3,0 157.9,-9.3 226.8,-27.8 68.9,-18.5 128.5,-45.8 178.9,-81.7 50.4,-36 89.5,-79.8 117.3,-131.2 27.8,-51.4 41.6,-110 41.6,-175.9zm1184.4 1456.4l-283.9 0 0 -2054.9 533.8 0c111.1,0 214.5,12.3 310.1,37 95.7,24.7 179.5,61.2 251.5,109.5 72,48.4 128.6,109 169.7,182.1 41.1,73 61.7,156.8 61.7,251.4 0,142 -45.8,265.4 -137.3,370.3 -91.5,104.9 -219.6,181 -384.1,228.3l725 876.3 -348.6 0 -669.6 -826.9c-10.3,0 -25.7,0.5 -46.2,1.5 -20.6,1.1 -42.2,1.6 -64.8,1.6 -22.7,0 -44.8,0 -66.4,0 -21.6,0 -38.6,0 -50.9,0l0 823.8zm759 -1468.7c0,-63.8 -13.8,-118.8 -41.6,-165.1 -27.8,-46.3 -65.3,-83.3 -112.6,-111.1 -47.3,-27.7 -101.9,-48.3 -163.6,-61.7 -61.7,-13.3 -126.5,-20 -194.4,-20l-246.8 0 0 774.4 141.9 0c86.4,0 167.2,-8.2 242.3,-24.6 75,-16.5 140.3,-41.7 195.9,-75.6 55.5,-34 99.2,-77.2 131.1,-129.6 31.9,-52.5 47.8,-114.7 47.8,-186.7zm1091.8 -586.2l1144.8 0 0 231.4 -860.9 0 0 657.2 823.8 0 0 231.4 -823.8 0 0 703.5 870.1 0 0 231.4 -1154 0 0 -2054.9zm3091.3 1521.1c0,88.5 -19.1,167.7 -57.1,237.6 -38.1,69.9 -89.5,129.6 -154.3,179 -64.8,49.3 -140.9,87.4 -228.3,114.1 -87.4,26.8 -181.5,40.1 -282.3,40.1 -98.8,0 -200.1,-10.3 -304,-30.8 -103.8,-20.6 -199,-51.5 -285.4,-92.6l55.6 -225.2c76.1,34.9 159.9,63.7 251.4,86.4 91.6,22.6 183.6,33.9 276.2,33.9 133.7,0 241.7,-28.3 324,-84.9 82.3,-56.5 123.4,-138.3 123.4,-245.2 0,-59.7 -11.8,-110.6 -35.5,-152.8 -23.6,-42.2 -56,-80.2 -97.2,-114.1 -41.1,-34 -89,-64.3 -143.5,-91.1 -54.5,-26.7 -112.6,-54.5 -174.3,-83.3 -69.9,-32.9 -137.3,-67.3 -202.1,-103.3 -64.8,-36 -121.9,-77.2 -171.2,-123.5 -49.4,-46.2 -89,-98.7 -118.8,-157.3 -29.9,-58.6 -44.8,-127 -44.8,-205.2 0,-88.5 16,-166.6 47.9,-234.5 31.8,-67.9 76.6,-124.5 134.2,-169.7 57.6,-45.3 126.5,-79.2 206.7,-101.8 80.2,-22.7 168.7,-34 265.4,-34 98.7,0 194.9,11.3 288.5,34 93.5,22.6 175.3,52.4 245.2,89.5l-52.4 225.2c-65.8,-35 -140.9,-63.8 -225.2,-86.4 -84.4,-22.6 -169.7,-33.9 -256.1,-33.9 -248.9,0 -373.4,96.6 -373.4,290 0,43.2 6.2,80.7 18.5,112.6 12.4,31.9 32.4,61.7 60.2,89.5 27.8,27.8 64.8,54.5 111.1,80.2 46.3,25.7 102.3,55 168.1,88 65.9,32.9 135.8,68.4 209.8,106.4 74.1,38.1 142,83.3 203.7,135.8 61.7,52.4 113.1,113.6 154.3,183.6 41.1,69.9 61.7,151.1 61.7,243.7zm2437.1 533.8l-290 0 -188.2 -496.8 -959.6 0 -185.2 496.8 -290 0 817.7 -2054.9 277.6 0 817.7 2054.9zm-1351.4 -725.1l789.8 0 -394.9 -1070.7 -394.9 1070.7zm2301.3 725.1l-283.9 0 0 -2054.9 533.8 0c111.1,0 214.5,12.3 310.1,37 95.7,24.7 179.5,61.2 251.5,109.5 72,48.4 128.6,109 169.7,182.1 41.1,73 61.7,156.8 61.7,251.4 0,142 -45.8,265.4 -137.3,370.3 -91.5,104.9 -219.6,181 -384.1,228.3l725 876.3 -348.6 0 -669.6 -826.9c-10.3,0 -25.7,0.5 -46.2,1.5 -20.6,1.1 -42.2,1.6 -64.8,1.6 -22.7,0 -44.8,0 -66.4,0 -21.6,0 -38.6,0 -50.9,0l0 823.8zm759 -1468.7c0,-63.8 -13.8,-118.8 -41.6,-165.1 -27.8,-46.3 -65.3,-83.3 -112.6,-111.1 -47.3,-27.7 -101.9,-48.3 -163.6,-61.7 -61.7,-13.3 -126.5,-20 -194.4,-20l-246.8 0 0 774.4 141.9 0c86.4,0 167.2,-8.2 242.3,-24.6 75,-16.5 140.3,-41.7 195.9,-75.6 55.5,-34 99.2,-77.2 131.1,-129.6 31.9,-52.5 47.8,-114.7 47.8,-186.7zm1391.1 1468.7l-283.8 0 0 -2054.9 283.8 0 0 2054.9zm2594.5 0l-290 0 -188.2 -496.8 -959.6 0 -185.2 496.8 -290 0 817.7 -2054.9 277.6 0 817.7 2054.9zm-1351.4 -725.1l789.8 0 -394.9 -1070.7 -394.9 1070.7zm2316.7 725.1l-283.8 0 0 -2054.9 283.8 0 0 2054.9zm2026.8 -533.8c0,88.5 -19.1,167.7 -57.1,237.6 -38.1,69.9 -89.5,129.6 -154.3,179 -64.8,49.3 -140.9,87.4 -228.3,114.1 -87.4,26.8 -181.5,40.1 -282.3,40.1 -98.8,0 -200.1,-10.3 -304,-30.8 -103.8,-20.6 -199,-51.5 -285.4,-92.6l55.6 -225.2c76.1,34.9 159.9,63.7 251.4,86.4 91.6,22.6 183.6,33.9 276.2,33.9 133.7,0 241.7,-28.3 324,-84.9 82.3,-56.5 123.4,-138.3 123.4,-245.2 0,-59.7 -11.8,-110.6 -35.5,-152.8 -23.6,-42.2 -56,-80.2 -97.2,-114.1 -41.1,-34 -89,-64.3 -143.5,-91.1 -54.5,-26.7 -112.6,-54.5 -174.3,-83.3 -69.9,-32.9 -137.3,-67.3 -202.1,-103.3 -64.8,-36 -121.9,-77.2 -171.2,-123.5 -49.4,-46.2 -89,-98.7 -118.8,-157.3 -29.9,-58.6 -44.8,-127 -44.8,-205.2 0,-88.5 16,-166.6 47.9,-234.5 31.8,-67.9 76.6,-124.5 134.2,-169.7 57.6,-45.3 126.5,-79.2 206.7,-101.8 80.2,-22.7 168.7,-34 265.4,-34 98.7,0 194.9,11.3 288.5,34 93.5,22.6 175.3,52.4 245.2,89.5l-52.4 225.2c-65.8,-35 -140.9,-63.8 -225.2,-86.4 -84.4,-22.6 -169.7,-33.9 -256.1,-33.9 -248.9,0 -373.4,96.6 -373.4,290 0,43.2 6.2,80.7 18.5,112.6 12.4,31.9 32.4,61.7 60.2,89.5 27.8,27.8 64.8,54.5 111.1,80.2 46.3,25.7 102.3,55 168.1,88 65.9,32.9 135.8,68.4 209.8,106.4 74.1,38.1 142,83.3 203.7,135.8 61.7,52.4 113.1,113.6 154.3,183.6 41.1,69.9 61.7,151.1 61.7,243.7z"/>
   <path class="fil0" d="M76746.4 19101.6l-121.8 0 162.5 -881.5 229 0c47.6,0 91,5.2 130.1,15.9 39.1,10.6 72.2,26.2 99.2,47 27.1,20.7 46.5,46.7 58.4,78 11.9,31.4 14.1,67.4 6.6,107.9 -11.2,60.9 -40.7,113.8 -88.2,158.9 -47.5,44.9 -108.5,77.5 -182.8,97.9l241.7 375.9 -149.5 0 -221.9 -354.8c-4.4,0 -11,0.3 -19.9,0.7 -8.9,0.4 -18.2,0.7 -28,0.7 -9.6,0 -19.1,0 -28.4,0 -9.3,0 -16.5,0 -21.8,0l-65.2 353.4zm402.8 -1132.5c95.7,0 183.7,19.2 260.9,53.7 80.1,35.9 148.5,88.6 201.7,153.8 53.2,65.2 91.5,143.3 111.4,229.9 19.2,83.5 21.5,175.3 3.9,270.9 -17.7,95.7 -53.8,187.3 -103.6,270.8 -51.9,86.7 -119.1,164.9 -196.3,230.1 -77.2,65.2 -165.1,117.9 -258.3,153.8 -90,34.5 -185.1,53.7 -280.7,53.7 -95.7,0 -183.7,-19.2 -260.8,-53.7 -80.1,-35.9 -148.5,-88.6 -201.7,-153.8 -104.6,-128.2 -151.4,-305.5 -115.4,-500.9 17.7,-95.6 53.8,-187.3 103.7,-270.7 51.8,-86.7 119,-165 196.2,-230.1 77.1,-65.2 165.1,-117.9 258.4,-153.8 89.8,-34.5 184.9,-53.7 280.6,-53.7zm358.3 295.5c-43.9,-53.8 -100.3,-97.3 -166.1,-126.7 -63.4,-28.4 -135.9,-44.2 -215.1,-44.2 -79.3,0 -157.7,15.8 -231.5,44.2 -76.7,29.5 -149.1,73 -212.8,126.8 -63.8,53.9 -119.2,118.3 -161.7,189.4 -41,68.6 -70.7,144 -85.3,223.3 -14.6,79.3 -12.8,154.8 2.9,223.4 16.4,71.2 48,135.6 91.9,189.4 43.8,53.8 100.2,97.3 166.1,126.8 63.3,28.3 136,44.1 215.2,44.1 79.3,0 157.6,-15.8 231.4,-44.1 76.7,-29.5 149.2,-73.1 212.9,-126.9 124.9,-105.5 217.3,-251.5 247,-412.7 14.6,-79.3 12.7,-154.7 -3,-223.3 -16.3,-71.3 -48,-135.7 -91.9,-189.5zm-319.4 206.9c5,-27.3 3.5,-50.9 -4.8,-70.8 -8.3,-19.8 -21.4,-35.7 -39.5,-47.6 -18.1,-11.9 -39.9,-20.8 -65.3,-26.5 -25.4,-5.7 -52.7,-8.6 -81.8,-8.6l-105.9 0 -61.2 332.2 60.9 0c37.1,0 72.3,-3.5 105.8,-10.6 33.5,-7 63.5,-17.8 90.1,-32.4 26.5,-14.5 48.6,-33.1 66.5,-55.6 17.7,-22.4 29.5,-49.2 35.2,-80.1z"/>
   <path class="fil1" d="M30001.3 7914.7c-19.3,-3.1 -40.1,-5 -61.9,-5l-4424.9 0c-107.9,0 -214,44.6 -297.7,116 -84.1,71.7 -145.4,170.5 -163.7,278.7 -3.6,21.6 -5.6,43.7 -5.6,65 0,79.4 26,150.1 70.7,204 44.6,53.5 109,91.1 185.8,104.2 19.3,3.3 40.1,5 61.8,5l4424.9 0c107.9,0 214,-44.6 297.8,-116 84,-71.7 145.3,-170.5 163.7,-278.7 3.6,-21.8 5.5,-43.7 5.5,-65 0,-79.4 -26.1,-150.3 -70.7,-204 -44.6,-53.5 -109,-91.1 -185.7,-104.2zm-18989.8 9210c-18.2,-3.1 -37.6,-4.8 -57.7,-4.8l-895.3 0c-100.5,0 -199.5,41.6 -277.3,108.1 -78.2,66.8 -135.6,159 -152.7,259.8 -3.3,20.2 -5.2,40.4 -5.2,60.3 0,73.6 24,139.4 65.7,189.3 41.4,50 101.3,84.8 172.4,96.9 18.1,3 37.3,4.7 57.5,4.7l895.3 0c100.5,0 199.4,-41.6 277.3,-108.1 78.2,-66.8 135.6,-158.8 152.6,-259.6 3.3,-20.1 5.1,-40.7 5.1,-60.6 0,-73.8 -24,-139.6 -65.5,-189.3 -41.4,-49.9 -101.2,-84.7 -172.2,-96.7zm2730.4 -2637.8l-1090.9 0c-107.9,0 -214.1,44.6 -297.7,116.1 -84,71.7 -145.3,170.5 -163.7,278.8 -3.5,21.4 -5.4,43.3 -5.4,64.5 -0.1,79 25.9,150.1 70.8,203.9 44.9,53.9 109.4,91.6 185.9,104.5 19.4,3.3 40,5 61.5,5l1090.9 0c107.6,0 213.7,-44.7 297.6,-116.3 84,-71.8 145.6,-170.7 163.8,-278.5 3.6,-21.3 5.4,-43.2 5.4,-64.6 0,-79.2 -26,-150.1 -70.8,-203.9 -44.8,-53.9 -109.3,-91.5 -185.9,-104.5 -19.1,-3.2 -40,-5 -61.5,-5zm2239.9 -450.8l-1090.9 0c-107.9,0 -214.1,44.6 -297.8,116.1 -83.7,71.8 -145.3,170.6 -163.7,278.7 -3.5,21.7 -5.5,43.6 -5.5,64.9 0,79.3 26,150.2 70.8,204 44.6,53.5 109,91.1 185.8,104.2 19.4,3.3 39.9,5 61.7,5l1090.9 0c107.9,0 214.1,-44.6 297.7,-116.1 83.8,-71.7 145.4,-170.5 163.7,-278.7 3.7,-21.8 5.6,-43.7 5.6,-64.9 0,-79.4 -26,-150.3 -70.9,-203.9 -44.6,-53.6 -109.1,-91.2 -185.7,-104.2 -19.1,-3.2 -40.1,-5.1 -61.7,-5.1zm-4911.6 1522.3l-403.9 0c-108,0 -214.2,44.6 -297.8,116.1 -84.1,71.7 -145.4,170.4 -163.7,278.7 -3.6,21.4 -5.4,43.1 -5.4,64.5 0,79.1 26.1,150.2 70.9,204.1 44.9,53.8 109.4,91.5 185.9,104.4 19.4,3.3 40,5 61.5,5l403.9 0c107.6,0 213.9,-44.5 297.7,-116.3 84,-71.8 145.6,-170.6 163.8,-278.5 3.6,-21.3 5.4,-43.2 5.4,-64.6 0,-79.2 -26,-150.1 -70.8,-203.9 -44.9,-53.7 -109.4,-91.5 -186,-104.5 -19.1,-3.2 -40,-5 -61.5,-5zm1130.9 7760.5c-18.1,-2.9 -37.3,-4.6 -57.5,-4.6l-895.3 0c-100.4,0 -199.3,41.5 -277.3,108.1 -78.2,66.8 -135.6,158.9 -152.6,259.6 -3.3,20.2 -5.1,40.7 -5.1,60.7 0,73.6 24,139.4 65.5,189.2 41.3,49.6 101.1,84.5 172.3,96.7 17.9,3 37.5,4.7 57.6,4.7l895.3 0c100.5,0 199.5,-41.5 277.3,-108 78.2,-66.9 135.6,-159.1 152.7,-259.9 3.3,-20.2 5.2,-40.5 5.2,-60.3 0,-73.6 -24,-139.4 -65.7,-189.3 -41.4,-49.9 -101.3,-84.8 -172.4,-96.9zm-1704 -1596.2c-18.1,-2.9 -37.3,-4.7 -57.5,-4.7l-895.3 0c-100.5,0 -199.4,41.6 -277.3,108.1 -78.2,66.8 -135.6,158.8 -152.6,259.6 -3.3,20.2 -5.1,40.5 -5.1,60.5 0,73.6 24.1,139.6 65.7,189.4 41.5,49.8 101.4,84.9 172.4,96.9 17.9,2.9 37.3,4.6 57.5,4.6l895.2 0c100.4,0 199.4,-41.6 277.3,-108.2 78.1,-66.6 135.5,-158.9 152.6,-259.7 3.3,-20.2 5.2,-40.5 5.2,-60.3 0,-73.6 -24,-139.4 -65.7,-189.3 -41.4,-50 -101.3,-84.8 -172.4,-96.9zm3916.9 -1529.8c-18.1,-2.9 -37.3,-4.6 -57.5,-4.6l-895.3 0c-100.5,0 -199.4,41.5 -277.2,108 -78.4,66.8 -135.6,159.1 -152.8,259.7 -3.3,20.2 -5.1,40.4 -5.1,60.5 0,73.6 24.1,139.5 65.6,189.4 41.6,49.7 101.5,84.8 172.5,96.8 17.9,2.9 37.3,4.6 57.5,4.6l895.2 0c100.6,0 199.5,-41.5 277.3,-108 78.2,-66.9 135.6,-159.1 152.8,-259.9 3.3,-20.2 5.1,-40.5 5.1,-60.3 0,-73.6 -24,-139.4 -65.7,-189.3 -41.4,-49.9 -101.3,-84.8 -172.4,-96.9zm-698.3 -1455c-18,-2.9 -37.2,-4.6 -57.4,-4.6l-895.1 0c-100.6,0 -199.4,41.4 -277.4,108.2 -78.3,66.9 -135.6,159.1 -152.7,259.6 -3.3,20 -5.1,40.5 -5.1,60.4 0,73.7 24.1,139.4 65.7,189.3 41.5,49.8 101.4,84.8 172.5,96.9 18,2.9 37.2,4.7 57.4,4.7l895.3 0c100.4,0 199.3,-41.6 277.2,-108.2 78.3,-66.8 135.7,-158.8 152.7,-259.5 3.3,-20 5.1,-40.6 5.1,-60.4 0,-73.6 -24.1,-139.4 -65.7,-189.3 -41.5,-49.8 -101.3,-84.9 -172.5,-97.1zm2169.5 0c-17.9,-2.9 -37.2,-4.6 -57.4,-4.6l-895.3 0c-100.3,0 -199.3,41.6 -277.2,108.2 -78.2,66.9 -135.6,159.1 -152.6,259.6 -3.3,20.2 -5.2,40.5 -5.2,60.4 0,73.6 24,139.4 65.7,189.3 41.4,50 101.3,84.8 172.4,96.9 18.1,2.9 37.3,4.7 57.5,4.7l895.2 0c100.5,0 199.4,-41.6 277.4,-108.1 78.1,-66.9 135.6,-158.8 152.6,-259.6 3.3,-20 5.1,-40.6 5.1,-60.4 0,-73.6 -24.1,-139.4 -65.7,-189.3 -41.5,-49.8 -101.3,-84.9 -172.5,-97.1zm-1797.9 -1613.2c-18.2,-3.1 -37.6,-4.8 -57.8,-4.8l-895.3 0c-100.5,0 -199.4,41.6 -277.3,108.1 -78.2,66.8 -135.6,159 -152.7,259.8 -3.3,20.2 -5.1,40.4 -5.1,60.3 0,73.6 24,139.4 65.6,189.3 41.5,50 101.4,84.8 172.5,96.9 18,3 37.3,4.7 57.5,4.7l895.2 0c100.6,0 199.5,-41.6 277.3,-108.1 78.2,-66.8 135.6,-158.8 152.6,-259.6 3.3,-20.1 5.2,-40.7 5.2,-60.6 0,-73.8 -24,-139.6 -65.6,-189.3 -41.4,-49.9 -101.2,-84.7 -172.1,-96.7zm145.1 -4701.9l-1090.8 0c-108,0 -214.1,44.5 -297.7,115.9 -84,71.8 -145.4,170.7 -163.8,279 -3.6,21.6 -5.6,43.4 -5.6,64.8 0,79.4 26,150.2 70.9,203.9 44.7,53.7 109.2,91.1 185.8,104.2 19.3,3.3 40.1,5 61.7,5l1090.8 0c108,0 214.1,-44.6 297.7,-115.9 84.1,-71.8 145.4,-170.7 163.9,-279 3.7,-21.8 5.5,-43.6 5.5,-64.8 0,-79.4 -26,-150.2 -70.8,-203.9 -44.6,-53.6 -109.1,-91.2 -185.8,-104.2 -19.2,-3.2 -40.1,-5 -61.8,-5zm1449.3 -1522.2l-1091.1 0c-107.9,0 -213.9,44.6 -297.7,116 -84,71.8 -145.3,170.6 -163.7,278.9 -3.5,21.6 -5.5,43.6 -5.5,65 0,79.3 26,150.1 70.8,203.8 44.6,53.5 109.1,91.1 185.7,104.2 19.3,3.3 40.1,5 61.8,5l1091 0c107.9,0 214.1,-44.6 297.7,-116.1 83.8,-71.7 145.4,-170.5 163.7,-278.7 3.7,-21.8 5.6,-43.5 5.6,-64.9 0,-79.3 -26,-150.1 -70.9,-203.9 -44.6,-53.6 -108.9,-91.2 -185.7,-104.2 -19.3,-3.2 -40,-5.1 -61.7,-5.1zm35.6 -1483.8l-1090.8 0c-108,0 -214.1,44.6 -297.7,116.1 -84,71.7 -145.4,170.7 -163.8,279 -3.6,21.6 -5.6,43.5 -5.6,64.7 0,79.2 26,150 70.9,203.7 44.5,53.7 109.1,91.3 185.7,104.3 19.4,3.3 40.1,5.1 61.9,5.1l1090.7 0c107.9,0 214,-44.6 297.7,-116 84.1,-71.8 145.4,-170.6 163.7,-278.7 3.7,-21.9 5.6,-43.7 5.6,-65.2 0,-79.1 -25.9,-150.1 -70.7,-203.8 -44.6,-53.4 -109.1,-91.1 -185.6,-104.2 -19.3,-3.2 -40.3,-5 -62,-5zm-1643.5 -1507.1l-1090.9 0c-107.9,0 -213.9,44.6 -297.6,116 -84,71.7 -145.3,170.7 -163.8,279 -3.6,21.6 -5.5,43.5 -5.5,64.7 0,79.4 25.9,150.3 70.8,204 44.6,53.5 109.1,91.1 185.7,104.2 19.3,3.3 40.1,5 61.8,5l1090.9 0c108,0 214,-44.6 297.7,-116 84,-71.7 145.3,-170.5 163.7,-278.8 3.7,-21.9 5.5,-43.8 5.5,-65.2 0,-79.1 -25.8,-150 -70.7,-203.7 -44.6,-53.5 -108.9,-91.1 -185.6,-104.2 -19.2,-3.1 -40.2,-5 -62,-5zm6677.2 3009.3l-3383.1 0c-107.8,0 -214,44.6 -297.6,116.1 -84,71.7 -145.4,170.7 -163.9,278.9 -3.5,21.7 -5.5,43.6 -5.5,64.8 0,79.3 25.9,150 70.7,203.7 44.6,53.7 109,91.3 185.7,104.3 19.4,3.3 40.1,5 61.9,5l3383.1 0c107.9,0 214,-44.5 297.6,-115.9 84,-71.8 145.3,-170.7 163.8,-279 3.7,-21.8 5.6,-43.5 5.6,-64.8 0,-79.4 -26,-150.2 -70.9,-203.9 -44.6,-53.6 -109.1,-91.1 -185.7,-104.2 -19.1,-3.2 -40.1,-5 -61.7,-5zm-664.5 -1502.2l-2193.1 0c-108,0 -214.1,44.6 -297.7,116.1 -84.1,71.7 -145.4,170.7 -163.9,279 -3.5,21.6 -5.5,43.4 -5.5,64.7 0,79.3 26,150.1 70.8,203.8 44.6,53.6 109,91.2 185.8,104.2 19.4,3.3 40.1,5.1 61.8,5.1l2193.2 0c107.9,0 213.9,-44.6 297.7,-116 84,-71.8 145.4,-170.6 163.7,-278.7 3.7,-21.8 5.5,-43.7 5.5,-64.9 0,-79.4 -26,-150.3 -70.8,-204.1 -44.6,-53.5 -109.1,-91.1 -185.7,-104.2 -19.3,-3.2 -40,-5 -61.8,-5zm-583.3 -1507.1l-3353.5 0c-107.9,0 -214,44.6 -297.6,116 -84,71.7 -145.4,170.7 -163.8,279 -3.6,21.6 -5.6,43.5 -5.6,64.7 0,79.4 26,150.3 70.9,204 44.5,53.5 109,91.1 185.7,104.2 19.2,3.3 40.1,5 61.7,5l3353.6 0c108,0 214,-44.6 297.7,-116 84,-71.7 145.3,-170.7 163.8,-279 3.7,-21.7 5.6,-43.5 5.6,-64.7 0,-79.4 -26,-150.3 -70.9,-204 -44.6,-53.5 -109.1,-91.1 -185.7,-104.2 -19.3,-3.1 -40.1,-5 -61.9,-5zm-2859.9 15409.3c-18.1,-3 -37.5,-4.7 -57.7,-4.7l-3166.7 0c-100.4,0 -199.3,41.5 -277.3,108.1 -78.2,66.8 -135.6,158.9 -152.6,259.6 -3.3,20.2 -5.2,40.5 -5.2,60.5 0,73.6 24.1,139.4 65.7,189.2 41.5,50 101.3,84.9 172.4,97 18.1,2.9 37.4,4.6 57.6,4.6l3166.6 0c100.4,0 199.3,-41.5 277.3,-108.2 78.2,-66.7 135.6,-158.8 152.6,-259.5 3.3,-20.2 5.1,-40.8 5.1,-60.7 0,-73.6 -24,-139.5 -65.5,-189.2 -41.3,-49.6 -101.1,-84.5 -172.3,-96.7zm10730.2 0c-18.1,-3 -37.5,-4.7 -57.7,-4.7l-4207.5 0c-100.4,0 -199.3,41.5 -277.3,108.1 -78,66.7 -135.4,159 -152.6,259.8 -3.3,20.2 -5.1,40.3 -5.1,60.4 0,73.5 24,139.3 65.7,189.1 41.4,50 101.1,84.9 172.2,97 18.1,2.9 37.4,4.6 57.6,4.6l4207.5 0c100.4,0 199.3,-41.5 277.3,-108.2 78,-66.6 135.4,-158.9 152.6,-259.7 3.3,-20.2 5.1,-40.5 5.1,-60.4 0,-73.5 -24.1,-139.3 -65.7,-189.2 -41.4,-49.8 -101.1,-84.6 -172.1,-96.8zm-9434.5 -1596.2c-18,-3 -37.6,-4.8 -57.7,-4.8l-5997.7 0c-100.5,0 -199.5,41.6 -277.3,108.1 -78.2,66.8 -135.5,158.9 -152.6,259.7 -3.3,20.2 -5.2,40.5 -5.2,60.5 0,73.8 24.1,139.6 65.6,189.3 41.4,49.9 101.2,84.7 172.2,96.7 18,3.1 37.5,4.8 57.7,4.8l5997.8 0c100.4,0 199.3,-41.6 277.3,-108.2 78.1,-66.6 135.5,-158.9 152.6,-259.7 3.3,-20.2 5.2,-40.6 5.2,-60.6 0,-73.6 -24,-139.4 -65.6,-189.1 -41.3,-49.6 -101,-84.6 -172.3,-96.7zm1355.1 -1529.9c-18,-2.9 -37.3,-4.6 -57.5,-4.6l-3599 0c-100.5,0 -199.4,41.5 -277.3,108 -78.2,66.9 -135.6,158.8 -152.6,259.6 -3.3,20.2 -5.1,40.5 -5.1,60.6 0,73.6 24.1,139.5 65.7,189.4 41.5,49.7 101.4,84.8 172.4,96.8 17.9,2.9 37.3,4.6 57.5,4.6l3598.9 0c100.5,0 199.3,-41.4 277.4,-108.1 78.1,-66.7 135.5,-159 152.6,-259.8 3.3,-20.2 5.1,-40.5 5.1,-60.3 0,-73.6 -24,-139.4 -65.6,-189.3 -41.5,-49.9 -101.4,-84.8 -172.5,-96.9zm7326.8 1529.8c-18,-2.9 -37.3,-4.7 -57.5,-4.7l-4207.4 0c-100.5,0 -199.3,41.5 -277.4,108.2 -78.2,66.7 -135.4,158.8 -152.6,259.6 -3.3,20.1 -5.1,40.5 -5.1,60.3 0,73.6 24.1,139.5 65.7,189.4 41.5,49.9 101.3,84.8 172.5,97 17.9,2.9 37.2,4.6 57.4,4.6l4207.4 0c100.5,0 199.4,-41.6 277.2,-108.1 78.3,-66.8 135.6,-159 152.8,-259.8 3.3,-20.2 5.1,-40.5 5.1,-60.3 0,-73.6 -24,-139.4 -65.7,-189.3 -41.4,-50 -101.3,-84.8 -172.4,-96.9zm-819.5 -1529.8c-18.1,-2.9 -37.3,-4.6 -57.5,-4.6l-4207.4 0c-100.5,0 -199.5,41.5 -277.3,108 -78.2,66.9 -135.6,158.8 -152.6,259.6 -3.3,20.2 -5.2,40.5 -5.2,60.6 0,73.6 24.2,139.5 65.7,189.4 41.6,49.7 101.5,84.8 172.4,96.8 18,2.9 37.4,4.6 57.6,4.6l4207.3 0c100.4,0 199.4,-41.5 277.3,-108.1 78.1,-66.7 135.5,-159 152.6,-259.8 3.3,-20.2 5.2,-40.5 5.2,-60.3 0,-73.6 -24,-139.4 -65.7,-189.3 -41.4,-49.9 -101.3,-84.8 -172.4,-96.9zm-547.2 -1455c-17.9,-2.9 -37.3,-4.6 -57.5,-4.6l-8197.4 0c-100.5,0 -199.3,41.4 -277.4,108.2 -78.1,66.9 -135.6,158.8 -152.6,259.6 -3.3,20.2 -5.2,40.5 -5.2,60.4 0,73.6 24.2,139.4 65.7,189.3 41.6,49.8 101.3,84.8 172.6,96.9 18,2.9 37.3,4.7 57.5,4.7l8197.3 0c100.5,0 199.4,-41.6 277.2,-108.1 78.4,-66.7 135.6,-159.1 152.8,-259.7 3.3,-20.2 5.1,-40.5 5.1,-60.4 0,-73.6 -24.1,-139.6 -65.7,-189.4 -41.5,-49.8 -101.4,-84.9 -172.4,-96.9zm-1024 -1613.4c-17.9,-2.9 -37.3,-4.6 -57.5,-4.6l-8590.9 0c-100.4,0 -199.3,41.6 -277.3,108.2 -78.1,66.6 -135.4,158.9 -152.6,259.7 -3.3,20.2 -5.1,40.5 -5.1,60.6 0,73.6 24,139.4 65.5,189.1 41.3,49.6 101.1,84.6 172.3,96.7 17.9,3.1 37.6,4.8 57.8,4.8l8590.7 0c100.6,0 199.5,-41.6 277.4,-108.1 78.1,-66.8 135.5,-159.1 152.7,-259.7 3.3,-20.2 5.1,-40.5 5.1,-60.4 0,-73.6 -24.1,-139.6 -65.7,-189.4 -41.5,-49.8 -101.4,-84.9 -172.4,-96.9zm-211 -1534.6c-18,-2.9 -37.2,-4.6 -57.6,-4.6l-11780 0c-100.7,0 -199.6,41.5 -277.4,108 -78.3,66.9 -135.6,159.1 -152.7,259.8 -3.3,20 -5.1,40.6 -5.1,60.4 0,73.6 24.1,139.4 65.7,189.3 41.5,49.8 101.3,84.8 172.5,96.9 18,2.9 37.2,4.6 57.4,4.6l11780.2 0c100.4,0 199.2,-41.4 277.3,-108.1 78.1,-66.9 135.5,-159.1 152.6,-259.8 3.3,-20.2 5.2,-40.5 5.2,-60.4 0,-73.5 -24.1,-139.3 -65.7,-189.1 -41.5,-50 -101.3,-84.9 -172.4,-97zm890.5 -1548.7c-19.3,-3.2 -40.1,-5.1 -61.9,-5.1l-7685.1 0c-107.9,0 -213.9,44.6 -297.7,116 -84,71.7 -145.3,170.5 -163.7,278.7 -3.5,21.8 -5.5,43.7 -5.5,65.2 0,79.4 26,150.1 70.6,203.8 44.5,53.5 108.9,91.1 185.7,104.2 19.4,3.3 40.2,5 62,5l7685 0c107.9,0 214,-44.6 297.6,-115.9 84.1,-71.8 145.4,-170.6 163.9,-278.9 3.7,-21.8 5.5,-43.5 5.5,-64.9 0,-79.3 -26,-150.1 -70.7,-203.9 -44.6,-53.6 -109,-91.2 -185.7,-104.2zm1081.2 -1613.4c-19.2,-3.2 -40.1,-5 -61.8,-5l-10455.3 0c-107.9,0 -214,44.5 -297.7,115.9 -84.1,71.8 -145.4,170.6 -163.9,278.9 -3.5,21.6 -5.5,43.5 -5.5,64.9 0,79.4 26,150.2 70.8,203.9 44.6,53.5 109.1,91.1 185.7,104.2 19.4,3.3 40.1,5 61.9,5l10455.3 0c107.9,0 214,-44.6 297.7,-115.9 84.1,-71.8 145.4,-170.6 163.9,-278.9 3.7,-21.8 5.5,-43.5 5.5,-64.9 0,-79.4 -26,-150.2 -70.8,-203.9 -44.6,-53.6 -109.1,-91.2 -185.8,-104.2zm1222.6 -1503.8c-19.3,-3.2 -40,-5 -61.8,-5l-3977 0c-107.9,0 -214,44.6 -297.8,115.9 -84,71.8 -145.3,170.6 -163.7,278.8 -3.5,21.7 -5.5,43.6 -5.5,65.1 0,79.4 26,150.1 70.6,203.8 44.6,53.6 108.9,91.2 185.7,104.2 19.4,3.3 40.2,5 62,5l3977.1 0c107.9,0 213.9,-44.5 297.7,-115.9 83.9,-71.6 145.4,-170.6 163.7,-278.6 3.7,-21.8 5.5,-43.7 5.5,-65 0,-79.4 -25.9,-150.3 -70.7,-204.1 -44.7,-53.7 -109.2,-91.1 -185.8,-104.2zm1240.5 -1502.2c-19.3,-3.2 -40.3,-5 -62,-5l-3977.1 0c-107.9,0 -214.1,44.6 -297.7,116.1 -83.8,71.7 -145.4,170.5 -163.7,278.7 -3.6,21.6 -5.6,43.7 -5.6,64.9 0,79.4 26,150.2 70.9,203.9 44.5,53.6 109,91.2 185.7,104.2 19.2,3.3 40.1,5.1 61.7,5.1l3977.1 0c107.9,0 214,-44.6 297.7,-116 83.9,-71.6 145.4,-170.6 163.7,-278.6 3.7,-21.9 5.6,-43.8 5.6,-65.2 0,-79.4 -25.9,-150.2 -70.7,-203.9 -44.6,-53.5 -109,-91.1 -185.6,-104.2z"/>
   <path class="fil0" d="M31365.7 9653.3l3187.9 0 -208.1 1208.4c829.5,-944.5 1931.7,-1416.8 3306.9,-1416.8 569.5,0 1083.4,121.5 1541.5,364.6 458.3,243.1 832.5,590.4 1122.9,1041.8 290.3,451.5 484.6,996.7 582.9,1635.6 98.2,639 79.2,1354.4 -57.2,2146.1 -155.6,902.9 -433.8,1691.2 -834.5,2364.9 -400.9,673.7 -880.4,1239.7 -1438.6,1698.1 -558.1,458.4 -1176.4,802.2 -1854.9,1031.4 -678.4,229.2 -1378.9,343.8 -2101.2,343.8 -361.1,0 -676.4,-24.4 -945.8,-73 -269.4,-48.6 -509.3,-107.6 -719.6,-177.1l-746.6 4333.9 -3333.8 0 2498.2 -14501.7zm4636.8 2354.4c-375,0 -711.7,59 -1009.9,177.1 -298.1,118.1 -571.7,295.2 -820.7,531.3l-814.8 4729.7c143.2,55.6 309.7,97.3 499.4,125.1 189.6,27.7 409.5,41.6 659.5,41.6 875.1,0 1553.2,-267.4 2034.3,-802.1 481,-534.8 799.4,-1253.7 954.9,-2156.5 129.2,-750.1 81.2,-1378.7 -144,-1885.7 -225.2,-507 -678.1,-760.5 -1358.7,-760.5z"/>
   <path class="fil2" d="M76706.2 18735.9l-121.8 0 124.3 -872.8 229 0c47.6,0 91.2,5.2 130.8,15.7 39.5,10.5 73.3,26 101.2,46.5 28,20.5 48.6,46.3 61.8,77.3 13.2,31.1 17,66.7 11.3,106.8 -8.6,60.4 -35.8,112.7 -81.4,157.3 -45.5,44.5 -105.1,76.9 -178.6,97l258.1 372.2 -149.5 0 -237.3 -351.3c-4.4,0 -11,0.2 -19.9,0.7 -8.9,0.4 -18.2,0.6 -27.9,0.6 -9.7,0 -19.2,0 -28.5,0 -9.2,0 -16.5,0 -21.8,0l-49.8 350zm353.8 -1121.4c95.6,0 184.5,19.1 263.1,53.2 81.7,35.5 152.4,87.7 208.4,152.3 56,64.6 97.7,141.9 121.4,227.6 22.8,82.8 29,173.6 15.6,268.3 -13.5,94.7 -45.7,185.4 -91.9,268.1 -48.2,85.8 -111.9,163.2 -186.3,227.8 -74.5,64.6 -160,116.8 -251.6,152.3 -88.5,34.1 -182.8,53.2 -278.5,53.2 -95.6,0 -184.5,-19.1 -263.1,-53.2 -81.6,-35.5 -152.3,-87.7 -208.3,-152.3 -110.2,-126.9 -164.6,-302.4 -137.1,-495.9 13.5,-94.7 45.7,-185.5 91.9,-268.1 48.1,-85.8 111.9,-163.3 186.3,-227.8 74.3,-64.5 160,-116.8 251.8,-152.3 88.3,-34.1 182.6,-53.2 278.3,-53.2zm371 292.7c-46.2,-53.3 -104.5,-96.4 -171.6,-125.5 -64.6,-28.1 -137.8,-43.7 -217,-43.7 -79.3,0 -157,15.6 -229.6,43.7 -75.4,29.2 -145.9,72.3 -207.3,125.5 -61.5,53.4 -114,117.1 -153.5,187.6 -38,67.9 -64.4,142.6 -75.6,221.1 -11.2,78.5 -6.1,153.2 12.6,221.1 19.4,70.6 53.8,134.4 100,187.6 46.2,53.3 104.5,96.3 171.7,125.6 64.5,28 137.8,43.6 217.1,43.6 79.2,0 156.9,-15.6 229.5,-43.7 75.4,-29.2 145.9,-72.3 207.3,-125.5 120.4,-104.5 206.5,-249.1 229.2,-408.7 11.2,-78.5 6,-153.2 -12.7,-221.1 -19.4,-70.6 -53.9,-134.4 -100.1,-187.6zm-310.4 204.8c3.8,-27 1.3,-50.4 -7.9,-70.1 -9.1,-19.6 -22.9,-35.4 -41.6,-47.1 -18.6,-11.8 -40.8,-20.6 -66.4,-26.3 -25.7,-5.6 -53,-8.4 -82.1,-8.4l-105.9 0 -46.9 328.9 60.9 0c37.1,0 72.2,-3.5 105.4,-10.5 33.2,-7 62.7,-17.7 88.6,-32.1 25.9,-14.4 47.2,-32.8 64.1,-55 16.8,-22.3 27.4,-48.8 31.8,-79.4z"/>
  </g>
 </g>
</svg>
