<?xml version="1.0" encoding="UTF-8"?>
<!DOCTYPE svg PUBLIC "-//W3C//DTD SVG 1.0//EN" "http://www.w3.org/TR/2001/REC-SVG-20010904/DTD/svg10.dtd">
<!-- Creator: CorelDRAW 2018 (64 Bit) -->
<svg xmlns="http://www.w3.org/2000/svg" xml:space="preserve" width="2083px" height="2083px" version="1.0" style="shape-rendering:geometricPrecision; text-rendering:geometricPrecision; image-rendering:optimizeQuality; fill-rule:evenodd; clip-rule:evenodd"
viewBox="0 0 20830 20830"
 xmlns:xlink="http://www.w3.org/1999/xlink">
 <defs>
  <style type="text/css">
   <![CDATA[
    .fil0 {fill:#0A2466}
    .fil2 {fill:#9C9C9C}
    .fil4 {fill:#B9BCBF}
    .fil1 {fill:#BACDF4}
    .fil3 {fill:white}
   ]]>
  </style>
 </defs>
 <g id="Camada_x0020_1">
  <metadata id="CorelCorpID_0Corel-Layer"/>
  <g id="_2482665826128">
   <path class="fil0" d="M20392.6 9536.8l-9031.2 -5214.1 -10923.4 6301.4 9030.5 5214 10924.1 -6301.3z"/>
   <path class="fil1" d="M9468.5 15838.1l-9030.5 -5214 -0.6 669.1 9030.6 5214.1 0.5 -669.2z"/>
   <path class="fil1" d="M9468 16507.3l10924 -6301.4 0.6 -669.1 -10924.1 6301.3 -0.5 669.2z"/>
   <g>
    <path class="fil2" d="M5724.9 12942.1l-988.8 -570.9 0 -152.6 988.8 571.2 0 152.3z"/>
    <path class="fil3" d="M5724.9 12789.8l-988.8 -571.2 2746.4 -1579.9 1000.3 577.3 -2757.9 1573.8z"/>
    <path class="fil4" d="M5724.9 12789.8l2736.3 -1573.4 -0.3 152.2 -2736 1573.5 0 -152.3z"/>
   </g>
   <g>
    <path class="fil2" d="M9231.2 10848l-988.7 -570.9 0 -152.5 988.7 571.2 0 152.2z"/>
    <path class="fil3" d="M9231.2 10695.8l-988.7 -571.2 2746.3 -1580 1000.3 577.4 -2757.9 1573.8z"/>
    <path class="fil4" d="M9231.2 10695.8l2736.3 -1573.5 -0.2 152.2 -2736.1 1573.5 0 -152.2z"/>
   </g>
   <g>
    <path class="fil2" d="M12640.2 8900l-988.8 -570.9 0 -152.5 988.8 571.2 0 152.2z"/>
    <path class="fil3" d="M12640.2 8747.8l-988.8 -571.2 2746.4 -1580 1000.3 577.4 -2757.9 1573.8z"/>
    <path class="fil4" d="M12640.2 8747.8l2736.3 -1573.5 -0.3 152.2 -2736 1573.5 0 -152.2z"/>
   </g>
  </g>
 </g>
</svg>
