<?xml version="1.0" encoding="UTF-8"?>
<!DOCTYPE svg PUBLIC "-//W3C//DTD SVG 1.0//EN" "http://www.w3.org/TR/2001/REC-SVG-20010904/DTD/svg10.dtd">
<!-- Creator: CorelDRAW 2018 (64 Bit) -->
<svg xmlns="http://www.w3.org/2000/svg" xml:space="preserve" width="48px" height="48px" version="1.0" style="shape-rendering:geometricPrecision; text-rendering:geometricPrecision; image-rendering:optimizeQuality; fill-rule:evenodd; clip-rule:evenodd"
viewBox="0 0 48 48"
 xmlns:xlink="http://www.w3.org/1999/xlink">
 <defs>
  <style type="text/css">
   <![CDATA[
    .str0 {stroke:white;stroke-width:2;stroke-miterlimit:22.9256}
    .fil1 {fill:none}
    .fil3 {fill:#8CAAF4}
    .fil2 {fill:#BACDF4}
    .fil4 {fill:#EDF1FD}
    .fil0 {fill:white}
   ]]>
  </style>
 </defs>
 <g id="Camada_x0020_1">
  <metadata id="CorelCorpID_0Corel-Layer"/>
  <g id="_1853899668368">
   <path class="fil0" d="M6.48 12.69l35.05 0c2.22,0 4.04,1.82 4.04,4.05l0 20.22c0,2.22 -1.82,4.04 -4.04,4.04l-35.05 0c-2.23,0 -4.05,-1.82 -4.05,-4.04l0 -20.22c0,-2.23 1.82,-4.05 4.05,-4.05z"/>
   <path class="fil1 str0" d="M17.47 12.69c0,0 -0.76,-4.72 0.59,-5.39 1.35,-0.67 13.48,0 13.48,0l0 5.39"/>
   <path class="fil2" d="M3.36 16.86l3.94 8.98c0.29,0.65 0.72,1.01 1.23,1.01l30.94 0c0.51,0 0.94,-0.36 1.23,-1.01l3.94 -8.98c0.31,-0.71 0.34,-1.56 0.07,-2.31 -0.26,-0.75 -0.74,-1.18 -1.3,-1.18l-38.82 0c-0.56,0 -1.04,0.43 -1.3,1.18 -0.27,0.75 -0.24,1.6 0.07,2.31z"/>
   <path class="fil3" d="M22.65 24.82l2.7 0c0.74,0 1.35,0.61 1.35,1.35l0 5.39c0,0.75 -0.61,1.35 -1.35,1.35l-2.7 0c-0.74,0 -1.35,-0.6 -1.35,-1.35l0 -5.39c0,-0.74 0.61,-1.35 1.35,-1.35z"/>
   <path class="fil4" d="M30.15 18l9.85 0 0 2.31c0,2.59 -1.78,4.7 -3.96,4.7l-1.93 0c-2.18,0 -3.96,-2.11 -3.96,-4.7l0 -2.31z"/>
  </g>
 </g>
</svg>
