<?xml version="1.0" encoding="UTF-8"?>
<!DOCTYPE svg PUBLIC "-//W3C//DTD SVG 1.0//EN" "http://www.w3.org/TR/2001/REC-SVG-20010904/DTD/svg10.dtd">
<!-- Creator: CorelDRAW 2018 (64 Bit) -->
<svg xmlns="http://www.w3.org/2000/svg" xml:space="preserve" width="48px" height="48px" version="1.0" style="shape-rendering:geometricPrecision; text-rendering:geometricPrecision; image-rendering:optimizeQuality; fill-rule:evenodd; clip-rule:evenodd"
viewBox="0 0 48 48"
 xmlns:xlink="http://www.w3.org/1999/xlink">
 <defs>
  <style type="text/css">
   <![CDATA[
    .str1 {stroke:#3C6DEC;stroke-miterlimit:22.9256}
    .str0 {stroke:#8CAAF4;stroke-miterlimit:10}
    .fil4 {fill:none}
    .fil2 {fill:none;fill-rule:nonzero}
    .fil5 {fill:#BACDF4}
    .fil3 {fill:#EDF1FD}
    .fil0 {fill:#FEFEFE;fill-rule:nonzero}
    .fil1 {fill:#BACDF4;fill-rule:nonzero}
    .fil6 {fill:#EDF1FD;fill-rule:nonzero}
   ]]>
  </style>
 </defs>
 <g id="Camada_x0020_1">
  <metadata id="CorelCorpID_0Corel-Layer"/>
  <path class="fil0" d="M23.87 36.39c0,3.1 1.36,5.89 3.56,7.86l-22.32 0c-1.28,0 -2.3,-1.01 -2.26,-2.23 0.15,-4.08 1.11,-12.73 6.44,-17.03 1.96,1.52 4.47,2.43 7.2,2.43 2.93,0 5.59,-1.05 7.62,-2.77 1.41,1.02 2.53,2.33 3.42,3.79 -2.25,1.97 -3.66,4.81 -3.66,7.95z"/>
  <path class="fil1 str0" d="M27.92 14.76c0,3.39 -1.47,6.43 -3.81,8.53 -2.03,1.8 -4.69,2.91 -7.62,2.91 -2.73,0 -5.24,-0.96 -7.2,-2.55 -2.58,-2.1 -4.23,-5.3 -4.23,-8.89 0,-6.31 5.11,-11.44 11.43,-11.44 6.31,0 11.43,5.13 11.43,11.44z"/>
  <path class="fil2" d="M34.18 46.31c-3.01,0 -5.75,-1.18 -7.79,-3.09 -2.19,-2.07 -3.55,-5 -3.55,-8.26 0,-3.3 1.41,-6.28 3.66,-8.35 2.02,-1.86 4.71,-2.99 7.68,-2.99 6.26,0 11.35,5.07 11.35,11.34"/>
  <path class="fil3" d="M18.77 6.67l-10.09 12.44c-1.35,-1.45 -2.18,-3.39 -2.18,-5.52 0,-4.46 3.62,-8.09 8.09,-8.09 1.53,0 2.96,0.43 4.18,1.17z"/>
  <path class="fil4 str1" d="M10.5 30.5c0,0 -3,4.25 -3,9 0,4.75 0,4.75 0,4.75"/>
  <g id="_1580161670992">
   <path class="fil0" d="M33.3 43.32l0.1 -3.23 2.73 0 0.15 3.23 2.94 0c0.38,0 0.7,-0.33 0.7,-0.74l0 -7.05c-3.46,0 -6.91,0 -10.37,0 0,2.35 0,4.7 0,7.05 0,0.41 0.32,0.74 0.71,0.74l3.04 0z"/>
   <path class="fil3" d="M27 35.48l7.66 -7.48 3.96 3.9 -7.59 3.58 -4.03 0z"/>
   <path class="fil5" d="M28.64 35.48l7.31 -6.13 6.11 5.97 -6.38 0.16 -7.04 0z"/>
   <path class="fil4" d="M35.23 28.65l6.77 6.5c0.12,0.11 0.05,0.33 -0.1,0.33l-14.48 0c-0.15,0 -0.22,-0.22 -0.1,-0.33l6.77 -6.5c0.33,-0.31 0.81,-0.31 1.14,0z"/>
   <path class="fil6" d="M33.68 43.32l0.08 -3.05 2.22 0 0.12 3.05 2.37 0c0.32,0 0.57,-0.31 0.57,-0.7l0 -6.66c-1.64,0.63 -7.3,1.83 -7.82,7.36l2.46 0z"/>
  </g>
 </g>
</svg>
